<mxfile host="app.diagrams.net" agent="Mozilla/5.0 (Windows NT 10.0; Win64; x64) AppleWebKit/537.36 (KHTML, like Gecko) Chrome/135.0.0.0 Safari/537.36 OPR/120.0.0.0" version="28.2.0">
  <diagram name="Page-1" id="YW-f0pV2REtlODp2ocxR">
    <mxGraphModel dx="2848" dy="1424" grid="1" gridSize="10" guides="1" tooltips="1" connect="1" arrows="1" fold="1" page="1" pageScale="1" pageWidth="3300" pageHeight="2339" math="0" shadow="0">
      <root>
        <mxCell id="0" />
        <mxCell id="1" parent="0" />
        <mxCell id="jXE84wmBWAXDm7vTvwUr-30" value="&lt;div&gt;&lt;br/&gt;&lt;/div&gt;" style="rounded=0;whiteSpace=wrap;html=1;fillColor=#dae8fc;strokeColor=#6c8ebf;" parent="1" vertex="1">
          <mxGeometry x="730" y="285" width="1460" height="955" as="geometry" />
        </mxCell>
        <mxCell id="4flN3aG6s3kdL9gd_zPc-87" value="&lt;div&gt;&lt;br/&gt;&lt;/div&gt;" style="rounded=0;whiteSpace=wrap;html=1;direction=south;verticalAlign=bottom;" parent="1" vertex="1">
          <mxGeometry x="1809.01" y="330" width="310" height="890" as="geometry" />
        </mxCell>
        <mxCell id="4flN3aG6s3kdL9gd_zPc-38" value="" style="rounded=0;whiteSpace=wrap;html=1;" parent="1" vertex="1">
          <mxGeometry x="1287" y="330" width="368" height="890" as="geometry" />
        </mxCell>
        <mxCell id="4flN3aG6s3kdL9gd_zPc-30" value="" style="rounded=0;whiteSpace=wrap;html=1;movable=1;resizable=1;rotatable=1;deletable=1;editable=1;locked=0;connectable=1;" parent="1" vertex="1">
          <mxGeometry x="834.56" y="669" width="252.87" height="214" as="geometry" />
        </mxCell>
        <mxCell id="4flN3aG6s3kdL9gd_zPc-16" value="" style="rounded=0;whiteSpace=wrap;html=1;direction=south;verticalAlign=bottom;fillColor=#dae8fc;strokeColor=#6c8ebf;" parent="1" vertex="1">
          <mxGeometry x="430" y="280" width="251" height="960" as="geometry" />
        </mxCell>
        <mxCell id="4flN3aG6s3kdL9gd_zPc-1" value="" style="shape=cylinder3;whiteSpace=wrap;html=1;boundedLbl=1;backgroundOutline=1;size=15;" parent="1" vertex="1">
          <mxGeometry x="1964.997979736328" y="427" width="60" height="80" as="geometry" />
        </mxCell>
        <mxCell id="4flN3aG6s3kdL9gd_zPc-2" value="" style="shape=image;verticalLabelPosition=bottom;labelBackgroundColor=default;verticalAlign=top;aspect=fixed;imageAspect=0;image=data:image/png,iVBORw0KGgoAAAANSUhEUgAAAUAAAAFACAMAAAD6TlWYAAAB71BMVEVHcEwiUFwjUV0jUV0jUV0jUV0jUV0iUFwjUV0jUV0jUV0jUV0kUl4jUV0jUV0iUFwiUF0jUV0jUV0jUV0jUV0jUV0jUV0jUV0jUV0jUV0jUV0hUFwjUV0jUV0jUV0jUV0jUV0jUV0jUV0gTlsjUV0jUV0jUV0jUV4hUFwjUV0jUV0jUV0jUV0jUV0jUV0jUV0jUV0iUV0jUV0jUV0jUV0jUV0jUV0jUV0jUV0iUFwjUV0jUV0jUV0jUV0jUV0jUV0jUV0jUV0jUV0jUV0jUl0jUV0jUV0jUV0jUV0jUV0jUV0jUV0jUV0jUV0jUV0jUV0jUV0jUV0jUV0jUV0jUV0jUV0iUV0jUV0jUV0jUV0jUV0jUV0jUV0jUV0iUV0jUV0jUV0jUV0jUV0jUV0jUV0jUV0jUV0jUV0jUV0jUV0jUV0jUV0jUV0jUV0jUV0jUV0jUV0jUV0jUV0jUl4jUV0jUV0jUV0jUV0jUV0jUV0jUV0jUV0jUV0jUV0jUV0jUV0jUV0jUV0jUV0jUV0jUV0jUV0jUV0jUV0jUV0jUV0jUV0jUV0kUV0jUV0jUV0jUV0jUV0jUV0hT1siUFwjUV0jUV0jUV0jUV0jUV0jUV0jUV0jUV0jUV0jUV0jUV0jUV0jUV0jUV0jUV0jUl4jUV0j7j5jAAAApXRSTlMABzmU588zCCNcqP7//5kCCkFaanB5kbbg+8EEMXu74/X9vQE2nun/AxSBfim19ELKDC3N8U4a+oUF94tf69pIpPkk9v/lbh7RhtTtS1QuFcRyaCvc8AvSEviqmJZzDpzOGG13fYmHZlEbOIyPg0YPROxY/9hivzTWxmSm/BDyNcnXSu6wPDtAwqG4Tf+sIUkTEQIGosveJpA+Uhwn4bm8L7N1+MjTyPSgAAAMxklEQVR4AezBwREAEAwAsKLA/gPbwc9dkuB3AAAAAAAAAAAAAAAAAAAAAAAAAAAAAAAAAAAAAAAAAAAAAAAAAACU2rKPeMJc++RlDx4SHYpiAICmVlLbtu3228b+d/LN+94gneccF5LbA7sQXrvPHwiGwpFojPBN3AuCLZFMpTPZHL3BL3kvCKZCsVQm/K/irILgqdXNhCpqgOBptnKo1e6AYLF2CXWkeyA4+gNCHcMRCI5xnlDHZDoDwWAwuVDHfNEDwbHMoo5V0AaCo7lGLRpsCiA4vFtCjb3tPggexwGqDo+OeyB4TiyoolMfCCbPWQ5V51YQXEUzqi4uQXDZnIQKV7gKguuqjSrzNQium1tUkXMGgusuhqrcPQiuh0fUeCqCYHrevrJvH35J9X8fxz+OUjvvj9hwa8pFKplZuEBNDBeamhYuGio5m17uhTaw5R6Xlpftuz/0hgMezjFK0uoe/J6P3e7ldz+Q8Y3WBvrNtG06+n9BU2XFt24kklzDtZCbmVm0hzY/Mu3W7XY6iLKOzsaqMNqP7U50V3R3pqGmp9eQ2dXXf+ZuIsndi+7u7j6XWdNz/8GD4ofJVRGPLAP0Zz0KxbeEaFI4JzBzQgMp/T3IzPp6OoCwGwwUDdF+bgvDPAwMVzAzmPXNIzdG75JEN8bMcGKuEH+Buii9sauA/qDxCfhgrSO59kk4xU+RQuE0A+AHdADmOAAcSfspZoCtJr3JarXq1cwA26vvzJDH2SsA67Nn80TZqVY7A0LjY/pjLE8YPlSWkVxOCVwSBkjuaDpcGnX082xPAXAx7aeHIVx+VpdfV1pamh9xLaTRwUD8XNZuwFbAOPQ8OPiey4uXpUM1rQJw0Ux/yOMnw/DllTLKJTtcyvNJRtMjwCU9h36eqtvKPHLUn4DlF8ir/fnNWgbnJkkB+TUphM8LELrpj9AsPGX4wiHKX9fBcFlcCiKv5SaI7JfoAFoiQjKTyJ+AqS9JTrtSXQFuNJPLajU4jZSeO4DGGfoDBrpK4Jt6lOTacuHmeE5e19QQ8S2NonbUzFoUfV9Um26dfAjSRSX6DFj0iJSOtlZACNnwBKz4R0MKM5vA1hv6/c7M6fEdjsfKie6AG9/U0q6GXHg8maFd61nX08Zyc/+KnCrT0N3bbyMfntGI/9Hb94szH6lI+6J47Ejj5XoNbfcUF3eFk4dtKCa2MWGp998dItWF24Zz/VFSQGsp7bHgABziuGw78m3AsNNAShb9buGGSsb3VJ8luT41AIZTpYV2XZLy10pL2buYFIHF0uqtB2/62Gmsxf0n8CI/tTUUlzCAjLnEgUleZO4lUdRop57hxKanb++ZJ5g5b9sbcIX2KExjcIfWE/A1KQ1cBCZ26Ldaz+p+yvgufq0iGVUaAzAaAQgGDbm1jwHgK7UA1FPk9myCIeGJTQZwcYCcDAwgL2JOgAsXk20E2F2+GjqskHDJ6WwApmc/CEiPsoEmsxjw2zXwpQOYC6PfqK2u4z3jB9QnSW61EwA/nLIDGDGTW345gMrgY2IHd+/gLYhYn2ri3TH7RAyYyQDiQxlgp9R8amgFkCEOHl2aJ6u6vFxgiKRqPqcw2VoBa50n4GtSsIwxyofotwkbT55MZfyQ4wzJnXEAMC3sGAHYT5EobI4Bvqm5JgA4Is74mQ8s1t/M7D9ed+2jFfAGPMcQCcZ/ziU/iAhzrf5Ahrh83TGJ+UI7Ll34ezQtlP0IWDi3COGUK2AnYBzafvny5XZpfl1d/tBUTBOjqCfsd9W7WhVbwtjPxTWSO6kG8D6cagTXzzWQy7bDvSm/zAbQHExOQ2KIovs2chmoqpUFTGa4zPYur5OoTQponhD7NT5XkZM2+BXvH5Ai2X0KX+sUbyIuVr3JpLcLDKH10u/pF/Wp6nMoZ2BfHKMhGdU/DGA+jHIqAZgiyEkbyQAvBVHBCADhDhEV3lgEoA4JIzfNFz2kNTBarGLqSiQ32QgUVwZMWMjjXbUfAWMYHOIJCPaqACB0XtLRL9dy9PZ8OsMvpn6SE5crfkikvclAxWkdkbtldh1R4dIiwNNaInMTnLbKaNfZi3sDfmynvQE9Xx57FUlG9cqA/+UjYIgsYHpIcXFNZnf0l67uno7zE+UVME0X0C818yL5YwnDX8YdknuRB8C6QETBtZ5sGoMAQEwZLQCYsBEF58GdUlLMUsAuVu5NUkDPO0WohSTmLVnAXp8B16cZnOleA3laQ14btv4xAZzWQr9M23HDZDPDf/xaS3KnBABxy0QUdIwBvhFE5hFpMj8qd0U9TrRiBcT/lWRKUAbM3ibJ2VZPQPFVAdWrJIka2zegrtF9WxJ34Q5SMjcC2UP0a7RvG57MMn6KfojkEm/AKTaMnJ5lA6gNpiq7K81ZabwIXb4CRqiVAR1HSdIwoQh4pI0kG/P7BswKFY8Kvs+BdCkeHPtrjstfEpoZP2tkh+QKnnrD6E4D4JCzX73LVtBnOM0VeqZwJHndEQBszkhr4OBV5XOWGHDgCdwDXDLwVRawxmfA63ZgcuZ7AZNqgWY6NO2ZWymMn8chKpK7kCp7YI0wAaiMLJIdqTMZ4rVgpwlOud65qH3NyoDpFpIUGD0BtdMVAKz1JEkqkQU0+Aq46prB0aQ8SHu9CQUEOqysmHTGQcxeIAVxl9halr0gDHOG7FJXZwVQtEKFSwzAOuoNUSkWlQXMIonNuHsTuaMGsHh+QOr+QNgnoCo5HphY3n3Oeu1rBBbR4ehONjEOZPiDjuQ2xCkaG0Rut9V7P7kQ/t4zxYescGraJreCzywGXJMChr4jScMVON3QEL2Lg5O+poVE6xEO/DigdsoBFE35eg+UJjgn0KG8mTbhgKwRpLC8pdgbwrcg4rREcgv7APc5e2CeAfDWKXMhqdqe/SXApdN3wPYncEr5N4xUBvEXWi8H64iC3hkGIQ/48JuDtNnQDNhjwtwBW7/dhXOqxb6HceEI46BetZHCgnX3FChSPWC4ZD+iXb3sSlFGFPweLnbj3Otjm9kM0ZE2n1O4cA5OPJupJdsYw4kHx9Iiz8cxFAEzGfaTuqiNxHXNunajfflvQ6sAmEJmvE/6cxvy19yyqWpGxodVOjhNfUoFDqroBCkZ2H0R3nVmcO/33vyrB2D6l4jqQyHDeu8JTwxYYiGvboZLdRvRp02GiBlARbzaFfCZFDAjvfGv+blj09NL57/GpTLAcVUtJAVE3rGYB/d7agwGQ+/by2Pv7QAb7x2m31A6DozndKQQNA+nz0G0a+Myu3pdIsmbSs9Vj6j0ogC3DPvIw8sZnkJEp8QR+I68LFtwabIRUdacFR6cOm8Q3wNLpc5KbN96+4ncxCnsNpwxPIyKCvcfcf4w/aguFAcXGkxKhTcHZ/O2+skr5+Ogo8nQIvslD5sqK1Ouk8vOtYT0Ir3V8fTGlJnq4mbzBmMKyem50ZFX0tFCMgudViF+Nlaci+0Rsel6ZvvsREedbrkzOzv7iif231uOwRKnwdqS9NAUY+58SES4hiQbN2sd4s+6DKZXxj198rm3tJ0OIWkEB6f/oqE9Bj4F3wtXkczMp6QdlSLyTnhZeBC56SyP8lfGbYlEpH0TfCZJRy6q5fEzV3WkYKu7VP/CRm5ROf19fUMvCtaJNMvPn78o05BIVTb+yWKx5HxKump5t1ywFkRKA0lJOa6fdfmUVWa2DRTSoTTMM/xiN+qxl/CPjgJcYo0d/qnMLIKXuHDz2A4Fuvpm+GnptiDr9zkP4MYsCnTjRvjJPvWWIXlaPwj1+XcUYKLuhpsborQkeTfJ8JPR8hESwRBcXlLTQIFl5/ZpY0rclYSlt3dWLDbdRuJM3ROGn4SH7yohSbEsF2+vU2B5OSnAjbkofaIxdm5ydhFeGZxdOdL55OtmtTGltlzNDJnF3J2IeG/NHhUFnhT8iBA3fXL7jW2tvX3mbEF40oWI5MjzuVsl2SY1O5W/Ck6cZux6Gk4B6FY643viN0+9SaQ9NtbMV7frhkb7+qYerZKlErusfRSIVMcbGT7xlZM22k+3AA8+pqPAZL6sx7cWHfeXaV87V7DrShYFqvboUMYewmSdlvbXZYdH+jMKXJp8BxQ49GEB+eFdEzwcoxoKYAuzkCtfCvYrR+EtAW6DfVoKYOZNyMQ3DrWQX/KbIeK4oXUKYEGRgizfk76z/nbPhUg99oIC2ols7NJ/vW4jP4V1iN055VwDBTRzNdzY+mrU/xZh0UUA+H3MJwpw9Xaxnmlrur6N/HfHyvrK+ap3Ggp0pY7U1NTQub53hfQzpv6KvJ500I/P/cd/twcHAgAAAABA/q+NoKqqqqqqqqqqqqqqqqqqqqqqqqqqqqqqqqqqqqqqqqqqqqqqqqqqAAdfK9O4SovnAAAAAElFTkSuQmCC;" parent="1" vertex="1">
          <mxGeometry x="1965" y="393" width="165.11" height="165.11" as="geometry" />
        </mxCell>
        <mxCell id="4flN3aG6s3kdL9gd_zPc-3" value="" style="shape=image;verticalLabelPosition=bottom;labelBackgroundColor=default;verticalAlign=top;aspect=fixed;imageAspect=0;image=data:image/png,iVBORw0KGgoAAAANSUhEUgAAA6UAAANvCAMAAAASjIymAAAAM1BMVEUAAABtsz9tsz9tsz9tsz9tsz9tsz9tsz9tsz9tsz9tsz9tsz9tsz9tsz9tsz9tsz9tsz8RP6rhAAAAEHRSTlMAECAwQFBgcICQoLDA0ODwVOCoyAAAAAlwSFlzAAALEwAACxMBAJqcGAAAIABJREFUeJzt3dmW4joMQFECYR7C/39tE6BohzGDbUnW2Y/31qouQhTLsuzMZgAAAAAAAAAAAAAAAAAAAAAAAAAAAAAAAAAAAAAAAAAAAAAAAAAAAAAAAAAAAAAAAAAAAAAAAAAAAAAAAAAAAAAAAAAAAAAAAAAAAAAAAAAAAAAAAAAAAAAAAAAAAAAAAAAAAAAAAAAAAAAAAAAAAAAAAAAAAAAAAAAAAAAAAAAAAAAAAAAAAAAAAAAAAAAAAAAAAAAAAAAAAAAAAAAAAAAAAAAAAAAAAAAAAAAAAAAAAAAAAAAAuFTVF5X0XwHgalHX681mc2idPzi2//PyQ+tL7Er/vYAX83rZRubpU1x+0xwO282qnkt/BqBQl+jcjQvOV6fDbrNkcAViqer1NlZ4djWH7ZpJLDDJfLlJE5/dWN2sFtKfFDBovtx+rAmlcNgSqkB/9Wbf5IzQP5dRlQQY+KVabo8SAfrfcbskUoEP5CP0D5EKvFFvlETon+OWpRrgYb6SmYf+tF/TAQHMZgttg2jXcUvpF74td8mXQ6drdkvp6wQIWe505rlvXAKVchLcMRSiN4yo8KW2FqI3BCq8mG8NzEU/aSgmoXjVSnVFt4/jmikqClbvpEMsjj2ZL8pUrQ1nus9OG/odUJxShtH/GFBRlGpV0DD634kZKkox35pcd+mj2ZH4ogD1XjqU0jqwdQbGrbIeiyLjtJK+ysBohU5HXzFBhVHVptjp6KtmQ5zCHFcx2iJOYYy7GG1R8IUhLmP0ast4ChP8xuiZvBcmuI7RVo44ZYkWU3hZe/mmWSe+yFXDBBijLYnRq8R9Dqtz6ucAilU76DPqK2nf4Ol8TPjbUbB5cVvTptkny0rry2+nRoXh3BeN3khVRmpTFlqHMRhFo3eaJLE0b3/1PsVvRskWTEg/SDE9vc0sSHkxRLUVDgXVdrHDaX77vaS8GGDJhPSr2Gnv/ZlIyove5iS7Px1iHrRd/T0USXnR00b09jdjk+CKk/Kil4X5c+pzOcWqIj2GUlJe9EHVaIhIe9qC5IWUFz/VLJEOEmc4DUp1pLz4gYF0uAjD6Sr4daS8+I6BdIzpw2nnspPy4hsG0pEmDqerzi/jPTX4jNLueKcpa6dVt4FkF+0bRXHWQjd4ISasnT6tTjfxvlOUpaLZaKLD2I2n1XMvJikv3qJrd7pmZHS9NHqR8uIdykZRjNoo8zKUkvLijTllo0iOI4pIb56QpLx4RrYbz/D9bPM3v2Wb4muGZWS7UQ3Net8d/nZK803DKrLd2I6Dar31298Rc+cqzKvJdqMbVOt9vwBGyov/6GRIon+Hw+r9LyDlxZ+KA7ET2fecnFafdjfwwhjcMCVNp+eSTNjQ0AlYXhiDK6akKfWanM7Dr2AVPjR5YQxaH2ZEiKXHcLgPfvzULRKQ8uL9Mh2i+tmO21mFWXX7G0h5wQ6YHI4/akjhTLSt6oYpL+equEfdKI/vNaTOXpi2s7CT8nKuinML6kaZNF/CtFM6ui6QdlJejhL0je76jD4HW2fScTvfLExx2GTqGsXdrD6F6TL8ocPtv4UpL5tMPeMVMJm9HxS7e7/viXEn5WWTqV+swGT3Nkx3b3+ClBd07so4vNZrO0ulzeP/hykvHfdOVazAiHhZOO122f/fQtNJedlk6hJBKuU5TDvnY4SDZvgNscnUI4JUTvfs++4BDeFbZsLaHh33DvGCCUlhf0M33+1UiRbh/6Hj3h0ajmQFYdop4TXdZDgMYDruvSFIpT3CtNPP8Nz1EM5Y6bh3hiCVdw/Tbj/D4fmLCv8nHfeuEKQa3MK007/bvMw9w5SX9iNPCFId2jDtHtv4OvUMU17ajxwhSLVoFp2M9iXfnXVnrXTc+0GQ6tF0lsOadxPP8Nui/cgLglStt/POcJ2G9iMnXl+PCSXeTzvDlJf2Ix9oC1Tr9GGhJfwZ2o88IEj1+jTpDE/ppf3IAYJUr48BGB55Q/uRAxy7q9bn+KvCH8t4s0AGJzOo9WlS2gqfrbQflY4g1evbSmjYnkT7UeF4hbBeX8/EDs9V4fSjsnHurl4/Rsiw5kf7Ucnqj7cIpP16zVPYcc9aTMHoC9Trbftu58sLfvhNQz4K0T1aB6r8TmLDRyxbwUtFN4NiPd6mFlbnWYspFWswevXZ5xJ23LMWUyje2KRXr6AL249YiykTazB6/Srv3oUd96zFlIjyrl49g7TTkcJaTIHY9q1X03dcDNuPWIspEOVdtXoHafdbZC2mOJR39ap/f31/wvYj1mJKQ+VIrx4LpQ9hgydrMYVZfLxFIG1IkHbaj1iLKQuNgXoNC1LWYsq1/3iPQNjQo3XDqQtrMSWh50itwXPLcC2GM8oKwpZStUYUgMK1mPj3CoTQzqDWmCptuBYzYAkHunGsp1ajllLCzIj3xZSCw8i0GrneGaRGvC+mEKyUajW2KSEs2NMkWARWSrUavYwSrsUMXGyFTrTvKjU+vsK1GJoES7D8eJdA1JRBMFiLoUmwAHMWYXSalKmGazE0CdrHIoxKA/aTvhMmSDQJmscijEoTg7TzVnCaBK0j31XpOJ/6xQYpUhPjRoEg8l2N+h5E9kWYI9EkaBv5rkYx1k7CTpVNhN8HMeS7GsUJquCr5SRB08h3FYrUKxQ2Ccb5jRBBvqvP5OLun7BJkImpXeS7+kwv7j6+3eC3snvNLvJddfYRN7AEeyjYvWYW/bvqRC3Ghpso2L1mFIeoaNPEPYg+nJhyxL1R2493C0QcI3fFhy8yZWJqE4cGKrOLnpUGu9eYmNrE69V0SXCiQpgtMTG1aHE4UOLV45RiD2hYHmRialhdrzbbA+OqsJgLMP8xMS3MvF5vDhxSJqNJtU2biWmR6vWWPDi32LXd/5iYlmux2pEC57NNFz9MTMtWLbdEag6ROxmevsXgH2JiWiYiNb00ZaMHJqYuzFd7GgmTSVY2+sPE1I3lluJvEodou9Q+fnXBv8bEtHQLAjW65APprDsx5fAjBwjUuNIPpK3gO+PwIx/qHXPUSHIMpK1wj2mefxHiqhVNDzHsswykMw4/8mq+ZUCdKOka6dO3FfyzTExdYUCdJGGz0Ssmpn4teDHxWOm6dt8KTuXldTF2zOu6Xm5erC//uR7wkJ9vSHxHyFU1egiPXOY9psrV9WazOxx+R9bpcNi1Ifv7V1ZrlmaGin9qyi/h62J4j6lSVb3ajDyU4bDfrH6MrividIiDRJU1+PdjvCQKcdWrbY+x85fmsF19ubmI095OCU426iF4RJ9E/gB8sFhH3iF63K0/TWqI016ajVC3+yb4I3Kt0uKHqt6kWic5bJZv7zTi9LedWIDQcK9Mhg2hx+2bb7qi3vvdQbC6yk5wTRbJxtCXe+41+604KP8zkaLRf/Q1KFEtM/fBn3bPQ+qcfqT3hIpG/9Fwr0G12n+8RVLar7qz1Jrp6SvxGO32NdBwL0IqRG+eApXp6RMFMUpfgzTZEL3ppL5z+b9HERUxOuv0Neyl/xZ3lko63pttUExakvbeaYlR+hrkzFWdb3L8n/lS7b3SE6McJChF3wbPZvcYUKkinQ+KYpS+BhFa94wd/25N78Op8ProC85ryK5WMht95/TXq+p5OJXrBfwoeKrT15CBvlT3yf0erRQ/S1I6SfXUfxXcNJzXkFploq19d8v3ljrT8qR0TUf/Y1tMNnZa2m/zMm8tg0H9TJuwfKT0QVIGOzHausXp5vcPFuO40pjq3oXlI7bFJGMrRlvXOK2t/dUjKR5GbygfpWcvRlvte1AqD+8/PWgeRm/CyYf031KolcUYbbX13tKXTk8bC+WYcO6hfNi3yXRj7Kay+4zp4bQ1cstTPkqqNl4obdazRaFh2rxshNeL8lFC8wJ6A051iZPT07vjnxQL/nTKR3GZLBq92pfwsAkdrSS6/1E+SqScXthmU9DK6X5toVz0LCzimXvE6FUVderBqYzR9O0xpyaELxu2+hn0WZeR7P5nfm562ulfFv2sDj4Jm9fi8NYCq91lDDUcoVfBp6F8FEVBszjzTvuNsj3d4wS5DJvXIliYTw4L0Qao9SH0ISxzFPOh5Kw/3jXI5fT9bZAWhflZYR8tP2akoprrm5Wlb4IUKB/FU3LTq2bN4bDZ1EWG513YI8jR2VN4PSxIyulw2LbBabFNYbDgcx+l/xbLFsU0G6l1PFwD8xKZ5dSFeqJHMArKRpG1IXmNyc3yEpXe++LCPM37tRitrI5ACW1Q/oWkixx2mLDIyxbTcVgkHeXYBua6LrruEwlF3smo7Q5yvCSyK/c57DBhkZcewTFKPxwommO7nEk6O0pwGXk/4nAVnQy/XeKTwXMSirxTMCX9obx2PRFheZLrOZCXk6VHOe3X3FCRUOQdb/XxDvXutFsxA40oPO2TIu8g1I3eaojQ6MKlGIq8Q9C4+8ZxQ5kohfASS/8thlDcfbVnEE0lLIBI/y12lHia9DR7yweAqReOCWQrPc0J0g4Dry6zLZxecdpnP6W+PmWck8mzqG0Jl2Io8vZCkAZ2LIr2NSHfCJdi9uQtPRCkD6c1d0xv8wmpat257NQAfiJI/+wZRodYTyn7vFx7WpC+IUhvmi2z0WEmLXS+3nUNc42PCNIrUt3B5pOaht4uz/MtvEeQtk6kW8NtJ73I+9OhPQyorwjSMzE60rTL9vn9Q0e+ji6ClBgdazmtZ+jbKZXNhsT3vzlBSoyOtZvWf1t//152lPLu6N1t1tLfgVnVxB1ni1/fDXF65T5ISawmWE9t7Pv9/RCns867Xl3iJpjiNLVJnq+oD+ebvo9U/KeoJ78fuN9+Zudx6vv4FCakE+0mH7HQ99SBreNpie+DyNiFMdH8MspN/BWfF0yfNG53tv2og5ftRLI71Wb6AZ29o/TyhfncJ+66m8FzChXL5f6ZOmEclM0dHE5PPa/BMJBGsIpw8t/AdM7fqpnj4wIZSGM4XS7k1N/xs63hibe01295t3H2TSfSDoPTr+Tgb89Vzc9veffg6WtOqM3Fpl/K4d9f46fp2m/liDXSONpcNcJrI8YUR7xUkapT7JvfiBOHM0fSdq1FeOKNqo44GU4/7ZEvHdluLPP2ckZ45I2sYXqYnX7bfFsyt/0r8bVD6SnC7xnQ1tDRFL+WNrT8XQhqu/Fch9Kp7YGtsVEaYRVIN6eTUqakEV33UsV46o2P0vOx6CKSz0np0cFMJpvrUNrE+E1TeslLTo58rpTGyM7wZxftkk7b8VFs1uvzMLJiv04R16F08n6Yq4n7skot2rvssfexvpbN7YSPOAEy8Zttiqw2TJit20WQRnUbSvdxftnU77bEDgePizBlPm4F3YbSSNEx/fstbzbjMN8lSCO7TyUjzQgjLAvuCpucOsx3CdLYbk19kRLeKNucy1plc5jvEqSx3YfSWGuVUQ4jKKpjxV++S5BGd0tRo7Q0tOIcGVLQ9+yvyb6gL0+Le1NMtC6RSOe2F1Pq9dfPQJBGV91vomhbUqKVSgoJU3f9uwRpfPegirFprfMLIygiTP2dkV3E16bL/H5p4+3UjbjsUMD37W+/WgFfmjp/+Vi8TWMxFwftb6lwt1TKwQzx/eVjEY4l+xN1i5b1MHVXOrL+han0l49FTFPiTsSMf+veSkeT342AV3/5WLTF0ln0conpMPVWOiqrZ0yJRz4Ws7899p1p+bxlZy+FYQ0mhcdNFPPAoejjh92iobdTVAo+EEfO8u/qRqwdpcjyzIaps1UYyrsJ/F/KixoGCeZiRsPU2SpMrE1VCD1e0hev7+gqwQ1gcr5T+VqFOVE5SuD/mBc5U0lwB5gsSzgbSi1+Rfr93/UY+SGY4hZo7D2onQ2llkvxev1/0sdekUxyE9hbifM1lEYtQOIuOOUjdqqS5jawVpvwNZQazHUs+J/vRn8KJroRjJ0s6GsoZaU0heAeiv5GwlR3gqn1GF9DqbVEx4Yg3428DDNLF6WmqoiuhlLy3SSCU+3ij1DcDN6GUvLdFLb/L3D8oTRdlBraF+VqKCXfTSHs4UuwzJXwfjBTQfLUwWsoxTEkPIonxRVOeUcYqSC52gxj5DsxJjw/IMU2hpR3hJFWQU9DKf0MKYTP+STJStJ7wkQPkqsjGmw8N43pnJeVZEdg2pvCwtTU02lHFr4Pe8JXC6WZ9ye+LfSX/ee/P0QxKB2lsA0vcZrN9e7vi+3vD1EMtsIksAyvcKL7PfWNob1c4amjIcFyO7qHOCc6pyb5raH8+e1pGUb/9MOgzvtuU6WOyW+NJuaRh/E5eqmw9rTGpO6EKdWRb85vjsXvv78Y0fdToTspTTaU5lgs1JzzOqodqX5aGrXoVjVS3ek5olRzzuuodsRQGl3VnS8lq85labzR+xR3VDvS+yXYtete4mQ90nna49QWFx31HTGURrfuXuF0WzXzRKnW3oYqy6dXgaE0uufYSfcczNRqrrR/dP37Ly8FQ2lsz++kTvgczHWf6tyL4WexlLaj2KrnmydhjTTXYSIqEy5HjfZs/o7tuaSRMl3MduSPxtvET8Ib8/XxaD0vtCctvWSLUo0FJD8JLy8rjexlCS9p606+3ht9N4qjhFdxX4lJL42laef9h2w3ir4OJD8Jb+xXgHn3XN5NXULPF6X6bhU/CS/LMFG9lHdTH3KcMUq1pV1+WhpYhonrJUhT54k5u82Vrcb46eHVVxIwbZf9Ame9W3QlXn56eJUlMca9FlyT5ypZ7xZdg6mbTWu6Lrt1b1Kw1KNP5qMKNA2mfg7L1thQYtabIE1eFs18q2p6qvs5pUFhP4lZi9cMLH2/Tu4BRdFg6mYdhlchxvMmSDMcGJT7zZ16BlM/6zAkvNG8djNkuaWzv19XzWC6/P23FoKEN5bXboZzlgL669JPYmoakLJ/cikkvLG8DdIca9E5W49utKzduXlpKQlvJG+DNN1ZR4H8UapkMPWzH4aEN5K3sZLlDJLct4yafaZupqVZHvYevJ0i5em9zH3PZPtgv7hZLdVxue17G6R5HoES/Tc6Nmi4WS3VeSycOe+LjXkurkiXnIojtCU+uAQOPIrifZBmylOyL5e2NHQ2uGniZR0mhvdBmmvKLxKlGhZjZD64AM3vuzPjfZA2uSYT+RdiWgoOunezt5Rp6XQfGmCyPQBlaigK5kpeehoUXGrzPgRpvolb3lvmQbx+5KbVnmnpZB+CNN+6v1QDjvi946Z4xGrpVJ/6vfONNGI3q3T/kZuTeNVsQbLqU5BmbHQVq3RKVx7dbIiRfhxa9+lGOWa8sGJtctLNpTK17fx09HmZVX1cCshZOpe7WYWXTMU+d2biBQDT3m5Vu8qaC8qddSmb8rrZtkbxaILPQZr14Se4HiGb8rop8VI8Gu9zkJ6yzvYlb1bRlNdNf6CCXkyrFp8bX/L2c0nerKIpr5vNpZIX2bZ3R3reZb51JdcjRFNeLyVeDbuPbKo/B2nuipzoTmjJZMxLFy8l3pG+vI4v76R0JrweIXm0negHz4gS7zhfgjTbdrU/spVOwee8m4UYDvkc5dtMMPsllW1mFdxTxUIMPqu+BWn+c2qFm1nlbiE3LwFnIWa4z8ukZ5Gap/AxenInNrhZLhW7wnYtvkWFwFnS0juh5dZivCyXclDDYF+WSc8ix9OIz87EdlWxXIr3vs+FJIpx4nmf2LkqRCne+p5kibzhSPxeFZuYemlqUPLiLCs+7ya9knnmyW1buxObmEp/8Fxoahhi/r2amvN0hv8WmW6VL6QmptKfOxeidIDvdaP8PUc3Cg7oEpqYumk9Ikr7+7WGLrS6r+B0d6G7SLy4nYv4scd2/Orwkeq1FJ+WitUg3UQpDYI9fe03akkVOhVMS6VW3YlSdPyYkgoWyxVMS6VeNeSmjZco7eVnKMiUd1sKpqVS2b54O0cuRGkPX7fAXGXf9/1fjrvkJ5nyEVGKh6/d9VdCazAtHXMzmfIRUYo/y59FVMEgVbItRKZ8RJTirkcYSJ53oaSVVSTjJ0px9aMn8EoySLW034jcR0QpWr+zXeH2LRXrMGehs7N1ZPsZEKXf9LkNZHcVqViHOQv1dIhv2cuFKP3sd233LB2k0oepPIgUeYlSrPo0yAofOq6m+0bkLbhEqXc/9nvfybUc3WhJeGVOuXMTpRya/V7da4VDOkjVJLwynbxuopT9pW/1qx5KB6mehFcmKSNKPetVNlIQpIoSXpGlGDcrMUTpq55rkIId9neKEl6RG8lNVwMvRnw275lHSTbv3ilKeEVWpNxEKefxPln3PKBEQZBqSnhFbiQ3USr6vnV9+g6kKoJUSw/vFVGaksDF1avvQKoiSNX08N4IXACi1KHeA6mOIJV+IeITgQvgJ0ppPvrTeyBVEqQaDg8MCFwBXclESkTpTc810paOIJV+A/gzgRtJx2kyObBgejUgeTrpCNJKwWnZIaI0IbnXrSvSr2v3Rr7j6EbTYmmLKE2IBdMeB3kGtASpstqRSJQqm5knJPTyAEX6V43OioJU3R0qMXWS/sz5aLnthCwGbaxQE6TaakdEaVqui7zVsG0VezVBqqnR/kYiSpUV0BISOf1NiV6Hpvwne8ZRh74FfYkodbPBVNOtl1k9sACj6UopOSw7QJSm5LXffj50ZqdpZVnbMsxZ5vK42QbutHxUbYbOaVSdEKVtGebMNvDEPJaPVkMzxkZVkGpczpeIUj+NvKoyuTzqwfMZJa27fzTOxyRuI41Pq0S8dR/136D2oKR194/Km1MiStW1diQkcHnlDC4anTX1MtxoHEplUjLpD52Ro4np8KLRWVMvw43KoVQmSv20NfjZFjMqRlUtk16pHEplolTnpUjCy4rpoLb6B1XF3ZbOoVQmStV1Myc0l7jAuQ1efLlq9E0HlI4fIlHqaMFU33AR37gYPR91FXdbSodSmShdSn/qjIo/4H5kjJ4PyupGLaVDqUyUelqKKbtJsFqPbU1XVzea6R1KhZpjpD91TgWnvOPqunqvir7NMHcyE3iFDc3JFJvyzsfHqLKmwDuFm2HuZKJU06tykisz5R3TZ/RHW7/RjbbjPQMyUeqpyFvkgQ31lOesxinpTPVNKROlaqfpKZTX2LCaMmPRtU/tP1VvWXsic0X0nf+UkspJ2GjVZlKRRdkWmP+0rsK0hC6J3ilAAkozvFHqiX1j2rrrH1Sv4QtdE1flo0brnTlUNSnVbamdo1dqV2HOcnMmxTP1BJTOxAZa7KZmQGqzXeU3pNRZAq7KR+eT0FWOaPowqjjb1d4NJ7Xk7qt8dF4KXeZY6snD6FlxtjvT3mYjdnqW7ssSm+njj+bTirp3irNd5fmuYJR62mJ6NnywSrWO8zzd6c12L88h5UsOYneP3p7JJGwOptUqUi2+0Z3ya14qbYlFqeZOjxTsDabRQvTyjNJ9YIXyfFfyIErN61MJGBtMI4ao7rLRTHt99yz6smpnE1NLg2nUENV4cEqX+kKm4BPe2cTUzJpp3BA18A4O/e8WE+ww9TYx1Z73Xc0jVXQf1A+kuvt3byQfdM4mpvq7eRfb6Lmf+oFU89bvB8nJkv5MIzLVW2OWu/hPTf0Dqf5FmJZkhdxAqhGZ1gLSfJ1ki5L+gdTIUCF6haQ/fHYqC0h1/Dz3Svka6Y2JkUJ2Ec/VHtMrbaPLfLVPNC1rLNTKZgsDk1LpF4I5eiX4H00TtVSDaEt11+5DpX6l9Ep2d7K7tZhLzqvk7r3MRBMOIyetE/AnRpI54Ue7jUdZVArqvFWKcm6g0ZbXf2KicnQWf528+i7nBIQPV6k3qR+NewtVo5aV5jfpDnD1bc4JCL57YZE0zb05Gkl2DZ3pI/42eW/tRy2Zqel8lTbNvbFR2b2yUd5tiW/NtTIziCp7BpN6IvqwUVIb68FOkMq/TN5jypu3glQtE663dJmZkM7MrMG0FLTCeEx5s+2OyRihlwzBzIR0ZipINawKOGxsaKUv9GaNUDsrpDeWglR6UaDlsLHhKumlzxyhlxhVcCcNYCpI5aelM5eNDVep7uvsEWouRo0FqYJpqZ2l5egS3Np5VlueGFp8ubEVpBqmpe7eRBGIG6aLtUCEXp70hhZfbowFqfxq6ZW3owT/i9buWm/S9xS9ZS3XndkL0rOOp6CZRq34IiQz1XIjdiSIwRidza0FqXQT7x+fS6ZXx0kPyss0VPCeOxqMUUsdR3daZv1Ol0yvRrfe1xka578x1cPwUJsLUhXrMC2/9aPW8GflfLmVPvdup+XeGcbgeoKKdZgrv/Wj1qBDvIQquR2NubLuncWtHeK71h58ttw/9FxwnAvWiQImp6OtysjxKV2KzsnScPdJ+jmcXmah4kPo1U7RXTPMwlpx90pPwmtyvhDZ5yRyvsre8ffJaW001b1Y2qsbtfQkvDPXizF37070atdC9dxcO5NV3TurB2ypSl2sXsSYuj0CanLcm6PhYfTyuLM6pdKU8Np471V69zit15LNCm80W1WP9MGMZrtnda9CYDC9Oq3Fl0Jf7HW0e49WWVyAuVO2LO11M7h2x5XlTLdls7Z7c5S+eM98dzbodFwre5aPYDpJU7c0zWCqzGlrP0RND6Qq3x3PYKrIyXi96KYyPZAqOaWhi8FUizJCdDarNS1ljaFxgZrBVIMS5qJXc5NtuyF1taMWg6m4YkJ0NtuYXSN9UFc7umIwFbU3v+jy39J6sntWWTtqMZiKaXZLnffEKLW6zpAxVDXaB4yX5Kw6bTWWKUabF5KTaZ180M2b33FdRkH3Tykxet5LX8mPGEzz2q+0PrBHKiZGdS7D3BUw6bfiMhWV/rZjKyhG1RzD+w6HNuRxLKRxIVRSjGp578QHRVTnvjtuV7dspqplDgTcl7Mq+l8Zdd0HXdu/n5V+nOBp8xQhi13WklmzK2hV9L9VaVMlnR0ND0WlLc/evlilytYmU9iSy5/5tri1Ad1DadmrMZ/Ox8jSclraksufpfl+3TeUD6XCMRdFAAAGQ0lEQVQFvzXm+CVKUp/MU9ySy12Bw2hL+1A6K7aAtP86H0y4Xbms7r9AtTa9x/sL9UNpqQWkXzt6E7389rRVXdIfr1qVmOneGBhKbb5055ff2+4ThGkp27lflByiZ9VtR/9VpZXV+3WSzONOsQraK9pVeIjqbjsK1NLXKbZ+WwUjfuxiQ3RR7Fz0PxND6ay8nLfndY/0sUvazh2qVvLvbs1A4Zlk7xWW8/bdhBTjY5caoks1b55LrLGTBZWV8/a+7lM3G5QZopWO1ytnouzVMF+VlPMOSGGmDKZFhuhipezNVqmdLH2JJeW8A1KY0YNpgSE6V/X21lxsLW+Xk/MOKaxXo/6F4kJ0sfIYoC0jqzAPxZyush7yqYcvBZYVovVys/eV4nbZKR3dlfJlDbrwA/calBOii3qzPRQ0zRnHUunoJnIvjpRhTZlDmpiLaF2o6/Vm7zS9fWGigffJUvqiRTFwptH3174c+vCwqP9sXqzr0ORvaKx5Xa82l+AsJV2KxUrXUUcRyzEDk5heN26z67TRL64BeTiMHpKOh5vdPZhX9zCO1qw//3toXP4R92ntR1pPs/+hhGftwCjtsX5/uG0/rNr7fp/npj8dHl4H6Pf295/P8eeVwdRSaaCEqenABbBfd3WznV8LLSU8wNBhMt9tFTA1HXjtf0TpiYSxVEbz3Zb9VdOBp2OQITplNd+9Mr/jN/68FCUyfaxGovOA8klR40Vx7PUzdCyMV5ASrZeiKNb6d18Y77tvBn3YMg9QxA/9jtxRzfiL2AZNOIo9Mxzf2Nqv9p7td8ck3hMD+wwvwgRMh+lxwAedS/+xEGB+Unpju9A7IOW1vzyMwQqYlN6YDtNM5x7BKNMrpR2mO3p7bwOlduSQgVc39WZ52bTvvKPkd7fiAzOHZPdiOUx7Ftop8PpTSOXowXB3Q7/zyo2vC2OEYymVowfDd3GfL8NysoBxmnIqRw+Gw/R3YkOQOlRgkJoO0/2P0ZQgdaik8m7AcJh+T3oJUocKDVLTYdp8OVuFhVKHylqD6TAcpufdh+F0wQENDhUcpLbDtNm8idO56b0EGKnoIJ3NlpancM2u2+FQrRhHXSo8SM1XWpr95vryh6p29Y5rhMrrZnhhPEzhnoMgvYSp5Y1scM9FkBrfbwrnnATpJUzZPwKjfrWhlYT1C5hUfHW3w/LCKdzyFaSzWU2pF9Z4C1JKvTCn2Ab7Lyq6AmCJxyC92Epfd6CvEk9m6Md0Vy88ObkNUianMMJNL8NbFSun0M9fcffJiqwXyg16816Z5mS90OzbaTqOUOuFXsfebwoqXM3ryqBUGS8RjoJdMlCp6fmWICdYOoU+ZLtPGE6hzUY6KBRiOIUmJ2q771QUe6GGp1MZhqlZO4UKlI2+2ZD2Qh4D6Xe80wHSTgykP5H2QtSWgbQPOvAh5uh4J+kwFdNTiGjY/zIA01MIINkdiDhFZgcaAoeb0zSIfI70Go1TE6fI4+T0IM8oyHuRQUOMTkOcIrFmQ9FoMtZlkNBpTYxGUa04cwVJMB+NiUIS4jsQo5HNNwyoiGnH2ksKSwZURHLa0MOQynzNgIrp9qS6aS22BCqmYBjNYrljbQbjNMxG81kyomKwZscxDJktNpzqgP4IUSHz1Z7cFz2ctoSopMX6IH0LQLf9mnKRAvWGMRVvHTZUixRZrLYMqgg0eyJUpTZUGVXRHDZLslzVqnq9ObBQ41Nz2K5r9qKZMa9Xm+2BodWH5nDYbGoyXLvq+hKwF7sDytJ+q+ua4AQAAAAAAAAAAAAAAAAAAAAAAAAAAAAAAAAAAAAAAAAAAAAAAAAAAAAAAAAAAAAAAAAAAAAAAAAAAAAAAAAAAAAAAAAAAAAAAAAAAAAAAAAAAAAAAAAAAAAAAAAAAAAAAAAAAAAAAAAAAAAAAAAAAAAAAAAAAAAAAAAAAAAAAAAAAAAAAAAAAAAAAAAAAAAAAAAAAAAAAAAAAAAAAAAAAAAAAAAAAAAAAAAAAAAAAAAAAAAAAAAAAAAAAAAAAAAAAAAAAAAAAAAAAAAAAAAAAAAAAAAAAAAAAAAAAAAAAAAAAAAAAAAAAAAAAAAAAAAAAAAAAAAAAAAAAAAAAAAAAAAAAAAAAAAAAAAAAAAAAAAAAADwwz+J0SJm4imtxwAAAABJRU5ErkJggg==;movable=1;resizable=1;rotatable=1;deletable=1;editable=1;locked=0;connectable=1;" parent="1" vertex="1">
          <mxGeometry x="889.997979736328" y="720.89" width="142" height="133.78" as="geometry" />
        </mxCell>
        <mxCell id="4flN3aG6s3kdL9gd_zPc-6" value="" style="shape=image;verticalLabelPosition=bottom;labelBackgroundColor=default;verticalAlign=top;aspect=fixed;imageAspect=0;image=data:image/png,iVBORw0KGgoAAAANSUhEUgAAAIAAAACACAYAAADDPmHLAAAABHNCSVQICAgIfAhkiAAAAAlwSFlzAAADsQAAA7EB9YPtSQAAABl0RVh0U29mdHdhcmUAd3d3Lmlua3NjYXBlLm9yZ5vuPBoAAAKSSURBVHic7d0/axRBAIbx58wJBjVFiIKBgP+wEmxMKgvB1k7TWllY+RUstRNbWwu/gp2IYmVhoVZCNEYMBgRRC42oxWohrOE2zu5e7n1+MEXCzc7APLncXrMgSZIkSZIkSZIkSZIkSZIkSZKkHWmwzXlLwGXgSMG9aPtWgNvAky4WWwY2gZ8TMDaAt2OwjxJjE7iwxbnVavoOMAWsA3NNFxpDX4EF4DPwEpjvdztFvAcOAT9GnbCr4QInmIzDhyrmWWAG2NPzXko5SHVGIxs2XGB/w9ePsyHwnOqvZXfPeymp0Rk1DeBf7gGrha6l0cwCF7tedIn6DyDnu96IOEn9WSw2uUjTzwCaMAYQzgDCGUA4AwhnAOEMIJwBhDOAcAYQzgDCGUA4AwhnAOEMIJwBhDOAcAYQzgDCGUA4AwhnAOEMIJwBhDOAcAYQzgDCGUA4AwhnAOEMIJwBhDOAcAYQzgDCGUA4AwhnAOEMIJwBhDOAcAYQzgDCGUA4AwhnAOEMIJwBhDOAcAYQzgDCGUA4AwhnAOEMIJwBhDOAcKUeHXuX6vHl6s5UiYuUCmBfoeuoY03/BfiA6PG31uTFTQNYBx43nKPuPALetb3IceAF9U+udvQ3ngHHtji3WoOmE36bBs4B89ucr7JWgAfAt743oh1mANzoexMFfQSut7zGFeBwy2t0ZkB1/17qdrBva8BCy2s8BM60vEZXNodUt3ZH+95JIdPAcstrzLV8/S69HgC3gKsjTnhF/VvsNfxAuBPdHFAd3FPgwAgTvgOfan4/Q6GvJtWZDeDUnx8WgTf0fy/r6GasAqfh7+8B9gKXgLPALJpEH4D7wB3gS897kSRJkiRJkiRJkiRJkiRJkiRJ0v/4BaFWfrE5p0cAAAAAAElFTkSuQmCC;" parent="1" vertex="1">
          <mxGeometry x="467" y="644" width="183" height="183" as="geometry" />
        </mxCell>
        <mxCell id="4flN3aG6s3kdL9gd_zPc-8" value="" style="shape=image;verticalLabelPosition=bottom;labelBackgroundColor=default;verticalAlign=top;aspect=fixed;imageAspect=0;image=data:image/png,iVBORw0KGgoAAAANSUhEUgAAAIAAAACACAYAAADDPmHLAAAACXBIWXMAAB2HAAAdhwGP5fFlAAAAGXRFWHRTb2Z0d2FyZQB3d3cuaW5rc2NhcGUub3Jnm+48GgAACLlJREFUeJztnXuMXUUdxz/bXVjc3Uq7bXlW24qEVhQN5RGkEEWgRCHIw8RAAtWAASnxFSmvhJcxYmKIRP/wDxI1JgIloPJ+E7WpLU9raRG0+EKQUHZpacVub5c/frd4z8y59557d879zTnn90km7Ww2c77zO7Mzc2Z+vxkwDMMwDMMwDMMwDMMwDKP89GkL6BF7A58BlgAHAfPrqQ/YWf+dzcB6YAOwDnik/jOjoIwAlwCrgAlgssM0ATwEXAjM7LF2YwocANwIjNH5S2+W3gKuA2b0sB5Gh0wDliMvK9SLd9M4cBnQ36M6GRlZCKym+YurAWuAm4AvAIcBc4H3AXsgXfyhwJnAd+tl1VqU91tgXk9qZrTlBJp39/8ArqW7lzUXuBz4Z5Oyx4HTpybdmCrLgP/hv5wx4JvAngGeMQhcDLyR8pwJ4JwAzzC6YBmwC/+l3AbMzuF5s+tlpw0vF+TwPKMFJ+D/5e8Avt6DZ38V/7OyBiztwbMNZMLnjvnvAKf0UMOpwHZHwxvYxDB3puHP9ieAzytoOQ2/J3gS+aowcuIS/DH44sj0XKqop9QcgL/I82tVRcLt+EPBqKqikvJ9koZ+HZijqkiYg2waNWr7gaqiEjICvEnSyN9SVZTkUvy9g2FVRSVjOUkDvwYMqSpKshfwCkmNyzQFlY1VJI17la6cVK4kqfF3unLKwwz8z60PqypK54MkN5B2YZPBIJxB8uU/oyunJWtJav2crpz2TNMWkIHjnfyDKiqy8ZiT/6SKig4oQgNY4OT/pKIiG087+cUqKjqgCA1gvpN/XkNERv7s5PdRUVEy3I2fWbpyWjIb3yHFmCLbSBp1RFdOSwZJat2uK6c9RRgCJpz8DhUV2XCdRaO3b/QC8V/4dBUV2XA9kbaoqOiAIjSAcSfvfhXEhLvwM6aiogOK0AA2OPn5GiIystDJv6SiogOK0ADWO/mjVVRk4xgn734WRkcRGoC78HOyiopsHOvkV6uoKBmzkIlg4ybLgaqK0vkQSTf1Gvm4pwelCD3AZuDxhnwfErEbG18mGW7/B8Q9zAjAhSQXWP6DOGHEwiC+Q8hFqopKxkx8h9DlqoqSXEZS2xbsTIHgXI/vdxfDXGAOslbRqO1GVUUlZSb+xtBKVUUy5t+B3zD31RRVZtyudhKJAtbi2yl6ehGfWFn6kcMZ3MDMMxS0pIWGrQUGFLRUinn4Y+52etsIzsaPTh5D1gKMHnA66SHaeQ8HfcjXx07n2RMUwAG0bJxL+jk+dyBxhKHZF7gn5Xm7gC/l8DwjAxeQ3gjGkXCtEItFw8hkr9kRMfbylVlK+svZHUB6A/CBLso9GLgaWXVMK3ucEnT7ZTkqdh7S9R/R4nfWIyd/rgH+DvwNmcj11dMC5Ki4jyKN6rAWZT0JfBHYNEXdRkAGgK/Q/C82RHobOXYuxOljRk6MIvH5IU8M3YqcT2B+/gViGDgfidJNO06uXaohUckXUeKNnbLMAdoxirhrHYOEa+2HOJrMQlYXtyITyU3ARmQv/wlsP98wDMMwjJJS5kngCLAIWdE7pP7vgvrPh5GjZ3YHmr6NrOxtq///ZeDFhvRC/eelo0wNYBiZ5S9B/POPJ9yCTQ14Dvks/D3wMH7ImqHAXohjxu2k3xuQV9qJNILziDtcvbQcBfwM8b7t1UtvlrYAP6X1PkS0FG0IWAqsAD6d4XcnkbF7IxKk+WL93zcRD6Jx/j+ujyBzgiFkcejghvQRZA6RxVaPIh7BD2eqjZGZk4Fnaf/XuAG4GTiLsOcI74O4gf0IaVTtdDyFXFRpTJG5wM9pbex/AT9EJn+94lBkV3BTG213E/d5BtGyB3AN/q0cjekh4CR04xunIcPSIzTXuQ1xLDFv4YwchDhtNJt93wocrqauOUcgXyPN7htcjfUGbTmb5ncAriXuwyF2cziyVpBWh7cQZ1bDoR/4MelGewUxWpG+WPoQX4RXSa/Tzdj1s+8xBPyGdEPdSbFP3N4bGbLS6vYr4rrzQIVZpHeX24GvKeoKzXnImoNbzzVU2M1sNnLur2uUTcjiS9n4GOKN7NZ3PXEff5sL70dcq11j/JE4Yv7zYn/kRHG33s8iK5GVYAg/wncSuI9qbKxMR+48cOv/OHKdfanpA+7Cr/z9VMvXfhBZyHLtsJJife10zOX4lV5FNa9Ya9YTxnQdXlA+hR/S/RQyH6gqMxBHk0abTADHaYrKg/3wF0Vep7ugzbIxH//m0X9Tss/D20hWsIZsohjCifiHTvxCVVFAPos/zl2tqihOrsO3U8znImdiCPgr/qaOrYP79CNzokZbvUzBJ8jfwZ/gfFxVUdwsxh8KrlFVNAVG8Z02v6eqqBjcRNJm4xQ0OvkGkhV5Fdv9ysJ05Aup0XbXagrqhhn4jh3fUFVULFZQ8F7gCpIVeA376++EEfxeYIWqog7oQ3zwK7G8mSNuL/CCrpzsLCEp/L8UrPuKhFHgHZK2dC+lipJbSIr+pa6cQrOSpC1/oiunPXvin85V+NUsRdxV1HEijy84Dn9Tw1b9uqcfmUA32tS9mm5KhI6qOdHJP4hs/BjdUcMPNA0ac5h3A3g0cPlVxLVhtEGnI/gXPO6vqqgcHEhyCNhBpGsqR1LQ79YC4K6rLA5VcMghwL05+/mAZVcd9wb1Q0IVnGcD2Biw7Krj2tK1ddeEbACLnLwNAeFwbenaumtCNgA3oucvAcuuOi85+WDOtCEbgOvePRaw7Krjnkk4PVTBIRuAK2prwLKrjmtLawAVY4uTjzKYxo36qVKsX94M4i8GBSFkD7DZyQf7VDG8WX+UN5k8gPkB5IUbWXWvrpx0luFHttwKfILI97AjZQCxnfvyJ5EjZ6JjgPQjXyyFTeuI2MdiEXIYs7aRypo2E3AfIC8WIgcfaRurbGkdBXj5uxlADkq8H3EL6+bixqqnWt129yFjfrTdvmEYhmEYhmEYhmEYhmEYhmEYhmEYMfIuKDcTFDZ56yEAAAAASUVORK5CYII=;" parent="1" vertex="1">
          <mxGeometry x="282" y="679" width="110" height="110" as="geometry" />
        </mxCell>
        <mxCell id="4flN3aG6s3kdL9gd_zPc-10" value="" style="shape=image;verticalLabelPosition=bottom;labelBackgroundColor=default;verticalAlign=top;aspect=fixed;imageAspect=0;image=data:image/png,iVBORw0KGgoAAAANSUhEUgAAAIAAAACACAYAAADDPmHLAAAABHNCSVQICAgIfAhkiAAAAAlwSFlzAAADdgAAA3YBfdWCzAAAABl0RVh0U29mdHdhcmUAd3d3Lmlua3NjYXBlLm9yZ5vuPBoAABlFSURBVHic7Z15fFXVtce/K6gIDgwyBEJIyEBGZgVBQFEQFSdK1da5g9Vi1daxVu3nfWp9dWi1tU/w4XtWUeyzVq0CVkUFS0BkFAJJCDckuYRRRqsyZ70/9o2GcO/Z55x7bkICv89nfzKcvdfa55x19l577bXWFlXlGI5eJDV1B46haXFMAI5yHBOAoxzHBOAox3FN3YHGhOxcIcA5wGAgPVIAqiKlBHhX2/fd3+idayLI0bAKkJ0rOgE/Am4CMi3VNwPPA89p+76Vie5bU6PFC4DsWHE18DRwmsem+4HfAL/TDn0PBt6xIwQtVgBke3EX4Dng0jhJLQSu1459VsffqyMPLVIAZHtxCvAR0DsgkruAsdqxz6cB0Tti0OIEQLYVpwKzsc/1XmGE4LSWJQQtSgBkW3FXYAHfavdBYxdwnp7WZ0mC6Dc6WowAyNbiVsAsYFSCWVUDA7RTnx0J5tMoaEGGIHkYZBQILsoKkEdAhkTKI5H/uWmbBvJ8Y99dotAiRgD5fOU4YDrmDTlhH/BD7Vw4LQadqzE2gNYu2N6unQv/7KmjRyCavQDIlpUnAauBFEvVHcB47VL4sYXecOAf2O0Ge4A87VJY5bKrRyRawhTwIPaXvx4YZnv5ANqlsAg4Ewhbqp4IPO6qh0cwmvUIIJtXZgMrgRMcqikwWrsWfuSR9nDgY+wfyUjtWjjXC+0jCc18BJCnQE6wKG1Pe335ANq1sAjkCRdK4VOyeZVN9zhi0WwFQDatKkQZh4JDKUO53zcT5dcoyy08BqGMi+tmmhDNVgCAWy3XDwDXaXLBbr8MNLlgH3AdsNdS9Ra/PJoazVIAZOOqU1GutXyZL2hyweJ4eWlyQTHKcxZeF8rGVWnx8moKNEsBQOV6VE5GhRilFpXgNHSVJ1DZ78AvCZWfBMavEdE8BQAmWq6/od3z1wTFTLvnh4FXLNV+JBtKjg+KZ2Oh2QmArC8ZhZJnGZIfDZyx8ihKrQPPrijjA+ebYDQ7AcD+9c/SlPzAd+s0Jb8MeNNSrdkpg83KECQ1Jd0xu3FOzqznaY98z+t+l/xPBxZZquVpj/wyF7TaAO0wH2FdqQW2aI/8ffH21S0S5hUsNaXtgKxIyaz3exbQCbO3vhNjo98ZpdQAy4FS7ZEXeSDyE0uf12qPvIS8fADtkb9YakqXAgMdqt0M/AJAakpPxNx7dqRkffu7pBB980qlpnQrsAHzDBZgHFwWao+8wL2VAx0BZF1pBnANcDWQGxDZ/UAZRhjOB7o41H1YU/N+HRDfqJB1pT8DnHYBvwAWY150D+w7lG7xFfAh8CdNDU7IAxEACZcWAE8AF8ZNLD7kaM+88kQykHBpR8zX6WbLOFFYCjymPfP+Fi+huJRACZe2lXDps5ivs6lf/r+BXAmXJm5aC5cK0A8TO9CUGAi8KuHSv0q49KR4CPkeAaS6tDMwAxNlcyRhC2bN/oKm5S0PgqBUl/YCboiU9CBoBohVwHhNy/Nl9/AlAFJd1hn4hOA9b4PGcuAFYJqm5X7upaFUl50EfBe4ETib4ObyRCAMDNS03G1eG/oTgKqy6cDFnhs2HQ4A72CEYaam58ZcZklV2QjgB8AVwMmN0rtg8B5wkabn1npp5FkApKrsFmCyp0ZwEAhhlny7IuUA0B6zFm4fKZ1IvHK1DTNFvKjpuUsApKqsJ98O8Yke1XYDWzl0yfsF0AbzDDpgnkOqD9q/0vTc33lp4EkApLLsOEwUrc0FC4wb1gvAXGC+9sr9twv6rYAMoBAoqFf6uO6kN6zE6AyjSMwQ/yXwGbAEszRcAqzWXvavVCrLkoERwEjM0rqDC37bgR7aK9f1Frg3AVi7+rvAa5ZqW4GHgSmakbPHNfHYPJOBjfHSaSJ01oycrfESkbWr2wN3Az8HbFr/TZqR8z9uaXtdBt5oub4LGK0ZOU8H8fIjyLNcbzSzaQPswdyvE3KCYKQZOTs1I+dBzEhlG0mv9kLbmwAogy27cN/XjJxAll71eOZbeP4FJQvlfpRllrrxllqUj1B+hJKMMtVSPz/QR5GRswjlUgvPgVKx2vV05loApGJ1KtDZocp2jCYaNGwjwBLNzKnQzJxHNTNnIMYE+wAQZHKHSuAeoKdm5pynmTnPa2bOLsyc7gRb3z1DM3PmYOIgYqEdRo9yBfcjgNLLInlzNDPH0xLEJV/bCLC0Qf3tKJ1QUgL88ntERhlpwGtJY44A9fh+aOHrRkkHPE0BUmtxj06QeVTyHHjuAykGkFB5awmV3wNSAfILF+7iXsrxIDeDhCRU/icJlXeK9K0UZLdDu8BHgAjftZb+uv4QvYwABy1Sl+6alkvImvIOkbk2Fs+VmtV7n6wpvwhlJcrjKO0TqAO0RrkdpVzWlE+M/M/JbTxV1pQHb0xS0iz9dJ3SxosA7GpsAcDu+rVdysuno8yMDNGJevENSweUZ1AWWz4MQQPbFq//XNIt/XNtEvayCijH2T8+Q8rLT/FAzw1sQ+ho/JuklwHjImWZTxr9gbMsdQLVA6S8PAno61Dla4zV1RVcC4D27n0AlRIH1+jWqExwS88dU8l34Oe3lKFyJSqDtHfvd7R373dQGRT5X1kC+AWrB6iMRyXNgV+x9u6dAB3AwBZoca1HejYE+fCqMIasQs3Jfk1zsrXuguZkq+Zkv4YxQf8gUjcoBL0SuM9yfYEXYl4NQa9a5p5RUrYmuM0U+xLQTdmIcitKjuZkv6g52TEVJM3JPqg52S+g5ETabAyAf2BCLGVrzkM5w8IvavKLWPA6AszGOCo60XvYI82okLI1bYGecZDYCdwLZGpu9iTNzXZtMtbc7H2amz0JszN4b4SWX2RI2Zqgdjh/ableprnZNq/lQ+BJADQ3uxblFYsEfk9K1wzwQjc6M4ZHtGg/X90rKLmam/2E5mb7Dw7Nzd6tudlPoOS6uO9YpRVKP799qIOUrhmEMtrCa6pXut59AlWmWpQeQSWuyBwpCV2Fyps+FK4QKmM0L/sazcsOzDCledmbNS/7GlTGRHh47dd0KQmNiK8T8ksLj32ovOSVrGcB0PysVdi3hM+XktBPvdKWklCSlIR+B/wf0NZD032YvL59ND/rA6983SJCu0+El5ddyC7Ah1ISsoW0R4WUhC7HuKc5YbLmZzlNz9Fp+3IJWxXKwqRWdwqG3AcM14IsV3OSrAq1w3jqXOSxO7OBn2pBlqtcvvJZVXuOPzgAZRASCfBQliIsYX+rZdo/3dV8L6tCORjPqFEe+/s8MFELsmw5B+r4pGPsFO0dqu0CMrUgq3F8AiMdexq4zVLNOCtaOiarQrnAW3jL7fs5cJcWZLka9qRk7XConYRavIuEYkiaqPkZRa7orgpdB/wB553ShvgUmKAFWesttE8AioAzLPTu14IsX9OufwFYGeqMsTidaqn6LjBOC7OiGidkZehiYJoLOg1xnRZmvWztZyjUmj36W5A7cT/l1YI+yYnyoGbZv1RZGboW8Dr/bgK+q4VZ8xzo/hG4w0KnBuithVm+lF3fgSFamPW5C8UEVC5A5aFoNKS44gFU3kblVB+K1Ve2PkpJKJ/dshRNuhuTxMEt7SQ06W52y1IpCdkNOSpf+eh/MiofSXHFzTGezXhU7nBB5yd+Xz7EGRmkfTInY9ytbfi1FFeMrftDiitOkuKK14Df4t8Z01EAJBRqzUF5jfgscfkclNckFLKt463CGAMnAM9KccUUKa74JtWdFFf0wugKNkzWPpn/9MkbCCI6WPkhUIzzHJgETJMVFQOBVpj5Pl5P36+dr8pvCcYMmx+hdU/MGmrpix03AYWyomICxm39bzgrfWA25+6Ok2/8CSK0b+ZmzA3YcBomlGwRwbh5x3zosnztcODOAHjU4c4ITc998YChmL2WV4DTLXUPANdq38y4+QaSIUT7Zr6FyrMu5qs+qJzmY770qgNM8jjn23UCmBT7AfjSAaKV7qhMcFHvIe2b6cnkGwtBpoi5HXNMS7xQjM272lIvqvTLZ1XtsY0wItsQJlIr/amV/ggTEbGtoftEaLvuSz0sBuKaq+thqvbLCCwHUmACoP0y9qNMQCmNY+fsa5QJ2i/jMVd1o0EODnBuJ9tIqh2gfTMm64Bey3VAr+XaN2MySbUDUNnm2FYORt/jMP126ut+lIsxiab8PhtQ/oW6mm5dI9AkUdo/YycmfevnPm5uPcoI7Z9hEjHZ60efAjRpkHM7fUgLM9cd1qwwcx2qDzm3TRoUnSdfWfraVvtn1Gr/jPtRrnIhMNFKCOU72j8j0ECYwLOE6YCMSuAyTOSMWywBBuuAjKXWmga1OiAjOn1Vp/w9gMz3dy027UhfnLxw2tar+zdgGN6cTnYA43RAhmdTrw2JyaahUolZzrj2T49Cw+lq7IddmwTiYN20WR2c+DpfqyX2B3VoQ5X9mO+6yRH4CCBLK9tg1vleXv4gYKEsrbR8vd/gOFlaGeOMAHUeRWp1mK9rDrQjfXH6mL6uV/cCTHKNXs68DkEHYIYsrezooY0rBCoAsqRSMPFythjCaCUFZa4sqTTZNu31Y2wXJzlH6yAPy6KKw2Lvzf/kYee2SdFDwZS2lr5+HXk+t6PMQDnVx/PJRnldllQGmo426CngEez71k5oC7wuSyrd5PhvSzRXrVa6zBIWcRpJSctkydqHSIrM+bU6jKSkh7GdE9RKY7mP23wX9suSysnEn0n0HMwW9I/jpPMNAssTKIsrb8AkhGgs9NbTe0VNjCSLK1cQfFKJYj29V1R/fFlcmY0xzTYW7tLTez0ZBKFApgBZVNUblUkuLFgrzVo7EKtZ7K9OdCImZXwQfIyCJxo7R7FK24D47EGlxkW9R2VRlVt9yRFxC4AsqjoOsxduGwZ3AJdgnBuK4+XrxE8HZRSBBPKFGMiThqb3vnjAOkxKmIuwWxaPB6bJoqo28TKNfwRQHnCp9N2oZ6RX6RnplShDUf7uQxGqX5xTpXTY/yBKSZw8QCmhw/4HLc/gpDh5fIwySM9IX6xnpBej3OKiTS7KE479coH4MoUurBqMObfPhj/o4PS36/7Qwelf6eD0KyJt/Sohjl+dZmXtRZOuwPgu+kUJmnSFC6+geEaAp4HROjj9mzyGOjj9JeC/XbS9VRZWXRAHb/8CIJ9Wt0LlL6gcZ5mvPkElqlavg9MfQeVSVL4IVAeooz+kZwnbDgxE5fcedYJaVH7PtgMDdUhPuwD50wH2oHK9Dk6/QwenH4hC8w5UFrugM0U+rT7RzTuLhnhGgB9id7jYBlylQ9JipjnXIWkzgCF416InyqfV2bZKemHWXh2Sdg/I2aAudA8tBjlbh6Tdoxe68Ac0fbAdYtEQYeAsHZIW049Qh6TtxSypt1topWL3G4wJf27hC6rbYhxCuzlUU+ASPTNtpkuaftzC9wL/CTymZ6a5c7OeU9WeNjIAY32s06SXAkvYrcv0HJdu4QuqW2MCNX+Ft+SWs4Er9cw0V+njZEH1hcBMnI3YO4FMPTPNJiyH0/clAJ9UP4Dx53PCYzo0zRbL1pBuEsaY5KkdZvT4qQ5NS9hhEfUhn1SfizHIeHFjB3gKuEeHprnO4BHh9xsgqmNtPTypQ9Pu8tgfH6liP6nugNnJcnLjXg0U6tC0w+c2dzyuwjhFelWuXgbu0qFpW/zwtUE+qe6CiQHwGga/G/ixDk2znTwWi28SZv/AKTP7XqCXDk3zlFTTT2zg1djduB/3+/IBdGjaq6h8x4didS0qZTI/fJPMDzsNmZ4g88Mi88M3YRJIXOujXyP8vvzI86hF5T4Lj9aoXOOVth8l8AbL9fWYLzFeLPTZrgMwBSiS+WFbRI0VERpFEZpu8vU2xEYd1jPuU8x0WM85mCAbJ3hO0OFJAGReOA97goIndVjPuL1WdFjPHSg74zCuDENZKPPCb8i8cIFX/jIvXCDzwm+gLIzQ8tuPUr/P4DCYbKhOvPrJvHChF5JeM4RcZ+nAdpQpnmg681sbgCVvPMoKKQpPlaJwLxtLKQr3kqLwVJQVkbbx8o/HEHUI9Kyen6F8auHnaRrwOgXYYtyf0eE9v/RI0wlrA6KThDkFfLUUhZ+RovBhy1cpCneTovAzGAX2OoLzlQhuBDCwxSA6xS8cBm/+ACpOW6z7MGbN4KASlADU4XiM0eYHMnfdn4HHIv+/D+Q2zKENQSOwEQAAlVeBPxL73XnaBnefLHruunRMIuJYqNARqXHnxm9I03J9HuZABq9og8n9szZS7sX7y1fgVeB9S71AR4DIM650qNIu8q5cwUum0G6WuafKNS33PEMWnq1QTsdk9NrhY35uFyle232MMkRHpH4Pk5g6Vr0dOiI1+BzKSpWlf04W2kPgZZ6z1a3yQMstbF93PwAdmToJY5WbhImbSxRWA5fpyNRzdGTqIvnXuhMwuQVjIdjh/1tUWa67fq8eRgBpZTFEdHVNyy3LkanbUQk78GxDJBOnjkzdqiNTb0WlAH8JppzKVlR+hkqhjkx9+9sOSh9UTnBoF7QCWMf3ZEt/W7kl5WUKcA6bUs6ROTXBH0dvPwVkUIP6GzHOJqsDWMLVL3log6hdZWBjLQHrIHNqBHu6ONdnJHpZBZRhXJVi2ec7AmMI/tSQZZhIo1gYJHNqXsckjb4Sc4St7/3xGOgE3ArcKnNq1mJS2kwDooeKfYtEjABjcM7F8CXOJ4ocAm+nhs2umY+JY4+FrcBQHdXDdbZqFzwvxQSaxMJOzHZsIpZwNuzHOVNauo7qUR0UM5ldk4XZFOrkUG2ujuox0i1Nr0P265brnYClMrvmNpldE1TMgS2Ve3ua5uWD88v/CuP4ETdkdk2SzK65BRND6fTyweRYdE/b0wjw0foOmKxUbrZp/w3MAWYBs/TclDIX9LtitPmGJTFn75gTO78AeiSA9h7MdLgG4zxT97NGz02xHxz50foU4HxgLOZcBOegFYMdQKqem+I6Z5F3f4CP1j+FOcDQK9ZjTuk8iAnurP/zJMxpX15TxflBLfAB8CLwJmYffRQmlfx3CMbF2wl7MManisjvx0VKq3q/J+NP6O/Vc1M8eQp7F4AP1x+PsX6d46lh06MEmAq8rOelRE3QKB+uPwWjSN6IR5v6EYCX9LyU67028ucS9sH6DpiDCby6RDU2tgF/Babq6BRPOXXkg/WZGN+H64G0BPQtSMwFRuvoFM/b8P4zhX6w3o1G2hTYj8ld+CIw089DqQ/5YL3w7RQxgcRPEV4RAs7U0Sm+kkfEFRwqszZ0AR7HfCWBuWD5xJeYE0P/qmO6uzaEeIHM2nAKcAXGIda1vT1BOIhxTH1Ix3T3faBFINHBMmvDWcAzEP/BCHGgFuihY7on9KRxmbWhDbAZCPqENC+YD9yqY7r72Qk9BMHkCRzTfR7KIJTvoUxD2RqwGfYLlKLIz1h1klCuDOJ+nG+Wy1FOcejHJozXji1xlNeyHXNm05Uow4N4+RBgfoBDiL6/IQkTBXwRMBLoitEVOmKWOw3xNWaJWL9UA8uBFUCVnt9d5f0NtiXoAj2/u5OlMm7I+xvewZibY+FOPb/7U/L+BsGcOdQHc85fX8wpaB0xfhWxzNWKsW5uAzZgAkneBRbq+d0DP5s5IQIQk9l7GwVjueuEGUK3A1t0bDdXKU/lvY05mD0JJ2Tr2G6BmaIb8O+Ose7F2m3bC6To2G5WhUze29gaIwjtMPaPrzAvfbuO7eYpcCQeNKoABAF5d+OHwLkOVaboBd2ipmAPgPcTOCdonqYXdAv67MSEIvjt28RjsuX6DfLuxsA1dHl3Y0fsOX6C84huJDQ/AVDewvlAx9ZooJnC6/jehnKyA98yvaDbvwLnm2A0OwHQC7vtB/7XUu1m+edGP1E8USH/3HgyJhm2E5rd1w/NUAAAUJmCykEHl6hTUPlZgPxuQaWjA7+9qHg+tPFIQLMUAL0oeR3KTMu6+ecyc1NyvLxk5qaOKPdYeP1dL0oOPI9vY6BZCkAENmWwI/BcAHyexRz86IRmOfxDcxYA5T2UlZYv82KZscl3Vk2ZselalCssPIp0XHKzU/7q0GwFQC9OVuyKGcBTMmOTNSi0IWTGplTgv2zdINiziRodzVYAAPTi5NmovGbxkT8ZlZdl+mbX27gyffOJqLyESjsL7Wl6cXIgZ/c0FZq1AERwF/bMmsOAOTJ9s20uR6Zv7oQ5++hsS9XdmARRzRrNXgD0kq7rUB50sZt2Bson8vbmmF5M8vbmbJQFmEymNnr36SVdDzt6prmh2e0FxIK8tfkNYLyLqtsxCahmYlK/gPH/G4fJfejmUIYZelnXS/z080hDCxKALe0wx7NleWi2K/LTKey9ITYA/fSyLkGHwjcJWowAAMg/tvTDOEgmyltnNzBWL+8yN0H0Gx3NXgeoD728y3JMMMUuW10f2ANc2pJePrSwEaAO8uaWgZjYBTfRNG6wB7hMx3exZQNpdmhRI0AddHyXpRhXtBUBkKsARrXElw8tVAAAdHyXElROR+U/UNnvMzHEFFT66fguC5r6fhKFFjkFNIS8/nk+JqX697EriHsxUdCTdELneYnuW1PjqBCAOsjrn5+MCewYDKRHCpicO5XASuBVndC5WW7t+sFRJQDHcDharA5wDO5wTACOchwTgKMcxwTgKMf/A0g84ooafz6+AAAAAElFTkSuQmCC;" parent="1" vertex="1">
          <mxGeometry x="515.1500000000001" y="685.77" width="93.7" height="93.7" as="geometry" />
        </mxCell>
        <mxCell id="4flN3aG6s3kdL9gd_zPc-12" value="" style="shape=image;verticalLabelPosition=bottom;labelBackgroundColor=default;verticalAlign=top;aspect=fixed;imageAspect=0;editableCssRules=.*;image=data:image/svg+xml,PHN2ZyB4bWxucz0iaHR0cDovL3d3dy53My5vcmcvMjAwMC9zdmciIHdpZHRoPSIyNDc4Ljg1NDk2MTcxNzkxNDYiIHZpZXdCb3g9IjAuMDc0OTkxMjI2MTk2Mjg5MDYgMCA1MDkuOTUwMDQyNzI0NjA5NCA0NTcuNzk5OTg3NzkyOTY4NzUiIGhlaWdodD0iMjIxNS45OTk5NDA5MTEzNTYiPjxwYXRoIGZpbGw9IiM2ZGIzM2YiIGQ9Im01MDMuNSAyMDEuNC0xMDAuNS0xNzMuOWMtOC43LTE1LjEtMzAuMS0yNy41LTQ3LjYtMjcuNWgtMjAwLjhjLTE3LjQgMC0zOC45IDEyLjQtNDcuNiAyNy41bC0xMDAuNCAxNzMuOWMtOC43IDE1LjEtOC43IDM5LjggMCA1NC45bDEwMC40IDE3NGM4LjcgMTUuMSAzMC4xIDI3LjUgNDcuNiAyNy41aDIwMC45YzE3LjQgMCAzOC44LTEyLjQgNDcuNi0yNy41bDEwMC40LTE3NGM4LjctMTUuMSA4LjctMzkuOCAwLTU0Ljl6bS0yNzAuMi0xMDUuMmMwLTExLjQgOS4zLTIwLjcgMjAuNy0yMC43czIwLjcgOS4zIDIwLjcgMjAuN3YxMjMuN2MwIDExLjQtOS4zIDIwLjctMjAuNyAyMC43cy0yMC43LTkuMy0yMC43LTIwLjd6bTIwLjcgMjY0LjFjLTc3LjQgMC0xNDAuNC02My0xNDAuNC0xNDAuNC4xLTQ0LjQgMjEuMS04Ni4xIDU2LjctMTEyLjcgOC4yLTYuMSAxOS43LTQuNCAyNS44IDMuOHM0LjQgMTkuNy0zLjggMjUuOGMtNDUuOSAzNC4xLTU1LjUgOTktMjEuNCAxNDQuOXM5OSA1NS41IDE0NC45IDIxLjRjMjYuMy0xOS41IDQxLjgtNTAuNCA0MS44LTgzLjItLjEtMzIuOS0xNS43LTYzLjgtNDIuMi04My40LTguMi02LTkuOS0xNy42LTMuOS0yNS44czE3LjYtOS45IDI1LjgtMy45YzM1LjkgMjYuNSA1NyA2OC41IDU3LjEgMTEzLjEgMCA3Ny41LTYzIDE0MC40LTE0MC40IDE0MC40eiIvPjwvc3ZnPg==;" parent="1" vertex="1">
          <mxGeometry x="1410" y="410" width="84.99" height="76" as="geometry" />
        </mxCell>
        <mxCell id="4flN3aG6s3kdL9gd_zPc-27" value="&lt;font&gt;Frontend&lt;/font&gt;" style="text;html=1;align=center;verticalAlign=middle;whiteSpace=wrap;rounded=0;fontSize=28;fontStyle=1" parent="1" vertex="1">
          <mxGeometry x="496.5" y="298.00000000000006" width="60" height="30" as="geometry" />
        </mxCell>
        <mxCell id="4flN3aG6s3kdL9gd_zPc-31" value="&lt;font style=&quot;font-size: 29px;&quot;&gt;&lt;b&gt;API Gateway&lt;/b&gt;&lt;/font&gt;" style="text;html=1;align=center;verticalAlign=middle;whiteSpace=wrap;rounded=0;movable=1;resizable=1;rotatable=1;deletable=1;editable=1;locked=0;connectable=1;" parent="1" vertex="1">
          <mxGeometry x="866" y="695" width="190" height="30" as="geometry" />
        </mxCell>
        <mxCell id="4flN3aG6s3kdL9gd_zPc-56" value="&lt;b&gt;&lt;font style=&quot;font-size: 22px;&quot;&gt;prescription-service: port 8081&lt;/font&gt;&lt;/b&gt;" style="text;html=1;align=center;verticalAlign=middle;whiteSpace=wrap;rounded=0;" parent="1" vertex="1">
          <mxGeometry x="1361.61" y="500.03" width="241.26" height="30" as="geometry" />
        </mxCell>
        <mxCell id="4flN3aG6s3kdL9gd_zPc-60" value="&lt;span style=&quot;font-size: 29px;&quot;&gt;&lt;b&gt;User&lt;/b&gt;&lt;/span&gt;" style="text;html=1;align=center;verticalAlign=middle;whiteSpace=wrap;rounded=0;" parent="1" vertex="1">
          <mxGeometry x="250" y="786" width="190" height="30" as="geometry" />
        </mxCell>
        <mxCell id="4flN3aG6s3kdL9gd_zPc-64" value="Backend" style="text;html=1;align=center;verticalAlign=middle;whiteSpace=wrap;rounded=0;fontSize=28;fontStyle=1" parent="1" vertex="1">
          <mxGeometry x="790" y="304" width="60" height="18" as="geometry" />
        </mxCell>
        <mxCell id="4flN3aG6s3kdL9gd_zPc-83" value="&lt;span style=&quot;font-size: 29px;&quot;&gt;&lt;b&gt;React Ts&lt;/b&gt;&lt;/span&gt;" style="text;html=1;align=center;verticalAlign=middle;whiteSpace=wrap;rounded=0;" parent="1" vertex="1">
          <mxGeometry x="467" y="836.89" width="190" height="30" as="geometry" />
        </mxCell>
        <mxCell id="4flN3aG6s3kdL9gd_zPc-96" value="&lt;span&gt;Databases&lt;/span&gt;" style="text;html=1;align=center;verticalAlign=middle;whiteSpace=wrap;rounded=0;fontFamily=Helvetica;fontSize=29;fontColor=default;resizable=1;fontStyle=1" parent="1" vertex="1">
          <mxGeometry x="1933" y="363.5" width="60" height="30" as="geometry" />
        </mxCell>
        <mxCell id="jXE84wmBWAXDm7vTvwUr-27" value="&lt;font style=&quot;font-size: 19px;&quot;&gt;&lt;b&gt;Spring cloud gateway&lt;/b&gt;&lt;/font&gt;" style="text;html=1;align=center;verticalAlign=middle;whiteSpace=wrap;rounded=0;movable=0;resizable=0;rotatable=0;deletable=0;editable=0;locked=1;connectable=0;" parent="1" vertex="1">
          <mxGeometry x="870" y="836.89" width="190" height="30" as="geometry" />
        </mxCell>
        <mxCell id="jXE84wmBWAXDm7vTvwUr-39" value="" style="shape=image;verticalLabelPosition=bottom;labelBackgroundColor=default;verticalAlign=top;aspect=fixed;imageAspect=0;editableCssRules=.*;image=data:image/svg+xml,PHN2ZyB4bWxucz0iaHR0cDovL3d3dy53My5vcmcvMjAwMC9zdmciIHZpZXdCb3g9IjAgMC4zMDAwMDAwMTE5MjA5Mjg5NiAxMDIwIDk2OS40MDYxODg5NjQ4NDM4IiBoZWlnaHQ9Ijk2OS40MDYxODg5NjQ4NDM4IiB3aWR0aD0iMTAyMCIgZGF0YS1uYW1lPSJMYXllciAxIiBpZD0iTGF5ZXJfMSI+PGRlZnM+PHN0eWxlPi5jbHMtMXtmaWxsOiNjMDA7fTwvc3R5bGU+PC9kZWZzPjx0aXRsZT5GbHl3YXk8L3RpdGxlPjxwYXRoIGQ9Ik0zLjksODk4LjNDMCw4ODUuNiwwLDg3My40LDAsODYwLjVWNzY0LjJDMCw3MzEuNi42LDY5NC41LDguMiw2NjNjMjgtNi45LDU5LjgtNy4zLDkzLjItNy4zaDcyLjlhNzYuOSw3Ni45LDAsMCwxLDEuNywxNS4yLDg2LjcsODYuNywwLDAsMS0xLjcsMTUuMmMtMTAuMiwzLjMtMjAuNCwzLjMtMzAuOSwzLjNIMTAzYy0yMS44LDAtNDAuNywwLTU5LjUsMy45LTIuNywyMC4xLTMuMyw0NC0zLjMsNzFIMTQ5LjRhNjIuNiw2Mi42LDAsMCwxLDEuNiwxNC45LDczLjcsNzMuNywwLDAsMS0xLjYsMTUuN2MtMTAuNSwzLjMtMjAuNCwzLjMtMzEuNiwzLjNINDAuMnYxMDBhODEuOCw4MS44LDAsMCwxLTE3LjcsMS43QTE1MC44LDE1MC44LDAsMCwxLDMuOSw4OTguM1oiLz48cGF0aCBkPSJNMTk5LjksODk4YTIzNC40LDIzNC40LDAsMCwxLTEuOS0zMy41VjY4OS42YzAtMTEuNiwwLTIzLDMuNi0zNC4zYTc0LDc0LDAsMCwxLDMwLjYsMGMzLjMsMTEuMiwzLjMsMjMsMy4zLDM0LjZWODY0LjFjMCwxMC44LjMsMjEuMS0yLDMzLjlhNTkuNyw1OS43LDAsMCwxLTE2LjEsMkE3Mi44LDcyLjgsMCwwLDEsMTk5LjksODk4WiIvPjxwYXRoIGQ9Ik0yNzMuMiw5NjcuN2wzMy4yLTc1LjlMMjU5LjgsNzc4LjdjLTUuMi0xMy4xLTEzLjItMzEuMi0xMy41LTQ1LjZhNjkuMiw2OS4yLDAsMCwxLDE4LjgtMi4zLDcwLDcwLDAsMCwxLDE3LjcsMmw0NCwxMTQuNywyMy44LTUxLjljNy41LTE2LjksMTcuNy00NC44LDIyLjYtNjIuOGE3Ny4yLDc3LjIsMCwwLDEsMTguNS0yLDc0LjEsNzQuMSwwLDAsMSwxOCwyYy0yLjIsMjEtMTQuMSw0NS42LTI2LjMsNzMuM0wzMTMsOTY3LjdhODkuMyw4OS4zLDAsMCwxLTE5LjQsMkE5NC4xLDk0LjEsMCwwLDEsMjczLjIsOTY3LjdaIi8+PHBhdGggZD0iTTQ1Ny44LDg5OCw0MjMuOSw3NzEuMWMtNC0xNC40LTcuNi0yNy42LTguMy0zOC4xYTg2LjgsODYuOCwwLDAsMSwyMC40LTIuMyw4NS44LDg1LjgsMCwwLDEsMTguOCwybDI5LjYsMTI2LjlMNTMwLjgsNzM0YTY3LDY3LDAsMCwxLDE1LjEtMS43QTc0LjgsNzQuOCwwLDAsMSw1NjIsNzM0bDQ2LjQsMTI1LjYsMjkuNS0xMjYuOWE4MC43LDgwLjcsMCwwLDEsMTguNS0yLDg3LjYsODcuNiwwLDAsMSwyMC43LDIuM2MtMSwxMi4xLTQuMiwyNC45LTgsMzguNEw2MzYuMyw4OThjLTkuMiwyLjMtMTYuMSwzLjMtMjIuNywzLjNzLTE0LjItMS0yNC40LTMuM0w1NDYuNCw3ODMuOSw1MDQuNyw4OThjLTkuNSwyLjMtMTYuMSwzLjMtMjMsMy4zUzQ2Ny45LDkwMC40LDQ1Ny44LDg5OFoiLz48cGF0aCBkPSJNNjkyLjUsODQ0LjRWODMxLjZjMC0yNC45LDEuMS02NC40LDExLjYtODkuNSwyNC4zLTExLjgsNDUuMS0xNy4xLDY0LjctMTcuMSw0Mi40LDAsNzYsMTEuMiw3Niw1Ny45djY5LjRhMzk3LjUsMzk3LjUsMCwwLDEtMi42LDQ1LjYsNDkuMiw0OS4yLDAsMCwxLTEzLjksMiw2OS44LDY5LjgsMCwwLDEtMTYtMmwtMy0xNmMtMTEuOSwxMi4xLTMyLjksMTkuNi01NSwxOS42UzY5Mi41LDg5Mi4yLDY5Mi41LDg0NC40Wk04MDcsODUyLjdWNzY2LjVjLTcuNS02LjMtMjMtOS4yLTM4LjUtOS4ycy0zMS4yLDMtMzguNyw5LjJ2OTIuN2M4LjIsNi42LDE5LDkuNSwzMC4yLDkuNUM3NzYuNCw4NjguOCw3OTQuMSw4NjIuNiw4MDcsODUyLjdaIi8+PHBhdGggZD0iTTg4My42LDk2Ny43bDMzLjItNzUuOUw4NzAuMSw3NzguNmMtNS4zLTEzLjItMTMuMi0zMS4yLTEzLjUtNDUuNmE2OSw2OSwwLDAsMSwxOC43LTIuMyw3MS40LDcxLjQsMCwwLDEsMTcuOCwybDQ0LDExNC43LDIzLjctNTJjNy41LTE2LjgsMTcuOC00NC43LDIyLjctNjIuN2E3Ny4yLDc3LjIsMCwwLDEsMTguNS0yLDc1LjMsNzUuMywwLDAsMSwxOCwyYy0yLjMsMjEtMTQuMSw0NS42LTI2LjMsNzMuM0w5MjMuNCw5NjcuN2E4OS4zLDg5LjMsMCwwLDEtMTkuNCwyQTk0LjEsOTQuMSwwLDAsMSw4ODMuNiw5NjcuN1oiLz48cGF0aCBkPSJNNDI5LjQsMzc0LjlhNTguNiw1OC42LDAsMCwwLDkuNS0yOC40bC00NC42LDkuMmEyOC4zLDI4LjMsMCwwLDEtNSwuNSwyNS4xLDI1LjEsMCwwLDEtNS00OS42bDEwMS4yLTIwLjhBNjAuMiw2MC4yLDAsMCwwLDUyMy42LDI2MGE2MS4yLDYxLjIsMCwwLDAsOS44LTI4LjdsLTQ0LjgsOS4yYTI4LjMsMjguMywwLDAsMS01LC41QTI1LDI1LDAsMCwxLDQ1OSwyMjAuOGMtMi43LTEzLjYsNi41LTI2LjcsMjAuMS0yOS41bDEwMC0yMC41YzE5LjUtNCwzMC45LTIwLDM2LTI5LjFhODAuNSw4MC41LDAsMCwwLDktMjYuM0wzMDkuNSwxODBWNDE3LjhsODAuOC0xNi42QTYxLjYsNjEuNiwwLDAsMCw0MjkuNCwzNzQuOVoiIGNsYXNzPSJjbHMtMSIvPjxwYXRoIGQ9Ik01MTAsLjNjLTg4LDAtMTY0LjksMTcuOC0yMDAuNiw0My40djg1LjFMNjU0LjQsNThhMTMuNiwxMy42LDAsMCwxLDE2LDEwLjVsMi4zLDExLjNjNS44LDI4LjMuOCw1OS43LTEzLjksODYuMi0xNiwyOC44LTQwLjgsNDcuOS02OS45LDUzLjlsLTUuNSwxLjFhMTA4LjksMTA4LjksMCwwLDEtMTguOSw2Ny43Yy0xNi4zLDI0LjItNDEuNyw0MC41LTcwLjIsNDYuNGwtNS4zLDEuMWExMTAuNSwxMTAuNSwwLDAsMS04Ny44LDExNEwzMDkuNCw0Njl2MjIuOEMzNDUuMSw1MTcuNSw0MjIsNTM1LjMsNTEwLDUzNS4zczE2NC45LTE3LjgsMjAwLjYtNDMuNVY0My43QzY3NC45LDE4LjEsNTk4LC4zLDUxMCwuM1oiIGNsYXNzPSJjbHMtMSIvPjwvc3ZnPg==;" parent="1" vertex="1">
          <mxGeometry x="1819.9999999999995" y="427" width="97.95" height="93.05" as="geometry" />
        </mxCell>
        <mxCell id="jXE84wmBWAXDm7vTvwUr-48" value="" style="endArrow=classic;html=1;rounded=0;exitX=1;exitY=0.5;exitDx=0;exitDy=0;entryX=0;entryY=0.25;entryDx=0;entryDy=0;strokeWidth=3;" parent="1" source="4flN3aG6s3kdL9gd_zPc-12" target="jXE84wmBWAXDm7vTvwUr-50" edge="1">
          <mxGeometry width="50" height="50" relative="1" as="geometry">
            <mxPoint x="1320" y="834" as="sourcePoint" />
            <mxPoint x="1934" y="540" as="targetPoint" />
          </mxGeometry>
        </mxCell>
        <mxCell id="jXE84wmBWAXDm7vTvwUr-50" value="&lt;font style=&quot;font-size: 43px;&quot;&gt;+&lt;/font&gt;" style="text;html=1;align=center;verticalAlign=middle;whiteSpace=wrap;rounded=0;fontFamily=Helvetica;fontSize=12;fontColor=default;resizable=1;fontStyle=1" parent="1" vertex="1">
          <mxGeometry x="1840" y="433.03" width="180" height="58" as="geometry" />
        </mxCell>
        <mxCell id="jXE84wmBWAXDm7vTvwUr-51" value="" style="shape=cylinder3;whiteSpace=wrap;html=1;boundedLbl=1;backgroundOutline=1;size=15;" parent="1" vertex="1">
          <mxGeometry x="1953.9979797363285" y="583" width="60" height="80" as="geometry" />
        </mxCell>
        <mxCell id="jXE84wmBWAXDm7vTvwUr-52" value="" style="shape=image;verticalLabelPosition=bottom;labelBackgroundColor=default;verticalAlign=top;aspect=fixed;imageAspect=0;image=data:image/png,iVBORw0KGgoAAAANSUhEUgAAAUAAAAFACAMAAAD6TlWYAAAB71BMVEVHcEwiUFwjUV0jUV0jUV0jUV0jUV0iUFwjUV0jUV0jUV0jUV0kUl4jUV0jUV0iUFwiUF0jUV0jUV0jUV0jUV0jUV0jUV0jUV0jUV0jUV0jUV0hUFwjUV0jUV0jUV0jUV0jUV0jUV0jUV0gTlsjUV0jUV0jUV0jUV4hUFwjUV0jUV0jUV0jUV0jUV0jUV0jUV0jUV0iUV0jUV0jUV0jUV0jUV0jUV0jUV0jUV0iUFwjUV0jUV0jUV0jUV0jUV0jUV0jUV0jUV0jUV0jUV0jUl0jUV0jUV0jUV0jUV0jUV0jUV0jUV0jUV0jUV0jUV0jUV0jUV0jUV0jUV0jUV0jUV0jUV0iUV0jUV0jUV0jUV0jUV0jUV0jUV0jUV0iUV0jUV0jUV0jUV0jUV0jUV0jUV0jUV0jUV0jUV0jUV0jUV0jUV0jUV0jUV0jUV0jUV0jUV0jUV0jUV0jUV0jUl4jUV0jUV0jUV0jUV0jUV0jUV0jUV0jUV0jUV0jUV0jUV0jUV0jUV0jUV0jUV0jUV0jUV0jUV0jUV0jUV0jUV0jUV0jUV0jUV0kUV0jUV0jUV0jUV0jUV0jUV0hT1siUFwjUV0jUV0jUV0jUV0jUV0jUV0jUV0jUV0jUV0jUV0jUV0jUV0jUV0jUV0jUV0jUl4jUV0j7j5jAAAApXRSTlMABzmU588zCCNcqP7//5kCCkFaanB5kbbg+8EEMXu74/X9vQE2nun/AxSBfim19ELKDC3N8U4a+oUF94tf69pIpPkk9v/lbh7RhtTtS1QuFcRyaCvc8AvSEviqmJZzDpzOGG13fYmHZlEbOIyPg0YPROxY/9hivzTWxmSm/BDyNcnXSu6wPDtAwqG4Tf+sIUkTEQIGosveJpA+Uhwn4bm8L7N1+MjTyPSgAAAMxklEQVR4AezBwREAEAwAsKLA/gPbwc9dkuB3AAAAAAAAAAAAAAAAAAAAAAAAAAAAAAAAAAAAAAAAAAAAAAAAAACU2rKPeMJc++RlDx4SHYpiAICmVlLbtu3228b+d/LN+94gneccF5LbA7sQXrvPHwiGwpFojPBN3AuCLZFMpTPZHL3BL3kvCKZCsVQm/K/irILgqdXNhCpqgOBptnKo1e6AYLF2CXWkeyA4+gNCHcMRCI5xnlDHZDoDwWAwuVDHfNEDwbHMoo5V0AaCo7lGLRpsCiA4vFtCjb3tPggexwGqDo+OeyB4TiyoolMfCCbPWQ5V51YQXEUzqi4uQXDZnIQKV7gKguuqjSrzNQium1tUkXMGgusuhqrcPQiuh0fUeCqCYHrevrJvH35J9X8fxz+OUjvvj9hwa8pFKplZuEBNDBeamhYuGio5m17uhTaw5R6Xlpftuz/0hgMezjFK0uoe/J6P3e7ldz+Q8Y3WBvrNtG06+n9BU2XFt24kklzDtZCbmVm0hzY/Mu3W7XY6iLKOzsaqMNqP7U50V3R3pqGmp9eQ2dXXf+ZuIsndi+7u7j6XWdNz/8GD4ofJVRGPLAP0Zz0KxbeEaFI4JzBzQgMp/T3IzPp6OoCwGwwUDdF+bgvDPAwMVzAzmPXNIzdG75JEN8bMcGKuEH+Buii9sauA/qDxCfhgrSO59kk4xU+RQuE0A+AHdADmOAAcSfspZoCtJr3JarXq1cwA26vvzJDH2SsA67Nn80TZqVY7A0LjY/pjLE8YPlSWkVxOCVwSBkjuaDpcGnX082xPAXAx7aeHIVx+VpdfV1pamh9xLaTRwUD8XNZuwFbAOPQ8OPiey4uXpUM1rQJw0Ux/yOMnw/DllTLKJTtcyvNJRtMjwCU9h36eqtvKPHLUn4DlF8ir/fnNWgbnJkkB+TUphM8LELrpj9AsPGX4wiHKX9fBcFlcCiKv5SaI7JfoAFoiQjKTyJ+AqS9JTrtSXQFuNJPLajU4jZSeO4DGGfoDBrpK4Jt6lOTacuHmeE5e19QQ8S2NonbUzFoUfV9Um26dfAjSRSX6DFj0iJSOtlZACNnwBKz4R0MKM5vA1hv6/c7M6fEdjsfKie6AG9/U0q6GXHg8maFd61nX08Zyc/+KnCrT0N3bbyMfntGI/9Hb94szH6lI+6J47Ejj5XoNbfcUF3eFk4dtKCa2MWGp998dItWF24Zz/VFSQGsp7bHgABziuGw78m3AsNNAShb9buGGSsb3VJ8luT41AIZTpYV2XZLy10pL2buYFIHF0uqtB2/62Gmsxf0n8CI/tTUUlzCAjLnEgUleZO4lUdRop57hxKanb++ZJ5g5b9sbcIX2KExjcIfWE/A1KQ1cBCZ26Ldaz+p+yvgufq0iGVUaAzAaAQgGDbm1jwHgK7UA1FPk9myCIeGJTQZwcYCcDAwgL2JOgAsXk20E2F2+GjqskHDJ6WwApmc/CEiPsoEmsxjw2zXwpQOYC6PfqK2u4z3jB9QnSW61EwA/nLIDGDGTW345gMrgY2IHd+/gLYhYn2ri3TH7RAyYyQDiQxlgp9R8amgFkCEOHl2aJ6u6vFxgiKRqPqcw2VoBa50n4GtSsIwxyofotwkbT55MZfyQ4wzJnXEAMC3sGAHYT5EobI4Bvqm5JgA4Is74mQ8s1t/M7D9ed+2jFfAGPMcQCcZ/ziU/iAhzrf5Ahrh83TGJ+UI7Ll34ezQtlP0IWDi3COGUK2AnYBzafvny5XZpfl1d/tBUTBOjqCfsd9W7WhVbwtjPxTWSO6kG8D6cagTXzzWQy7bDvSm/zAbQHExOQ2KIovs2chmoqpUFTGa4zPYur5OoTQponhD7NT5XkZM2+BXvH5Ai2X0KX+sUbyIuVr3JpLcLDKH10u/pF/Wp6nMoZ2BfHKMhGdU/DGA+jHIqAZgiyEkbyQAvBVHBCADhDhEV3lgEoA4JIzfNFz2kNTBarGLqSiQ32QgUVwZMWMjjXbUfAWMYHOIJCPaqACB0XtLRL9dy9PZ8OsMvpn6SE5crfkikvclAxWkdkbtldh1R4dIiwNNaInMTnLbKaNfZi3sDfmynvQE9Xx57FUlG9cqA/+UjYIgsYHpIcXFNZnf0l67uno7zE+UVME0X0C818yL5YwnDX8YdknuRB8C6QETBtZ5sGoMAQEwZLQCYsBEF58GdUlLMUsAuVu5NUkDPO0WohSTmLVnAXp8B16cZnOleA3laQ14btv4xAZzWQr9M23HDZDPDf/xaS3KnBABxy0QUdIwBvhFE5hFpMj8qd0U9TrRiBcT/lWRKUAbM3ibJ2VZPQPFVAdWrJIka2zegrtF9WxJ34Q5SMjcC2UP0a7RvG57MMn6KfojkEm/AKTaMnJ5lA6gNpiq7K81ZabwIXb4CRqiVAR1HSdIwoQh4pI0kG/P7BswKFY8Kvs+BdCkeHPtrjstfEpoZP2tkh+QKnnrD6E4D4JCzX73LVtBnOM0VeqZwJHndEQBszkhr4OBV5XOWGHDgCdwDXDLwVRawxmfA63ZgcuZ7AZNqgWY6NO2ZWymMn8chKpK7kCp7YI0wAaiMLJIdqTMZ4rVgpwlOud65qH3NyoDpFpIUGD0BtdMVAKz1JEkqkQU0+Aq46prB0aQ8SHu9CQUEOqysmHTGQcxeIAVxl9halr0gDHOG7FJXZwVQtEKFSwzAOuoNUSkWlQXMIonNuHsTuaMGsHh+QOr+QNgnoCo5HphY3n3Oeu1rBBbR4ehONjEOZPiDjuQ2xCkaG0Rut9V7P7kQ/t4zxYescGraJreCzywGXJMChr4jScMVON3QEL2Lg5O+poVE6xEO/DigdsoBFE35eg+UJjgn0KG8mTbhgKwRpLC8pdgbwrcg4rREcgv7APc5e2CeAfDWKXMhqdqe/SXApdN3wPYncEr5N4xUBvEXWi8H64iC3hkGIQ/48JuDtNnQDNhjwtwBW7/dhXOqxb6HceEI46BetZHCgnX3FChSPWC4ZD+iXb3sSlFGFPweLnbj3Otjm9kM0ZE2n1O4cA5OPJupJdsYw4kHx9Iiz8cxFAEzGfaTuqiNxHXNunajfflvQ6sAmEJmvE/6cxvy19yyqWpGxodVOjhNfUoFDqroBCkZ2H0R3nVmcO/33vyrB2D6l4jqQyHDeu8JTwxYYiGvboZLdRvRp02GiBlARbzaFfCZFDAjvfGv+blj09NL57/GpTLAcVUtJAVE3rGYB/d7agwGQ+/by2Pv7QAb7x2m31A6DozndKQQNA+nz0G0a+Myu3pdIsmbSs9Vj6j0ogC3DPvIw8sZnkJEp8QR+I68LFtwabIRUdacFR6cOm8Q3wNLpc5KbN96+4ncxCnsNpwxPIyKCvcfcf4w/aguFAcXGkxKhTcHZ/O2+skr5+Ogo8nQIvslD5sqK1Ouk8vOtYT0Ir3V8fTGlJnq4mbzBmMKyem50ZFX0tFCMgudViF+Nlaci+0Rsel6ZvvsREedbrkzOzv7iif231uOwRKnwdqS9NAUY+58SES4hiQbN2sd4s+6DKZXxj198rm3tJ0OIWkEB6f/oqE9Bj4F3wtXkczMp6QdlSLyTnhZeBC56SyP8lfGbYlEpH0TfCZJRy6q5fEzV3WkYKu7VP/CRm5ROf19fUMvCtaJNMvPn78o05BIVTb+yWKx5HxKump5t1ywFkRKA0lJOa6fdfmUVWa2DRTSoTTMM/xiN+qxl/CPjgJcYo0d/qnMLIKXuHDz2A4Fuvpm+GnptiDr9zkP4MYsCnTjRvjJPvWWIXlaPwj1+XcUYKLuhpsborQkeTfJ8JPR8hESwRBcXlLTQIFl5/ZpY0rclYSlt3dWLDbdRuJM3ROGn4SH7yohSbEsF2+vU2B5OSnAjbkofaIxdm5ydhFeGZxdOdL55OtmtTGltlzNDJnF3J2IeG/NHhUFnhT8iBA3fXL7jW2tvX3mbEF40oWI5MjzuVsl2SY1O5W/Ck6cZux6Gk4B6FY643viN0+9SaQ9NtbMV7frhkb7+qYerZKlErusfRSIVMcbGT7xlZM22k+3AA8+pqPAZL6sx7cWHfeXaV87V7DrShYFqvboUMYewmSdlvbXZYdH+jMKXJp8BxQ49GEB+eFdEzwcoxoKYAuzkCtfCvYrR+EtAW6DfVoKYOZNyMQ3DrWQX/KbIeK4oXUKYEGRgizfk76z/nbPhUg99oIC2ols7NJ/vW4jP4V1iN055VwDBTRzNdzY+mrU/xZh0UUA+H3MJwpw9Xaxnmlrur6N/HfHyvrK+ap3Ggp0pY7U1NTQub53hfQzpv6KvJ500I/P/cd/twcHAgAAAABA/q+NoKqqqqqqqqqqqqqqqqqqqqqqqqqqqqqqqqqqqqqqqqqqqqqqqqqqAAdfK9O4SovnAAAAAElFTkSuQmCC;" parent="1" vertex="1">
          <mxGeometry x="1954.0000000000005" y="551" width="165.11" height="165.11" as="geometry" />
        </mxCell>
        <mxCell id="jXE84wmBWAXDm7vTvwUr-53" value="" style="shape=image;verticalLabelPosition=bottom;labelBackgroundColor=default;verticalAlign=top;aspect=fixed;imageAspect=0;editableCssRules=.*;image=data:image/svg+xml,PHN2ZyB4bWxucz0iaHR0cDovL3d3dy53My5vcmcvMjAwMC9zdmciIHZpZXdCb3g9IjAgMC4zMDAwMDAwMTE5MjA5Mjg5NiAxMDIwIDk2OS40MDYxODg5NjQ4NDM4IiBoZWlnaHQ9Ijk2OS40MDYxODg5NjQ4NDM4IiB3aWR0aD0iMTAyMCIgZGF0YS1uYW1lPSJMYXllciAxIiBpZD0iTGF5ZXJfMSI+PGRlZnM+PHN0eWxlPi5jbHMtMXtmaWxsOiNjMDA7fTwvc3R5bGU+PC9kZWZzPjx0aXRsZT5GbHl3YXk8L3RpdGxlPjxwYXRoIGQ9Ik0zLjksODk4LjNDMCw4ODUuNiwwLDg3My40LDAsODYwLjVWNzY0LjJDMCw3MzEuNi42LDY5NC41LDguMiw2NjNjMjgtNi45LDU5LjgtNy4zLDkzLjItNy4zaDcyLjlhNzYuOSw3Ni45LDAsMCwxLDEuNywxNS4yLDg2LjcsODYuNywwLDAsMS0xLjcsMTUuMmMtMTAuMiwzLjMtMjAuNCwzLjMtMzAuOSwzLjNIMTAzYy0yMS44LDAtNDAuNywwLTU5LjUsMy45LTIuNywyMC4xLTMuMyw0NC0zLjMsNzFIMTQ5LjRhNjIuNiw2Mi42LDAsMCwxLDEuNiwxNC45LDczLjcsNzMuNywwLDAsMS0xLjYsMTUuN2MtMTAuNSwzLjMtMjAuNCwzLjMtMzEuNiwzLjNINDAuMnYxMDBhODEuOCw4MS44LDAsMCwxLTE3LjcsMS43QTE1MC44LDE1MC44LDAsMCwxLDMuOSw4OTguM1oiLz48cGF0aCBkPSJNMTk5LjksODk4YTIzNC40LDIzNC40LDAsMCwxLTEuOS0zMy41VjY4OS42YzAtMTEuNiwwLTIzLDMuNi0zNC4zYTc0LDc0LDAsMCwxLDMwLjYsMGMzLjMsMTEuMiwzLjMsMjMsMy4zLDM0LjZWODY0LjFjMCwxMC44LjMsMjEuMS0yLDMzLjlhNTkuNyw1OS43LDAsMCwxLTE2LjEsMkE3Mi44LDcyLjgsMCwwLDEsMTk5LjksODk4WiIvPjxwYXRoIGQ9Ik0yNzMuMiw5NjcuN2wzMy4yLTc1LjlMMjU5LjgsNzc4LjdjLTUuMi0xMy4xLTEzLjItMzEuMi0xMy41LTQ1LjZhNjkuMiw2OS4yLDAsMCwxLDE4LjgtMi4zLDcwLDcwLDAsMCwxLDE3LjcsMmw0NCwxMTQuNywyMy44LTUxLjljNy41LTE2LjksMTcuNy00NC44LDIyLjYtNjIuOGE3Ny4yLDc3LjIsMCwwLDEsMTguNS0yLDc0LjEsNzQuMSwwLDAsMSwxOCwyYy0yLjIsMjEtMTQuMSw0NS42LTI2LjMsNzMuM0wzMTMsOTY3LjdhODkuMyw4OS4zLDAsMCwxLTE5LjQsMkE5NC4xLDk0LjEsMCwwLDEsMjczLjIsOTY3LjdaIi8+PHBhdGggZD0iTTQ1Ny44LDg5OCw0MjMuOSw3NzEuMWMtNC0xNC40LTcuNi0yNy42LTguMy0zOC4xYTg2LjgsODYuOCwwLDAsMSwyMC40LTIuMyw4NS44LDg1LjgsMCwwLDEsMTguOCwybDI5LjYsMTI2LjlMNTMwLjgsNzM0YTY3LDY3LDAsMCwxLDE1LjEtMS43QTc0LjgsNzQuOCwwLDAsMSw1NjIsNzM0bDQ2LjQsMTI1LjYsMjkuNS0xMjYuOWE4MC43LDgwLjcsMCwwLDEsMTguNS0yLDg3LjYsODcuNiwwLDAsMSwyMC43LDIuM2MtMSwxMi4xLTQuMiwyNC45LTgsMzguNEw2MzYuMyw4OThjLTkuMiwyLjMtMTYuMSwzLjMtMjIuNywzLjNzLTE0LjItMS0yNC40LTMuM0w1NDYuNCw3ODMuOSw1MDQuNyw4OThjLTkuNSwyLjMtMTYuMSwzLjMtMjMsMy4zUzQ2Ny45LDkwMC40LDQ1Ny44LDg5OFoiLz48cGF0aCBkPSJNNjkyLjUsODQ0LjRWODMxLjZjMC0yNC45LDEuMS02NC40LDExLjYtODkuNSwyNC4zLTExLjgsNDUuMS0xNy4xLDY0LjctMTcuMSw0Mi40LDAsNzYsMTEuMiw3Niw1Ny45djY5LjRhMzk3LjUsMzk3LjUsMCwwLDEtMi42LDQ1LjYsNDkuMiw0OS4yLDAsMCwxLTEzLjksMiw2OS44LDY5LjgsMCwwLDEtMTYtMmwtMy0xNmMtMTEuOSwxMi4xLTMyLjksMTkuNi01NSwxOS42UzY5Mi41LDg5Mi4yLDY5Mi41LDg0NC40Wk04MDcsODUyLjdWNzY2LjVjLTcuNS02LjMtMjMtOS4yLTM4LjUtOS4ycy0zMS4yLDMtMzguNyw5LjJ2OTIuN2M4LjIsNi42LDE5LDkuNSwzMC4yLDkuNUM3NzYuNCw4NjguOCw3OTQuMSw4NjIuNiw4MDcsODUyLjdaIi8+PHBhdGggZD0iTTg4My42LDk2Ny43bDMzLjItNzUuOUw4NzAuMSw3NzguNmMtNS4zLTEzLjItMTMuMi0zMS4yLTEzLjUtNDUuNmE2OSw2OSwwLDAsMSwxOC43LTIuMyw3MS40LDcxLjQsMCwwLDEsMTcuOCwybDQ0LDExNC43LDIzLjctNTJjNy41LTE2LjgsMTcuOC00NC43LDIyLjctNjIuN2E3Ny4yLDc3LjIsMCwwLDEsMTguNS0yLDc1LjMsNzUuMywwLDAsMSwxOCwyYy0yLjMsMjEtMTQuMSw0NS42LTI2LjMsNzMuM0w5MjMuNCw5NjcuN2E4OS4zLDg5LjMsMCwwLDEtMTkuNCwyQTk0LjEsOTQuMSwwLDAsMSw4ODMuNiw5NjcuN1oiLz48cGF0aCBkPSJNNDI5LjQsMzc0LjlhNTguNiw1OC42LDAsMCwwLDkuNS0yOC40bC00NC42LDkuMmEyOC4zLDI4LjMsMCwwLDEtNSwuNSwyNS4xLDI1LjEsMCwwLDEtNS00OS42bDEwMS4yLTIwLjhBNjAuMiw2MC4yLDAsMCwwLDUyMy42LDI2MGE2MS4yLDYxLjIsMCwwLDAsOS44LTI4LjdsLTQ0LjgsOS4yYTI4LjMsMjguMywwLDAsMS01LC41QTI1LDI1LDAsMCwxLDQ1OSwyMjAuOGMtMi43LTEzLjYsNi41LTI2LjcsMjAuMS0yOS41bDEwMC0yMC41YzE5LjUtNCwzMC45LTIwLDM2LTI5LjFhODAuNSw4MC41LDAsMCwwLDktMjYuM0wzMDkuNSwxODBWNDE3LjhsODAuOC0xNi42QTYxLjYsNjEuNiwwLDAsMCw0MjkuNCwzNzQuOVoiIGNsYXNzPSJjbHMtMSIvPjxwYXRoIGQ9Ik01MTAsLjNjLTg4LDAtMTY0LjksMTcuOC0yMDAuNiw0My40djg1LjFMNjU0LjQsNThhMTMuNiwxMy42LDAsMCwxLDE2LDEwLjVsMi4zLDExLjNjNS44LDI4LjMuOCw1OS43LTEzLjksODYuMi0xNiwyOC44LTQwLjgsNDcuOS02OS45LDUzLjlsLTUuNSwxLjFhMTA4LjksMTA4LjksMCwwLDEtMTguOSw2Ny43Yy0xNi4zLDI0LjItNDEuNyw0MC41LTcwLjIsNDYuNGwtNS4zLDEuMWExMTAuNSwxMTAuNSwwLDAsMS04Ny44LDExNEwzMDkuNCw0Njl2MjIuOEMzNDUuMSw1MTcuNSw0MjIsNTM1LjMsNTEwLDUzNS4zczE2NC45LTE3LjgsMjAwLjYtNDMuNVY0My43QzY3NC45LDE4LjEsNTk4LC4zLDUxMCwuM1oiIGNsYXNzPSJjbHMtMSIvPjwvc3ZnPg==;" parent="1" vertex="1">
          <mxGeometry x="1815" y="583" width="97.95" height="93.05" as="geometry" />
        </mxCell>
        <mxCell id="jXE84wmBWAXDm7vTvwUr-54" value="&lt;font style=&quot;font-size: 43px;&quot;&gt;+&lt;/font&gt;" style="text;html=1;align=center;verticalAlign=middle;whiteSpace=wrap;rounded=0;fontFamily=Helvetica;fontSize=12;fontColor=default;resizable=1;fontStyle=1" parent="1" vertex="1">
          <mxGeometry x="1829.0000000000005" y="589.03" width="180" height="58" as="geometry" />
        </mxCell>
        <mxCell id="jXE84wmBWAXDm7vTvwUr-55" value="" style="shape=cylinder3;whiteSpace=wrap;html=1;boundedLbl=1;backgroundOutline=1;size=15;" parent="1" vertex="1">
          <mxGeometry x="1954.9979797363285" y="736" width="60" height="80" as="geometry" />
        </mxCell>
        <mxCell id="jXE84wmBWAXDm7vTvwUr-56" value="" style="shape=image;verticalLabelPosition=bottom;labelBackgroundColor=default;verticalAlign=top;aspect=fixed;imageAspect=0;image=data:image/png,iVBORw0KGgoAAAANSUhEUgAAAUAAAAFACAMAAAD6TlWYAAAB71BMVEVHcEwiUFwjUV0jUV0jUV0jUV0jUV0iUFwjUV0jUV0jUV0jUV0kUl4jUV0jUV0iUFwiUF0jUV0jUV0jUV0jUV0jUV0jUV0jUV0jUV0jUV0jUV0hUFwjUV0jUV0jUV0jUV0jUV0jUV0jUV0gTlsjUV0jUV0jUV0jUV4hUFwjUV0jUV0jUV0jUV0jUV0jUV0jUV0jUV0iUV0jUV0jUV0jUV0jUV0jUV0jUV0jUV0iUFwjUV0jUV0jUV0jUV0jUV0jUV0jUV0jUV0jUV0jUV0jUl0jUV0jUV0jUV0jUV0jUV0jUV0jUV0jUV0jUV0jUV0jUV0jUV0jUV0jUV0jUV0jUV0jUV0iUV0jUV0jUV0jUV0jUV0jUV0jUV0jUV0iUV0jUV0jUV0jUV0jUV0jUV0jUV0jUV0jUV0jUV0jUV0jUV0jUV0jUV0jUV0jUV0jUV0jUV0jUV0jUV0jUV0jUl4jUV0jUV0jUV0jUV0jUV0jUV0jUV0jUV0jUV0jUV0jUV0jUV0jUV0jUV0jUV0jUV0jUV0jUV0jUV0jUV0jUV0jUV0jUV0jUV0kUV0jUV0jUV0jUV0jUV0jUV0hT1siUFwjUV0jUV0jUV0jUV0jUV0jUV0jUV0jUV0jUV0jUV0jUV0jUV0jUV0jUV0jUV0jUl4jUV0j7j5jAAAApXRSTlMABzmU588zCCNcqP7//5kCCkFaanB5kbbg+8EEMXu74/X9vQE2nun/AxSBfim19ELKDC3N8U4a+oUF94tf69pIpPkk9v/lbh7RhtTtS1QuFcRyaCvc8AvSEviqmJZzDpzOGG13fYmHZlEbOIyPg0YPROxY/9hivzTWxmSm/BDyNcnXSu6wPDtAwqG4Tf+sIUkTEQIGosveJpA+Uhwn4bm8L7N1+MjTyPSgAAAMxklEQVR4AezBwREAEAwAsKLA/gPbwc9dkuB3AAAAAAAAAAAAAAAAAAAAAAAAAAAAAAAAAAAAAAAAAAAAAAAAAACU2rKPeMJc++RlDx4SHYpiAICmVlLbtu3228b+d/LN+94gneccF5LbA7sQXrvPHwiGwpFojPBN3AuCLZFMpTPZHL3BL3kvCKZCsVQm/K/irILgqdXNhCpqgOBptnKo1e6AYLF2CXWkeyA4+gNCHcMRCI5xnlDHZDoDwWAwuVDHfNEDwbHMoo5V0AaCo7lGLRpsCiA4vFtCjb3tPggexwGqDo+OeyB4TiyoolMfCCbPWQ5V51YQXEUzqi4uQXDZnIQKV7gKguuqjSrzNQium1tUkXMGgusuhqrcPQiuh0fUeCqCYHrevrJvH35J9X8fxz+OUjvvj9hwa8pFKplZuEBNDBeamhYuGio5m17uhTaw5R6Xlpftuz/0hgMezjFK0uoe/J6P3e7ldz+Q8Y3WBvrNtG06+n9BU2XFt24kklzDtZCbmVm0hzY/Mu3W7XY6iLKOzsaqMNqP7U50V3R3pqGmp9eQ2dXXf+ZuIsndi+7u7j6XWdNz/8GD4ofJVRGPLAP0Zz0KxbeEaFI4JzBzQgMp/T3IzPp6OoCwGwwUDdF+bgvDPAwMVzAzmPXNIzdG75JEN8bMcGKuEH+Buii9sauA/qDxCfhgrSO59kk4xU+RQuE0A+AHdADmOAAcSfspZoCtJr3JarXq1cwA26vvzJDH2SsA67Nn80TZqVY7A0LjY/pjLE8YPlSWkVxOCVwSBkjuaDpcGnX082xPAXAx7aeHIVx+VpdfV1pamh9xLaTRwUD8XNZuwFbAOPQ8OPiey4uXpUM1rQJw0Ux/yOMnw/DllTLKJTtcyvNJRtMjwCU9h36eqtvKPHLUn4DlF8ir/fnNWgbnJkkB+TUphM8LELrpj9AsPGX4wiHKX9fBcFlcCiKv5SaI7JfoAFoiQjKTyJ+AqS9JTrtSXQFuNJPLajU4jZSeO4DGGfoDBrpK4Jt6lOTacuHmeE5e19QQ8S2NonbUzFoUfV9Um26dfAjSRSX6DFj0iJSOtlZACNnwBKz4R0MKM5vA1hv6/c7M6fEdjsfKie6AG9/U0q6GXHg8maFd61nX08Zyc/+KnCrT0N3bbyMfntGI/9Hb94szH6lI+6J47Ejj5XoNbfcUF3eFk4dtKCa2MWGp998dItWF24Zz/VFSQGsp7bHgABziuGw78m3AsNNAShb9buGGSsb3VJ8luT41AIZTpYV2XZLy10pL2buYFIHF0uqtB2/62Gmsxf0n8CI/tTUUlzCAjLnEgUleZO4lUdRop57hxKanb++ZJ5g5b9sbcIX2KExjcIfWE/A1KQ1cBCZ26Ldaz+p+yvgufq0iGVUaAzAaAQgGDbm1jwHgK7UA1FPk9myCIeGJTQZwcYCcDAwgL2JOgAsXk20E2F2+GjqskHDJ6WwApmc/CEiPsoEmsxjw2zXwpQOYC6PfqK2u4z3jB9QnSW61EwA/nLIDGDGTW345gMrgY2IHd+/gLYhYn2ri3TH7RAyYyQDiQxlgp9R8amgFkCEOHl2aJ6u6vFxgiKRqPqcw2VoBa50n4GtSsIwxyofotwkbT55MZfyQ4wzJnXEAMC3sGAHYT5EobI4Bvqm5JgA4Is74mQ8s1t/M7D9ed+2jFfAGPMcQCcZ/ziU/iAhzrf5Ahrh83TGJ+UI7Ll34ezQtlP0IWDi3COGUK2AnYBzafvny5XZpfl1d/tBUTBOjqCfsd9W7WhVbwtjPxTWSO6kG8D6cagTXzzWQy7bDvSm/zAbQHExOQ2KIovs2chmoqpUFTGa4zPYur5OoTQponhD7NT5XkZM2+BXvH5Ai2X0KX+sUbyIuVr3JpLcLDKH10u/pF/Wp6nMoZ2BfHKMhGdU/DGA+jHIqAZgiyEkbyQAvBVHBCADhDhEV3lgEoA4JIzfNFz2kNTBarGLqSiQ32QgUVwZMWMjjXbUfAWMYHOIJCPaqACB0XtLRL9dy9PZ8OsMvpn6SE5crfkikvclAxWkdkbtldh1R4dIiwNNaInMTnLbKaNfZi3sDfmynvQE9Xx57FUlG9cqA/+UjYIgsYHpIcXFNZnf0l67uno7zE+UVME0X0C818yL5YwnDX8YdknuRB8C6QETBtZ5sGoMAQEwZLQCYsBEF58GdUlLMUsAuVu5NUkDPO0WohSTmLVnAXp8B16cZnOleA3laQ14btv4xAZzWQr9M23HDZDPDf/xaS3KnBABxy0QUdIwBvhFE5hFpMj8qd0U9TrRiBcT/lWRKUAbM3ibJ2VZPQPFVAdWrJIka2zegrtF9WxJ34Q5SMjcC2UP0a7RvG57MMn6KfojkEm/AKTaMnJ5lA6gNpiq7K81ZabwIXb4CRqiVAR1HSdIwoQh4pI0kG/P7BswKFY8Kvs+BdCkeHPtrjstfEpoZP2tkh+QKnnrD6E4D4JCzX73LVtBnOM0VeqZwJHndEQBszkhr4OBV5XOWGHDgCdwDXDLwVRawxmfA63ZgcuZ7AZNqgWY6NO2ZWymMn8chKpK7kCp7YI0wAaiMLJIdqTMZ4rVgpwlOud65qH3NyoDpFpIUGD0BtdMVAKz1JEkqkQU0+Aq46prB0aQ8SHu9CQUEOqysmHTGQcxeIAVxl9halr0gDHOG7FJXZwVQtEKFSwzAOuoNUSkWlQXMIonNuHsTuaMGsHh+QOr+QNgnoCo5HphY3n3Oeu1rBBbR4ehONjEOZPiDjuQ2xCkaG0Rut9V7P7kQ/t4zxYescGraJreCzywGXJMChr4jScMVON3QEL2Lg5O+poVE6xEO/DigdsoBFE35eg+UJjgn0KG8mTbhgKwRpLC8pdgbwrcg4rREcgv7APc5e2CeAfDWKXMhqdqe/SXApdN3wPYncEr5N4xUBvEXWi8H64iC3hkGIQ/48JuDtNnQDNhjwtwBW7/dhXOqxb6HceEI46BetZHCgnX3FChSPWC4ZD+iXb3sSlFGFPweLnbj3Otjm9kM0ZE2n1O4cA5OPJupJdsYw4kHx9Iiz8cxFAEzGfaTuqiNxHXNunajfflvQ6sAmEJmvE/6cxvy19yyqWpGxodVOjhNfUoFDqroBCkZ2H0R3nVmcO/33vyrB2D6l4jqQyHDeu8JTwxYYiGvboZLdRvRp02GiBlARbzaFfCZFDAjvfGv+blj09NL57/GpTLAcVUtJAVE3rGYB/d7agwGQ+/by2Pv7QAb7x2m31A6DozndKQQNA+nz0G0a+Myu3pdIsmbSs9Vj6j0ogC3DPvIw8sZnkJEp8QR+I68LFtwabIRUdacFR6cOm8Q3wNLpc5KbN96+4ncxCnsNpwxPIyKCvcfcf4w/aguFAcXGkxKhTcHZ/O2+skr5+Ogo8nQIvslD5sqK1Ouk8vOtYT0Ir3V8fTGlJnq4mbzBmMKyem50ZFX0tFCMgudViF+Nlaci+0Rsel6ZvvsREedbrkzOzv7iif231uOwRKnwdqS9NAUY+58SES4hiQbN2sd4s+6DKZXxj198rm3tJ0OIWkEB6f/oqE9Bj4F3wtXkczMp6QdlSLyTnhZeBC56SyP8lfGbYlEpH0TfCZJRy6q5fEzV3WkYKu7VP/CRm5ROf19fUMvCtaJNMvPn78o05BIVTb+yWKx5HxKump5t1ywFkRKA0lJOa6fdfmUVWa2DRTSoTTMM/xiN+qxl/CPjgJcYo0d/qnMLIKXuHDz2A4Fuvpm+GnptiDr9zkP4MYsCnTjRvjJPvWWIXlaPwj1+XcUYKLuhpsborQkeTfJ8JPR8hESwRBcXlLTQIFl5/ZpY0rclYSlt3dWLDbdRuJM3ROGn4SH7yohSbEsF2+vU2B5OSnAjbkofaIxdm5ydhFeGZxdOdL55OtmtTGltlzNDJnF3J2IeG/NHhUFnhT8iBA3fXL7jW2tvX3mbEF40oWI5MjzuVsl2SY1O5W/Ck6cZux6Gk4B6FY643viN0+9SaQ9NtbMV7frhkb7+qYerZKlErusfRSIVMcbGT7xlZM22k+3AA8+pqPAZL6sx7cWHfeXaV87V7DrShYFqvboUMYewmSdlvbXZYdH+jMKXJp8BxQ49GEB+eFdEzwcoxoKYAuzkCtfCvYrR+EtAW6DfVoKYOZNyMQ3DrWQX/KbIeK4oXUKYEGRgizfk76z/nbPhUg99oIC2ols7NJ/vW4jP4V1iN055VwDBTRzNdzY+mrU/xZh0UUA+H3MJwpw9Xaxnmlrur6N/HfHyvrK+ap3Ggp0pY7U1NTQub53hfQzpv6KvJ500I/P/cd/twcHAgAAAABA/q+NoKqqqqqqqqqqqqqqqqqqqqqqqqqqqqqqqqqqqqqqqqqqqqqqqqqqAAdfK9O4SovnAAAAAElFTkSuQmCC;" parent="1" vertex="1">
          <mxGeometry x="1955.0000000000005" y="702" width="165.11" height="165.11" as="geometry" />
        </mxCell>
        <mxCell id="jXE84wmBWAXDm7vTvwUr-57" value="" style="shape=image;verticalLabelPosition=bottom;labelBackgroundColor=default;verticalAlign=top;aspect=fixed;imageAspect=0;editableCssRules=.*;image=data:image/svg+xml,PHN2ZyB4bWxucz0iaHR0cDovL3d3dy53My5vcmcvMjAwMC9zdmciIHZpZXdCb3g9IjAgMC4zMDAwMDAwMTE5MjA5Mjg5NiAxMDIwIDk2OS40MDYxODg5NjQ4NDM4IiBoZWlnaHQ9Ijk2OS40MDYxODg5NjQ4NDM4IiB3aWR0aD0iMTAyMCIgZGF0YS1uYW1lPSJMYXllciAxIiBpZD0iTGF5ZXJfMSI+PGRlZnM+PHN0eWxlPi5jbHMtMXtmaWxsOiNjMDA7fTwvc3R5bGU+PC9kZWZzPjx0aXRsZT5GbHl3YXk8L3RpdGxlPjxwYXRoIGQ9Ik0zLjksODk4LjNDMCw4ODUuNiwwLDg3My40LDAsODYwLjVWNzY0LjJDMCw3MzEuNi42LDY5NC41LDguMiw2NjNjMjgtNi45LDU5LjgtNy4zLDkzLjItNy4zaDcyLjlhNzYuOSw3Ni45LDAsMCwxLDEuNywxNS4yLDg2LjcsODYuNywwLDAsMS0xLjcsMTUuMmMtMTAuMiwzLjMtMjAuNCwzLjMtMzAuOSwzLjNIMTAzYy0yMS44LDAtNDAuNywwLTU5LjUsMy45LTIuNywyMC4xLTMuMyw0NC0zLjMsNzFIMTQ5LjRhNjIuNiw2Mi42LDAsMCwxLDEuNiwxNC45LDczLjcsNzMuNywwLDAsMS0xLjYsMTUuN2MtMTAuNSwzLjMtMjAuNCwzLjMtMzEuNiwzLjNINDAuMnYxMDBhODEuOCw4MS44LDAsMCwxLTE3LjcsMS43QTE1MC44LDE1MC44LDAsMCwxLDMuOSw4OTguM1oiLz48cGF0aCBkPSJNMTk5LjksODk4YTIzNC40LDIzNC40LDAsMCwxLTEuOS0zMy41VjY4OS42YzAtMTEuNiwwLTIzLDMuNi0zNC4zYTc0LDc0LDAsMCwxLDMwLjYsMGMzLjMsMTEuMiwzLjMsMjMsMy4zLDM0LjZWODY0LjFjMCwxMC44LjMsMjEuMS0yLDMzLjlhNTkuNyw1OS43LDAsMCwxLTE2LjEsMkE3Mi44LDcyLjgsMCwwLDEsMTk5LjksODk4WiIvPjxwYXRoIGQ9Ik0yNzMuMiw5NjcuN2wzMy4yLTc1LjlMMjU5LjgsNzc4LjdjLTUuMi0xMy4xLTEzLjItMzEuMi0xMy41LTQ1LjZhNjkuMiw2OS4yLDAsMCwxLDE4LjgtMi4zLDcwLDcwLDAsMCwxLDE3LjcsMmw0NCwxMTQuNywyMy44LTUxLjljNy41LTE2LjksMTcuNy00NC44LDIyLjYtNjIuOGE3Ny4yLDc3LjIsMCwwLDEsMTguNS0yLDc0LjEsNzQuMSwwLDAsMSwxOCwyYy0yLjIsMjEtMTQuMSw0NS42LTI2LjMsNzMuM0wzMTMsOTY3LjdhODkuMyw4OS4zLDAsMCwxLTE5LjQsMkE5NC4xLDk0LjEsMCwwLDEsMjczLjIsOTY3LjdaIi8+PHBhdGggZD0iTTQ1Ny44LDg5OCw0MjMuOSw3NzEuMWMtNC0xNC40LTcuNi0yNy42LTguMy0zOC4xYTg2LjgsODYuOCwwLDAsMSwyMC40LTIuMyw4NS44LDg1LjgsMCwwLDEsMTguOCwybDI5LjYsMTI2LjlMNTMwLjgsNzM0YTY3LDY3LDAsMCwxLDE1LjEtMS43QTc0LjgsNzQuOCwwLDAsMSw1NjIsNzM0bDQ2LjQsMTI1LjYsMjkuNS0xMjYuOWE4MC43LDgwLjcsMCwwLDEsMTguNS0yLDg3LjYsODcuNiwwLDAsMSwyMC43LDIuM2MtMSwxMi4xLTQuMiwyNC45LTgsMzguNEw2MzYuMyw4OThjLTkuMiwyLjMtMTYuMSwzLjMtMjIuNywzLjNzLTE0LjItMS0yNC40LTMuM0w1NDYuNCw3ODMuOSw1MDQuNyw4OThjLTkuNSwyLjMtMTYuMSwzLjMtMjMsMy4zUzQ2Ny45LDkwMC40LDQ1Ny44LDg5OFoiLz48cGF0aCBkPSJNNjkyLjUsODQ0LjRWODMxLjZjMC0yNC45LDEuMS02NC40LDExLjYtODkuNSwyNC4zLTExLjgsNDUuMS0xNy4xLDY0LjctMTcuMSw0Mi40LDAsNzYsMTEuMiw3Niw1Ny45djY5LjRhMzk3LjUsMzk3LjUsMCwwLDEtMi42LDQ1LjYsNDkuMiw0OS4yLDAsMCwxLTEzLjksMiw2OS44LDY5LjgsMCwwLDEtMTYtMmwtMy0xNmMtMTEuOSwxMi4xLTMyLjksMTkuNi01NSwxOS42UzY5Mi41LDg5Mi4yLDY5Mi41LDg0NC40Wk04MDcsODUyLjdWNzY2LjVjLTcuNS02LjMtMjMtOS4yLTM4LjUtOS4ycy0zMS4yLDMtMzguNyw5LjJ2OTIuN2M4LjIsNi42LDE5LDkuNSwzMC4yLDkuNUM3NzYuNCw4NjguOCw3OTQuMSw4NjIuNiw4MDcsODUyLjdaIi8+PHBhdGggZD0iTTg4My42LDk2Ny43bDMzLjItNzUuOUw4NzAuMSw3NzguNmMtNS4zLTEzLjItMTMuMi0zMS4yLTEzLjUtNDUuNmE2OSw2OSwwLDAsMSwxOC43LTIuMyw3MS40LDcxLjQsMCwwLDEsMTcuOCwybDQ0LDExNC43LDIzLjctNTJjNy41LTE2LjgsMTcuOC00NC43LDIyLjctNjIuN2E3Ny4yLDc3LjIsMCwwLDEsMTguNS0yLDc1LjMsNzUuMywwLDAsMSwxOCwyYy0yLjMsMjEtMTQuMSw0NS42LTI2LjMsNzMuM0w5MjMuNCw5NjcuN2E4OS4zLDg5LjMsMCwwLDEtMTkuNCwyQTk0LjEsOTQuMSwwLDAsMSw4ODMuNiw5NjcuN1oiLz48cGF0aCBkPSJNNDI5LjQsMzc0LjlhNTguNiw1OC42LDAsMCwwLDkuNS0yOC40bC00NC42LDkuMmEyOC4zLDI4LjMsMCwwLDEtNSwuNSwyNS4xLDI1LjEsMCwwLDEtNS00OS42bDEwMS4yLTIwLjhBNjAuMiw2MC4yLDAsMCwwLDUyMy42LDI2MGE2MS4yLDYxLjIsMCwwLDAsOS44LTI4LjdsLTQ0LjgsOS4yYTI4LjMsMjguMywwLDAsMS01LC41QTI1LDI1LDAsMCwxLDQ1OSwyMjAuOGMtMi43LTEzLjYsNi41LTI2LjcsMjAuMS0yOS41bDEwMC0yMC41YzE5LjUtNCwzMC45LTIwLDM2LTI5LjFhODAuNSw4MC41LDAsMCwwLDktMjYuM0wzMDkuNSwxODBWNDE3LjhsODAuOC0xNi42QTYxLjYsNjEuNiwwLDAsMCw0MjkuNCwzNzQuOVoiIGNsYXNzPSJjbHMtMSIvPjxwYXRoIGQ9Ik01MTAsLjNjLTg4LDAtMTY0LjksMTcuOC0yMDAuNiw0My40djg1LjFMNjU0LjQsNThhMTMuNiwxMy42LDAsMCwxLDE2LDEwLjVsMi4zLDExLjNjNS44LDI4LjMuOCw1OS43LTEzLjksODYuMi0xNiwyOC44LTQwLjgsNDcuOS02OS45LDUzLjlsLTUuNSwxLjFhMTA4LjksMTA4LjksMCwwLDEtMTguOSw2Ny43Yy0xNi4zLDI0LjItNDEuNyw0MC41LTcwLjIsNDYuNGwtNS4zLDEuMWExMTAuNSwxMTAuNSwwLDAsMS04Ny44LDExNEwzMDkuNCw0Njl2MjIuOEMzNDUuMSw1MTcuNSw0MjIsNTM1LjMsNTEwLDUzNS4zczE2NC45LTE3LjgsMjAwLjYtNDMuNVY0My43QzY3NC45LDE4LjEsNTk4LC4zLDUxMCwuM1oiIGNsYXNzPSJjbHMtMSIvPjwvc3ZnPg==;" parent="1" vertex="1">
          <mxGeometry x="1816" y="736" width="97.95" height="93.05" as="geometry" />
        </mxCell>
        <mxCell id="jXE84wmBWAXDm7vTvwUr-58" value="&lt;font style=&quot;font-size: 43px;&quot;&gt;+&lt;/font&gt;" style="text;html=1;align=center;verticalAlign=middle;whiteSpace=wrap;rounded=0;fontFamily=Helvetica;fontSize=12;fontColor=default;resizable=1;fontStyle=1" parent="1" vertex="1">
          <mxGeometry x="1830.0000000000005" y="742.03" width="180" height="58" as="geometry" />
        </mxCell>
        <mxCell id="jXE84wmBWAXDm7vTvwUr-59" value="" style="endArrow=classic;html=1;rounded=0;exitX=1;exitY=0.5;exitDx=0;exitDy=0;entryX=0;entryY=0.5;entryDx=0;entryDy=0;strokeWidth=3;" parent="1" source="jXE84wmBWAXDm7vTvwUr-73" target="jXE84wmBWAXDm7vTvwUr-58" edge="1">
          <mxGeometry width="50" height="50" relative="1" as="geometry">
            <mxPoint x="1541.9999999999995" y="907.605" as="sourcePoint" />
            <mxPoint x="1972" y="535" as="targetPoint" />
          </mxGeometry>
        </mxCell>
        <mxCell id="jXE84wmBWAXDm7vTvwUr-60" value="" style="endArrow=classic;html=1;rounded=0;exitX=1;exitY=0.5;exitDx=0;exitDy=0;entryX=0;entryY=0.25;entryDx=0;entryDy=0;strokeWidth=3;" parent="1" target="jXE84wmBWAXDm7vTvwUr-54" edge="1" source="jXE84wmBWAXDm7vTvwUr-71">
          <mxGeometry width="50" height="50" relative="1" as="geometry">
            <mxPoint x="1541.9999999999995" y="680.605" as="sourcePoint" />
            <mxPoint x="1972" y="535" as="targetPoint" />
          </mxGeometry>
        </mxCell>
        <mxCell id="jXE84wmBWAXDm7vTvwUr-61" value="&lt;font style=&quot;font-size: 20px;&quot;&gt;&lt;b&gt;REST API&lt;/b&gt;&lt;/font&gt;" style="rounded=1;whiteSpace=wrap;html=1;" parent="1" vertex="1">
          <mxGeometry x="1340" y="410" width="90" height="50" as="geometry" />
        </mxCell>
        <mxCell id="jXE84wmBWAXDm7vTvwUr-71" value="" style="shape=image;verticalLabelPosition=bottom;labelBackgroundColor=default;verticalAlign=top;aspect=fixed;imageAspect=0;editableCssRules=.*;image=data:image/svg+xml,PHN2ZyB4bWxucz0iaHR0cDovL3d3dy53My5vcmcvMjAwMC9zdmciIHdpZHRoPSIyNDc4Ljg1NDk2MTcxNzkxNDYiIHZpZXdCb3g9IjAuMDc0OTkxMjI2MTk2Mjg5MDYgMCA1MDkuOTUwMDQyNzI0NjA5NCA0NTcuNzk5OTg3NzkyOTY4NzUiIGhlaWdodD0iMjIxNS45OTk5NDA5MTEzNTYiPjxwYXRoIGZpbGw9IiM2ZGIzM2YiIGQ9Im01MDMuNSAyMDEuNC0xMDAuNS0xNzMuOWMtOC43LTE1LjEtMzAuMS0yNy41LTQ3LjYtMjcuNWgtMjAwLjhjLTE3LjQgMC0zOC45IDEyLjQtNDcuNiAyNy41bC0xMDAuNCAxNzMuOWMtOC43IDE1LjEtOC43IDM5LjggMCA1NC45bDEwMC40IDE3NGM4LjcgMTUuMSAzMC4xIDI3LjUgNDcuNiAyNy41aDIwMC45YzE3LjQgMCAzOC44LTEyLjQgNDcuNi0yNy41bDEwMC40LTE3NGM4LjctMTUuMSA4LjctMzkuOCAwLTU0Ljl6bS0yNzAuMi0xMDUuMmMwLTExLjQgOS4zLTIwLjcgMjAuNy0yMC43czIwLjcgOS4zIDIwLjcgMjAuN3YxMjMuN2MwIDExLjQtOS4zIDIwLjctMjAuNyAyMC43cy0yMC43LTkuMy0yMC43LTIwLjd6bTIwLjcgMjY0LjFjLTc3LjQgMC0xNDAuNC02My0xNDAuNC0xNDAuNC4xLTQ0LjQgMjEuMS04Ni4xIDU2LjctMTEyLjcgOC4yLTYuMSAxOS43LTQuNCAyNS44IDMuOHM0LjQgMTkuNy0zLjggMjUuOGMtNDUuOSAzNC4xLTU1LjUgOTktMjEuNCAxNDQuOXM5OSA1NS41IDE0NC45IDIxLjRjMjYuMy0xOS41IDQxLjgtNTAuNCA0MS44LTgzLjItLjEtMzIuOS0xNS43LTYzLjgtNDIuMi04My40LTguMi02LTkuOS0xNy42LTMuOS0yNS44czE3LjYtOS45IDI1LjgtMy45YzM1LjkgMjYuNSA1NyA2OC41IDU3LjEgMTEzLjEgMCA3Ny41LTYzIDE0MC40LTE0MC40IDE0MC40eiIvPjwvc3ZnPg==;" parent="1" vertex="1">
          <mxGeometry x="1410.02" y="568.02" width="84.97" height="75.98" as="geometry" />
        </mxCell>
        <mxCell id="jXE84wmBWAXDm7vTvwUr-72" value="&lt;font style=&quot;font-size: 20px;&quot;&gt;&lt;b&gt;REST API&lt;/b&gt;&lt;/font&gt;" style="rounded=1;whiteSpace=wrap;html=1;" parent="1" vertex="1">
          <mxGeometry x="1338" y="550" width="90" height="46" as="geometry" />
        </mxCell>
        <mxCell id="jXE84wmBWAXDm7vTvwUr-73" value="" style="shape=image;verticalLabelPosition=bottom;labelBackgroundColor=default;verticalAlign=top;aspect=fixed;imageAspect=0;editableCssRules=.*;image=data:image/svg+xml,PHN2ZyB4bWxucz0iaHR0cDovL3d3dy53My5vcmcvMjAwMC9zdmciIHdpZHRoPSIyNDc4Ljg1NDk2MTcxNzkxNDYiIHZpZXdCb3g9IjAuMDc0OTkxMjI2MTk2Mjg5MDYgMCA1MDkuOTUwMDQyNzI0NjA5NCA0NTcuNzk5OTg3NzkyOTY4NzUiIGhlaWdodD0iMjIxNS45OTk5NDA5MTEzNTYiPjxwYXRoIGZpbGw9IiM2ZGIzM2YiIGQ9Im01MDMuNSAyMDEuNC0xMDAuNS0xNzMuOWMtOC43LTE1LjEtMzAuMS0yNy41LTQ3LjYtMjcuNWgtMjAwLjhjLTE3LjQgMC0zOC45IDEyLjQtNDcuNiAyNy41bC0xMDAuNCAxNzMuOWMtOC43IDE1LjEtOC43IDM5LjggMCA1NC45bDEwMC40IDE3NGM4LjcgMTUuMSAzMC4xIDI3LjUgNDcuNiAyNy41aDIwMC45YzE3LjQgMCAzOC44LTEyLjQgNDcuNi0yNy41bDEwMC40LTE3NGM4LjctMTUuMSA4LjctMzkuOCAwLTU0Ljl6bS0yNzAuMi0xMDUuMmMwLTExLjQgOS4zLTIwLjcgMjAuNy0yMC43czIwLjcgOS4zIDIwLjcgMjAuN3YxMjMuN2MwIDExLjQtOS4zIDIwLjctMjAuNyAyMC43cy0yMC43LTkuMy0yMC43LTIwLjd6bTIwLjcgMjY0LjFjLTc3LjQgMC0xNDAuNC02My0xNDAuNC0xNDAuNC4xLTQ0LjQgMjEuMS04Ni4xIDU2LjctMTEyLjcgOC4yLTYuMSAxOS43LTQuNCAyNS44IDMuOHM0LjQgMTkuNy0zLjggMjUuOGMtNDUuOSAzNC4xLTU1LjUgOTktMjEuNCAxNDQuOXM5OSA1NS41IDE0NC45IDIxLjRjMjYuMy0xOS41IDQxLjgtNTAuNCA0MS44LTgzLjItLjEtMzIuOS0xNS43LTYzLjgtNDIuMi04My40LTguMi02LTkuOS0xNy42LTMuOS0yNS44czE3LjYtOS45IDI1LjgtMy45YzM1LjkgMjYuNSA1NyA2OC41IDU3LjEgMTEzLjEgMCA3Ny41LTYzIDE0MC40LTE0MC40IDE0MC40eiIvPjwvc3ZnPg==;" parent="1" vertex="1">
          <mxGeometry x="1410" y="733.47" width="84.99" height="76" as="geometry" />
        </mxCell>
        <mxCell id="jXE84wmBWAXDm7vTvwUr-74" value="&lt;font style=&quot;font-size: 20px;&quot;&gt;&lt;b&gt;REST API&lt;/b&gt;&lt;/font&gt;" style="rounded=1;whiteSpace=wrap;html=1;" parent="1" vertex="1">
          <mxGeometry x="1342" y="707.62" width="88" height="50" as="geometry" />
        </mxCell>
        <mxCell id="jXE84wmBWAXDm7vTvwUr-104" value="" style="endArrow=classic;html=1;rounded=0;exitX=0.5;exitY=0;exitDx=0;exitDy=0;strokeWidth=3;" parent="1" source="4flN3aG6s3kdL9gd_zPc-16" edge="1">
          <mxGeometry width="50" height="50" relative="1" as="geometry">
            <mxPoint x="1360" y="763.395" as="sourcePoint" />
            <mxPoint x="830" y="760" as="targetPoint" />
          </mxGeometry>
        </mxCell>
        <mxCell id="jXE84wmBWAXDm7vTvwUr-114" value="&lt;font style=&quot;font-size: 20px;&quot;&gt;&lt;b&gt;REST API&lt;/b&gt;&lt;/font&gt;" style="rounded=1;whiteSpace=wrap;html=1;movable=0;resizable=0;rotatable=0;deletable=0;editable=0;locked=1;connectable=0;" parent="1" vertex="1">
          <mxGeometry x="870" y="743" width="55.87" height="46" as="geometry" />
        </mxCell>
        <mxCell id="jXE84wmBWAXDm7vTvwUr-121" value="&lt;span&gt;&lt;font style=&quot;font-size: 27px;&quot;&gt;Buisness microservices&lt;/font&gt;&lt;/span&gt;" style="text;html=1;align=center;verticalAlign=middle;whiteSpace=wrap;rounded=0;fontFamily=Helvetica;fontSize=31;fontColor=default;resizable=1;fontStyle=1" parent="1" vertex="1">
          <mxGeometry x="1291" y="349.5" width="360" height="30" as="geometry" />
        </mxCell>
        <mxCell id="lKesAJO6-86HrHTojqqC-1" value="&lt;b&gt;&lt;font style=&quot;font-size: 22px;&quot;&gt;authentication-service: port 8085&lt;/font&gt;&lt;/b&gt;" style="text;html=1;align=center;verticalAlign=middle;whiteSpace=wrap;rounded=0;" vertex="1" parent="1">
          <mxGeometry x="1331.87" y="665" width="278.13" height="30" as="geometry" />
        </mxCell>
        <mxCell id="lKesAJO6-86HrHTojqqC-2" value="&lt;b&gt;&lt;font style=&quot;font-size: 22px;&quot;&gt;pharmacy-service:&amp;nbsp;&lt;/font&gt;&lt;/b&gt;&lt;div&gt;&lt;b&gt;&lt;font style=&quot;font-size: 22px;&quot;&gt;port 8082&lt;/font&gt;&lt;/b&gt;&lt;/div&gt;" style="text;html=1;align=center;verticalAlign=middle;whiteSpace=wrap;rounded=0;" vertex="1" parent="1">
          <mxGeometry x="1313.44" y="824.67" width="278.13" height="30" as="geometry" />
        </mxCell>
        <mxCell id="lKesAJO6-86HrHTojqqC-3" value="" style="shape=cylinder3;whiteSpace=wrap;html=1;boundedLbl=1;backgroundOutline=1;size=15;" vertex="1" parent="1">
          <mxGeometry x="1958.9979797363285" y="1062.56" width="60" height="80" as="geometry" />
        </mxCell>
        <mxCell id="lKesAJO6-86HrHTojqqC-4" value="" style="shape=image;verticalLabelPosition=bottom;labelBackgroundColor=default;verticalAlign=top;aspect=fixed;imageAspect=0;image=data:image/png,iVBORw0KGgoAAAANSUhEUgAAAUAAAAFACAMAAAD6TlWYAAAB71BMVEVHcEwiUFwjUV0jUV0jUV0jUV0jUV0iUFwjUV0jUV0jUV0jUV0kUl4jUV0jUV0iUFwiUF0jUV0jUV0jUV0jUV0jUV0jUV0jUV0jUV0jUV0jUV0hUFwjUV0jUV0jUV0jUV0jUV0jUV0jUV0gTlsjUV0jUV0jUV0jUV4hUFwjUV0jUV0jUV0jUV0jUV0jUV0jUV0jUV0iUV0jUV0jUV0jUV0jUV0jUV0jUV0jUV0iUFwjUV0jUV0jUV0jUV0jUV0jUV0jUV0jUV0jUV0jUV0jUl0jUV0jUV0jUV0jUV0jUV0jUV0jUV0jUV0jUV0jUV0jUV0jUV0jUV0jUV0jUV0jUV0jUV0iUV0jUV0jUV0jUV0jUV0jUV0jUV0jUV0iUV0jUV0jUV0jUV0jUV0jUV0jUV0jUV0jUV0jUV0jUV0jUV0jUV0jUV0jUV0jUV0jUV0jUV0jUV0jUV0jUV0jUl4jUV0jUV0jUV0jUV0jUV0jUV0jUV0jUV0jUV0jUV0jUV0jUV0jUV0jUV0jUV0jUV0jUV0jUV0jUV0jUV0jUV0jUV0jUV0jUV0kUV0jUV0jUV0jUV0jUV0jUV0hT1siUFwjUV0jUV0jUV0jUV0jUV0jUV0jUV0jUV0jUV0jUV0jUV0jUV0jUV0jUV0jUV0jUl4jUV0j7j5jAAAApXRSTlMABzmU588zCCNcqP7//5kCCkFaanB5kbbg+8EEMXu74/X9vQE2nun/AxSBfim19ELKDC3N8U4a+oUF94tf69pIpPkk9v/lbh7RhtTtS1QuFcRyaCvc8AvSEviqmJZzDpzOGG13fYmHZlEbOIyPg0YPROxY/9hivzTWxmSm/BDyNcnXSu6wPDtAwqG4Tf+sIUkTEQIGosveJpA+Uhwn4bm8L7N1+MjTyPSgAAAMxklEQVR4AezBwREAEAwAsKLA/gPbwc9dkuB3AAAAAAAAAAAAAAAAAAAAAAAAAAAAAAAAAAAAAAAAAAAAAAAAAACU2rKPeMJc++RlDx4SHYpiAICmVlLbtu3228b+d/LN+94gneccF5LbA7sQXrvPHwiGwpFojPBN3AuCLZFMpTPZHL3BL3kvCKZCsVQm/K/irILgqdXNhCpqgOBptnKo1e6AYLF2CXWkeyA4+gNCHcMRCI5xnlDHZDoDwWAwuVDHfNEDwbHMoo5V0AaCo7lGLRpsCiA4vFtCjb3tPggexwGqDo+OeyB4TiyoolMfCCbPWQ5V51YQXEUzqi4uQXDZnIQKV7gKguuqjSrzNQium1tUkXMGgusuhqrcPQiuh0fUeCqCYHrevrJvH35J9X8fxz+OUjvvj9hwa8pFKplZuEBNDBeamhYuGio5m17uhTaw5R6Xlpftuz/0hgMezjFK0uoe/J6P3e7ldz+Q8Y3WBvrNtG06+n9BU2XFt24kklzDtZCbmVm0hzY/Mu3W7XY6iLKOzsaqMNqP7U50V3R3pqGmp9eQ2dXXf+ZuIsndi+7u7j6XWdNz/8GD4ofJVRGPLAP0Zz0KxbeEaFI4JzBzQgMp/T3IzPp6OoCwGwwUDdF+bgvDPAwMVzAzmPXNIzdG75JEN8bMcGKuEH+Buii9sauA/qDxCfhgrSO59kk4xU+RQuE0A+AHdADmOAAcSfspZoCtJr3JarXq1cwA26vvzJDH2SsA67Nn80TZqVY7A0LjY/pjLE8YPlSWkVxOCVwSBkjuaDpcGnX082xPAXAx7aeHIVx+VpdfV1pamh9xLaTRwUD8XNZuwFbAOPQ8OPiey4uXpUM1rQJw0Ux/yOMnw/DllTLKJTtcyvNJRtMjwCU9h36eqtvKPHLUn4DlF8ir/fnNWgbnJkkB+TUphM8LELrpj9AsPGX4wiHKX9fBcFlcCiKv5SaI7JfoAFoiQjKTyJ+AqS9JTrtSXQFuNJPLajU4jZSeO4DGGfoDBrpK4Jt6lOTacuHmeE5e19QQ8S2NonbUzFoUfV9Um26dfAjSRSX6DFj0iJSOtlZACNnwBKz4R0MKM5vA1hv6/c7M6fEdjsfKie6AG9/U0q6GXHg8maFd61nX08Zyc/+KnCrT0N3bbyMfntGI/9Hb94szH6lI+6J47Ejj5XoNbfcUF3eFk4dtKCa2MWGp998dItWF24Zz/VFSQGsp7bHgABziuGw78m3AsNNAShb9buGGSsb3VJ8luT41AIZTpYV2XZLy10pL2buYFIHF0uqtB2/62Gmsxf0n8CI/tTUUlzCAjLnEgUleZO4lUdRop57hxKanb++ZJ5g5b9sbcIX2KExjcIfWE/A1KQ1cBCZ26Ldaz+p+yvgufq0iGVUaAzAaAQgGDbm1jwHgK7UA1FPk9myCIeGJTQZwcYCcDAwgL2JOgAsXk20E2F2+GjqskHDJ6WwApmc/CEiPsoEmsxjw2zXwpQOYC6PfqK2u4z3jB9QnSW61EwA/nLIDGDGTW345gMrgY2IHd+/gLYhYn2ri3TH7RAyYyQDiQxlgp9R8amgFkCEOHl2aJ6u6vFxgiKRqPqcw2VoBa50n4GtSsIwxyofotwkbT55MZfyQ4wzJnXEAMC3sGAHYT5EobI4Bvqm5JgA4Is74mQ8s1t/M7D9ed+2jFfAGPMcQCcZ/ziU/iAhzrf5Ahrh83TGJ+UI7Ll34ezQtlP0IWDi3COGUK2AnYBzafvny5XZpfl1d/tBUTBOjqCfsd9W7WhVbwtjPxTWSO6kG8D6cagTXzzWQy7bDvSm/zAbQHExOQ2KIovs2chmoqpUFTGa4zPYur5OoTQponhD7NT5XkZM2+BXvH5Ai2X0KX+sUbyIuVr3JpLcLDKH10u/pF/Wp6nMoZ2BfHKMhGdU/DGA+jHIqAZgiyEkbyQAvBVHBCADhDhEV3lgEoA4JIzfNFz2kNTBarGLqSiQ32QgUVwZMWMjjXbUfAWMYHOIJCPaqACB0XtLRL9dy9PZ8OsMvpn6SE5crfkikvclAxWkdkbtldh1R4dIiwNNaInMTnLbKaNfZi3sDfmynvQE9Xx57FUlG9cqA/+UjYIgsYHpIcXFNZnf0l67uno7zE+UVME0X0C818yL5YwnDX8YdknuRB8C6QETBtZ5sGoMAQEwZLQCYsBEF58GdUlLMUsAuVu5NUkDPO0WohSTmLVnAXp8B16cZnOleA3laQ14btv4xAZzWQr9M23HDZDPDf/xaS3KnBABxy0QUdIwBvhFE5hFpMj8qd0U9TrRiBcT/lWRKUAbM3ibJ2VZPQPFVAdWrJIka2zegrtF9WxJ34Q5SMjcC2UP0a7RvG57MMn6KfojkEm/AKTaMnJ5lA6gNpiq7K81ZabwIXb4CRqiVAR1HSdIwoQh4pI0kG/P7BswKFY8Kvs+BdCkeHPtrjstfEpoZP2tkh+QKnnrD6E4D4JCzX73LVtBnOM0VeqZwJHndEQBszkhr4OBV5XOWGHDgCdwDXDLwVRawxmfA63ZgcuZ7AZNqgWY6NO2ZWymMn8chKpK7kCp7YI0wAaiMLJIdqTMZ4rVgpwlOud65qH3NyoDpFpIUGD0BtdMVAKz1JEkqkQU0+Aq46prB0aQ8SHu9CQUEOqysmHTGQcxeIAVxl9halr0gDHOG7FJXZwVQtEKFSwzAOuoNUSkWlQXMIonNuHsTuaMGsHh+QOr+QNgnoCo5HphY3n3Oeu1rBBbR4ehONjEOZPiDjuQ2xCkaG0Rut9V7P7kQ/t4zxYescGraJreCzywGXJMChr4jScMVON3QEL2Lg5O+poVE6xEO/DigdsoBFE35eg+UJjgn0KG8mTbhgKwRpLC8pdgbwrcg4rREcgv7APc5e2CeAfDWKXMhqdqe/SXApdN3wPYncEr5N4xUBvEXWi8H64iC3hkGIQ/48JuDtNnQDNhjwtwBW7/dhXOqxb6HceEI46BetZHCgnX3FChSPWC4ZD+iXb3sSlFGFPweLnbj3Otjm9kM0ZE2n1O4cA5OPJupJdsYw4kHx9Iiz8cxFAEzGfaTuqiNxHXNunajfflvQ6sAmEJmvE/6cxvy19yyqWpGxodVOjhNfUoFDqroBCkZ2H0R3nVmcO/33vyrB2D6l4jqQyHDeu8JTwxYYiGvboZLdRvRp02GiBlARbzaFfCZFDAjvfGv+blj09NL57/GpTLAcVUtJAVE3rGYB/d7agwGQ+/by2Pv7QAb7x2m31A6DozndKQQNA+nz0G0a+Myu3pdIsmbSs9Vj6j0ogC3DPvIw8sZnkJEp8QR+I68LFtwabIRUdacFR6cOm8Q3wNLpc5KbN96+4ncxCnsNpwxPIyKCvcfcf4w/aguFAcXGkxKhTcHZ/O2+skr5+Ogo8nQIvslD5sqK1Ouk8vOtYT0Ir3V8fTGlJnq4mbzBmMKyem50ZFX0tFCMgudViF+Nlaci+0Rsel6ZvvsREedbrkzOzv7iif231uOwRKnwdqS9NAUY+58SES4hiQbN2sd4s+6DKZXxj198rm3tJ0OIWkEB6f/oqE9Bj4F3wtXkczMp6QdlSLyTnhZeBC56SyP8lfGbYlEpH0TfCZJRy6q5fEzV3WkYKu7VP/CRm5ROf19fUMvCtaJNMvPn78o05BIVTb+yWKx5HxKump5t1ywFkRKA0lJOa6fdfmUVWa2DRTSoTTMM/xiN+qxl/CPjgJcYo0d/qnMLIKXuHDz2A4Fuvpm+GnptiDr9zkP4MYsCnTjRvjJPvWWIXlaPwj1+XcUYKLuhpsborQkeTfJ8JPR8hESwRBcXlLTQIFl5/ZpY0rclYSlt3dWLDbdRuJM3ROGn4SH7yohSbEsF2+vU2B5OSnAjbkofaIxdm5ydhFeGZxdOdL55OtmtTGltlzNDJnF3J2IeG/NHhUFnhT8iBA3fXL7jW2tvX3mbEF40oWI5MjzuVsl2SY1O5W/Ck6cZux6Gk4B6FY643viN0+9SaQ9NtbMV7frhkb7+qYerZKlErusfRSIVMcbGT7xlZM22k+3AA8+pqPAZL6sx7cWHfeXaV87V7DrShYFqvboUMYewmSdlvbXZYdH+jMKXJp8BxQ49GEB+eFdEzwcoxoKYAuzkCtfCvYrR+EtAW6DfVoKYOZNyMQ3DrWQX/KbIeK4oXUKYEGRgizfk76z/nbPhUg99oIC2ols7NJ/vW4jP4V1iN055VwDBTRzNdzY+mrU/xZh0UUA+H3MJwpw9Xaxnmlrur6N/HfHyvrK+ap3Ggp0pY7U1NTQub53hfQzpv6KvJ500I/P/cd/twcHAgAAAABA/q+NoKqqqqqqqqqqqqqqqqqqqqqqqqqqqqqqqqqqqqqqqqqqqqqqqqqqAAdfK9O4SovnAAAAAElFTkSuQmCC;" vertex="1" parent="1">
          <mxGeometry x="1959.0000000000005" y="1019.56" width="165.11" height="165.11" as="geometry" />
        </mxCell>
        <mxCell id="lKesAJO6-86HrHTojqqC-5" value="" style="shape=image;verticalLabelPosition=bottom;labelBackgroundColor=default;verticalAlign=top;aspect=fixed;imageAspect=0;editableCssRules=.*;image=data:image/svg+xml,PHN2ZyB4bWxucz0iaHR0cDovL3d3dy53My5vcmcvMjAwMC9zdmciIHZpZXdCb3g9IjAgMC4zMDAwMDAwMTE5MjA5Mjg5NiAxMDIwIDk2OS40MDYxODg5NjQ4NDM4IiBoZWlnaHQ9Ijk2OS40MDYxODg5NjQ4NDM4IiB3aWR0aD0iMTAyMCIgZGF0YS1uYW1lPSJMYXllciAxIiBpZD0iTGF5ZXJfMSI+PGRlZnM+PHN0eWxlPi5jbHMtMXtmaWxsOiNjMDA7fTwvc3R5bGU+PC9kZWZzPjx0aXRsZT5GbHl3YXk8L3RpdGxlPjxwYXRoIGQ9Ik0zLjksODk4LjNDMCw4ODUuNiwwLDg3My40LDAsODYwLjVWNzY0LjJDMCw3MzEuNi42LDY5NC41LDguMiw2NjNjMjgtNi45LDU5LjgtNy4zLDkzLjItNy4zaDcyLjlhNzYuOSw3Ni45LDAsMCwxLDEuNywxNS4yLDg2LjcsODYuNywwLDAsMS0xLjcsMTUuMmMtMTAuMiwzLjMtMjAuNCwzLjMtMzAuOSwzLjNIMTAzYy0yMS44LDAtNDAuNywwLTU5LjUsMy45LTIuNywyMC4xLTMuMyw0NC0zLjMsNzFIMTQ5LjRhNjIuNiw2Mi42LDAsMCwxLDEuNiwxNC45LDczLjcsNzMuNywwLDAsMS0xLjYsMTUuN2MtMTAuNSwzLjMtMjAuNCwzLjMtMzEuNiwzLjNINDAuMnYxMDBhODEuOCw4MS44LDAsMCwxLTE3LjcsMS43QTE1MC44LDE1MC44LDAsMCwxLDMuOSw4OTguM1oiLz48cGF0aCBkPSJNMTk5LjksODk4YTIzNC40LDIzNC40LDAsMCwxLTEuOS0zMy41VjY4OS42YzAtMTEuNiwwLTIzLDMuNi0zNC4zYTc0LDc0LDAsMCwxLDMwLjYsMGMzLjMsMTEuMiwzLjMsMjMsMy4zLDM0LjZWODY0LjFjMCwxMC44LjMsMjEuMS0yLDMzLjlhNTkuNyw1OS43LDAsMCwxLTE2LjEsMkE3Mi44LDcyLjgsMCwwLDEsMTk5LjksODk4WiIvPjxwYXRoIGQ9Ik0yNzMuMiw5NjcuN2wzMy4yLTc1LjlMMjU5LjgsNzc4LjdjLTUuMi0xMy4xLTEzLjItMzEuMi0xMy41LTQ1LjZhNjkuMiw2OS4yLDAsMCwxLDE4LjgtMi4zLDcwLDcwLDAsMCwxLDE3LjcsMmw0NCwxMTQuNywyMy44LTUxLjljNy41LTE2LjksMTcuNy00NC44LDIyLjYtNjIuOGE3Ny4yLDc3LjIsMCwwLDEsMTguNS0yLDc0LjEsNzQuMSwwLDAsMSwxOCwyYy0yLjIsMjEtMTQuMSw0NS42LTI2LjMsNzMuM0wzMTMsOTY3LjdhODkuMyw4OS4zLDAsMCwxLTE5LjQsMkE5NC4xLDk0LjEsMCwwLDEsMjczLjIsOTY3LjdaIi8+PHBhdGggZD0iTTQ1Ny44LDg5OCw0MjMuOSw3NzEuMWMtNC0xNC40LTcuNi0yNy42LTguMy0zOC4xYTg2LjgsODYuOCwwLDAsMSwyMC40LTIuMyw4NS44LDg1LjgsMCwwLDEsMTguOCwybDI5LjYsMTI2LjlMNTMwLjgsNzM0YTY3LDY3LDAsMCwxLDE1LjEtMS43QTc0LjgsNzQuOCwwLDAsMSw1NjIsNzM0bDQ2LjQsMTI1LjYsMjkuNS0xMjYuOWE4MC43LDgwLjcsMCwwLDEsMTguNS0yLDg3LjYsODcuNiwwLDAsMSwyMC43LDIuM2MtMSwxMi4xLTQuMiwyNC45LTgsMzguNEw2MzYuMyw4OThjLTkuMiwyLjMtMTYuMSwzLjMtMjIuNywzLjNzLTE0LjItMS0yNC40LTMuM0w1NDYuNCw3ODMuOSw1MDQuNyw4OThjLTkuNSwyLjMtMTYuMSwzLjMtMjMsMy4zUzQ2Ny45LDkwMC40LDQ1Ny44LDg5OFoiLz48cGF0aCBkPSJNNjkyLjUsODQ0LjRWODMxLjZjMC0yNC45LDEuMS02NC40LDExLjYtODkuNSwyNC4zLTExLjgsNDUuMS0xNy4xLDY0LjctMTcuMSw0Mi40LDAsNzYsMTEuMiw3Niw1Ny45djY5LjRhMzk3LjUsMzk3LjUsMCwwLDEtMi42LDQ1LjYsNDkuMiw0OS4yLDAsMCwxLTEzLjksMiw2OS44LDY5LjgsMCwwLDEtMTYtMmwtMy0xNmMtMTEuOSwxMi4xLTMyLjksMTkuNi01NSwxOS42UzY5Mi41LDg5Mi4yLDY5Mi41LDg0NC40Wk04MDcsODUyLjdWNzY2LjVjLTcuNS02LjMtMjMtOS4yLTM4LjUtOS4ycy0zMS4yLDMtMzguNyw5LjJ2OTIuN2M4LjIsNi42LDE5LDkuNSwzMC4yLDkuNUM3NzYuNCw4NjguOCw3OTQuMSw4NjIuNiw4MDcsODUyLjdaIi8+PHBhdGggZD0iTTg4My42LDk2Ny43bDMzLjItNzUuOUw4NzAuMSw3NzguNmMtNS4zLTEzLjItMTMuMi0zMS4yLTEzLjUtNDUuNmE2OSw2OSwwLDAsMSwxOC43LTIuMyw3MS40LDcxLjQsMCwwLDEsMTcuOCwybDQ0LDExNC43LDIzLjctNTJjNy41LTE2LjgsMTcuOC00NC43LDIyLjctNjIuN2E3Ny4yLDc3LjIsMCwwLDEsMTguNS0yLDc1LjMsNzUuMywwLDAsMSwxOCwyYy0yLjMsMjEtMTQuMSw0NS42LTI2LjMsNzMuM0w5MjMuNCw5NjcuN2E4OS4zLDg5LjMsMCwwLDEtMTkuNCwyQTk0LjEsOTQuMSwwLDAsMSw4ODMuNiw5NjcuN1oiLz48cGF0aCBkPSJNNDI5LjQsMzc0LjlhNTguNiw1OC42LDAsMCwwLDkuNS0yOC40bC00NC42LDkuMmEyOC4zLDI4LjMsMCwwLDEtNSwuNSwyNS4xLDI1LjEsMCwwLDEtNS00OS42bDEwMS4yLTIwLjhBNjAuMiw2MC4yLDAsMCwwLDUyMy42LDI2MGE2MS4yLDYxLjIsMCwwLDAsOS44LTI4LjdsLTQ0LjgsOS4yYTI4LjMsMjguMywwLDAsMS01LC41QTI1LDI1LDAsMCwxLDQ1OSwyMjAuOGMtMi43LTEzLjYsNi41LTI2LjcsMjAuMS0yOS41bDEwMC0yMC41YzE5LjUtNCwzMC45LTIwLDM2LTI5LjFhODAuNSw4MC41LDAsMCwwLDktMjYuM0wzMDkuNSwxODBWNDE3LjhsODAuOC0xNi42QTYxLjYsNjEuNiwwLDAsMCw0MjkuNCwzNzQuOVoiIGNsYXNzPSJjbHMtMSIvPjxwYXRoIGQ9Ik01MTAsLjNjLTg4LDAtMTY0LjksMTcuOC0yMDAuNiw0My40djg1LjFMNjU0LjQsNThhMTMuNiwxMy42LDAsMCwxLDE2LDEwLjVsMi4zLDExLjNjNS44LDI4LjMuOCw1OS43LTEzLjksODYuMi0xNiwyOC44LTQwLjgsNDcuOS02OS45LDUzLjlsLTUuNSwxLjFhMTA4LjksMTA4LjksMCwwLDEtMTguOSw2Ny43Yy0xNi4zLDI0LjItNDEuNyw0MC41LTcwLjIsNDYuNGwtNS4zLDEuMWExMTAuNSwxMTAuNSwwLDAsMS04Ny44LDExNEwzMDkuNCw0Njl2MjIuOEMzNDUuMSw1MTcuNSw0MjIsNTM1LjMsNTEwLDUzNS4zczE2NC45LTE3LjgsMjAwLjYtNDMuNVY0My43QzY3NC45LDE4LjEsNTk4LC4zLDUxMCwuM1oiIGNsYXNzPSJjbHMtMSIvPjwvc3ZnPg==;" vertex="1" parent="1">
          <mxGeometry x="1820" y="1062.56" width="97.95" height="93.05" as="geometry" />
        </mxCell>
        <mxCell id="lKesAJO6-86HrHTojqqC-6" value="&lt;font style=&quot;font-size: 43px;&quot;&gt;+&lt;/font&gt;" style="text;html=1;align=center;verticalAlign=middle;whiteSpace=wrap;rounded=0;fontFamily=Helvetica;fontSize=12;fontColor=default;resizable=1;fontStyle=1" vertex="1" parent="1">
          <mxGeometry x="1834.0000000000005" y="1068.59" width="180" height="58" as="geometry" />
        </mxCell>
        <mxCell id="lKesAJO6-86HrHTojqqC-7" value="" style="endArrow=classic;html=1;rounded=0;exitX=1;exitY=0.5;exitDx=0;exitDy=0;entryX=0;entryY=0.5;entryDx=0;entryDy=0;strokeWidth=3;" edge="1" parent="1" source="lKesAJO6-86HrHTojqqC-8" target="lKesAJO6-86HrHTojqqC-6">
          <mxGeometry width="50" height="50" relative="1" as="geometry">
            <mxPoint x="1458.5599999999995" y="1295.605" as="sourcePoint" />
            <mxPoint x="1888.56" y="923" as="targetPoint" />
          </mxGeometry>
        </mxCell>
        <mxCell id="lKesAJO6-86HrHTojqqC-8" value="" style="shape=image;verticalLabelPosition=bottom;labelBackgroundColor=default;verticalAlign=top;aspect=fixed;imageAspect=0;editableCssRules=.*;image=data:image/svg+xml,PHN2ZyB4bWxucz0iaHR0cDovL3d3dy53My5vcmcvMjAwMC9zdmciIHdpZHRoPSIyNDc4Ljg1NDk2MTcxNzkxNDYiIHZpZXdCb3g9IjAuMDc0OTkxMjI2MTk2Mjg5MDYgMCA1MDkuOTUwMDQyNzI0NjA5NCA0NTcuNzk5OTg3NzkyOTY4NzUiIGhlaWdodD0iMjIxNS45OTk5NDA5MTEzNTYiPjxwYXRoIGZpbGw9IiM2ZGIzM2YiIGQ9Im01MDMuNSAyMDEuNC0xMDAuNS0xNzMuOWMtOC43LTE1LjEtMzAuMS0yNy41LTQ3LjYtMjcuNWgtMjAwLjhjLTE3LjQgMC0zOC45IDEyLjQtNDcuNiAyNy41bC0xMDAuNCAxNzMuOWMtOC43IDE1LjEtOC43IDM5LjggMCA1NC45bDEwMC40IDE3NGM4LjcgMTUuMSAzMC4xIDI3LjUgNDcuNiAyNy41aDIwMC45YzE3LjQgMCAzOC44LTEyLjQgNDcuNi0yNy41bDEwMC40LTE3NGM4LjctMTUuMSA4LjctMzkuOCAwLTU0Ljl6bS0yNzAuMi0xMDUuMmMwLTExLjQgOS4zLTIwLjcgMjAuNy0yMC43czIwLjcgOS4zIDIwLjcgMjAuN3YxMjMuN2MwIDExLjQtOS4zIDIwLjctMjAuNyAyMC43cy0yMC43LTkuMy0yMC43LTIwLjd6bTIwLjcgMjY0LjFjLTc3LjQgMC0xNDAuNC02My0xNDAuNC0xNDAuNC4xLTQ0LjQgMjEuMS04Ni4xIDU2LjctMTEyLjcgOC4yLTYuMSAxOS43LTQuNCAyNS44IDMuOHM0LjQgMTkuNy0zLjggMjUuOGMtNDUuOSAzNC4xLTU1LjUgOTktMjEuNCAxNDQuOXM5OSA1NS41IDE0NC45IDIxLjRjMjYuMy0xOS41IDQxLjgtNTAuNCA0MS44LTgzLjItLjEtMzIuOS0xNS43LTYzLjgtNDIuMi04My40LTguMi02LTkuOS0xNy42LTMuOS0yNS44czE3LjYtOS45IDI1LjgtMy45YzM1LjkgMjYuNSA1NyA2OC41IDU3LjEgMTEzLjEgMCA3Ny41LTYzIDE0MC40LTE0MC40IDE0MC40eiIvPjwvc3ZnPg==;" vertex="1" parent="1">
          <mxGeometry x="1406.56" y="1059.59" width="84.99" height="76" as="geometry" />
        </mxCell>
        <mxCell id="lKesAJO6-86HrHTojqqC-9" value="&lt;font style=&quot;font-size: 20px;&quot;&gt;&lt;b&gt;REST API&lt;/b&gt;&lt;/font&gt;" style="rounded=1;whiteSpace=wrap;html=1;" vertex="1" parent="1">
          <mxGeometry x="1342" y="1032" width="88" height="50" as="geometry" />
        </mxCell>
        <mxCell id="lKesAJO6-86HrHTojqqC-10" value="&lt;b&gt;&lt;font style=&quot;font-size: 22px;&quot;&gt;notification-service:&amp;nbsp;&lt;/font&gt;&lt;/b&gt;&lt;div&gt;&lt;b&gt;&lt;font style=&quot;font-size: 22px;&quot;&gt;port 8084&lt;/font&gt;&lt;/b&gt;&lt;/div&gt;" style="text;html=1;align=center;verticalAlign=middle;whiteSpace=wrap;rounded=0;" vertex="1" parent="1">
          <mxGeometry x="1313.43" y="1149" width="278.13" height="30" as="geometry" />
        </mxCell>
        <mxCell id="lKesAJO6-86HrHTojqqC-11" value="" style="shape=cylinder3;whiteSpace=wrap;html=1;boundedLbl=1;backgroundOutline=1;size=15;" vertex="1" parent="1">
          <mxGeometry x="1951.5579797363284" y="900.89" width="60" height="80" as="geometry" />
        </mxCell>
        <mxCell id="lKesAJO6-86HrHTojqqC-12" value="" style="shape=image;verticalLabelPosition=bottom;labelBackgroundColor=default;verticalAlign=top;aspect=fixed;imageAspect=0;image=data:image/png,iVBORw0KGgoAAAANSUhEUgAAAUAAAAFACAMAAAD6TlWYAAAB71BMVEVHcEwiUFwjUV0jUV0jUV0jUV0jUV0iUFwjUV0jUV0jUV0jUV0kUl4jUV0jUV0iUFwiUF0jUV0jUV0jUV0jUV0jUV0jUV0jUV0jUV0jUV0jUV0hUFwjUV0jUV0jUV0jUV0jUV0jUV0jUV0gTlsjUV0jUV0jUV0jUV4hUFwjUV0jUV0jUV0jUV0jUV0jUV0jUV0jUV0iUV0jUV0jUV0jUV0jUV0jUV0jUV0jUV0iUFwjUV0jUV0jUV0jUV0jUV0jUV0jUV0jUV0jUV0jUV0jUl0jUV0jUV0jUV0jUV0jUV0jUV0jUV0jUV0jUV0jUV0jUV0jUV0jUV0jUV0jUV0jUV0jUV0iUV0jUV0jUV0jUV0jUV0jUV0jUV0jUV0iUV0jUV0jUV0jUV0jUV0jUV0jUV0jUV0jUV0jUV0jUV0jUV0jUV0jUV0jUV0jUV0jUV0jUV0jUV0jUV0jUV0jUl4jUV0jUV0jUV0jUV0jUV0jUV0jUV0jUV0jUV0jUV0jUV0jUV0jUV0jUV0jUV0jUV0jUV0jUV0jUV0jUV0jUV0jUV0jUV0jUV0kUV0jUV0jUV0jUV0jUV0jUV0hT1siUFwjUV0jUV0jUV0jUV0jUV0jUV0jUV0jUV0jUV0jUV0jUV0jUV0jUV0jUV0jUV0jUl4jUV0j7j5jAAAApXRSTlMABzmU588zCCNcqP7//5kCCkFaanB5kbbg+8EEMXu74/X9vQE2nun/AxSBfim19ELKDC3N8U4a+oUF94tf69pIpPkk9v/lbh7RhtTtS1QuFcRyaCvc8AvSEviqmJZzDpzOGG13fYmHZlEbOIyPg0YPROxY/9hivzTWxmSm/BDyNcnXSu6wPDtAwqG4Tf+sIUkTEQIGosveJpA+Uhwn4bm8L7N1+MjTyPSgAAAMxklEQVR4AezBwREAEAwAsKLA/gPbwc9dkuB3AAAAAAAAAAAAAAAAAAAAAAAAAAAAAAAAAAAAAAAAAAAAAAAAAACU2rKPeMJc++RlDx4SHYpiAICmVlLbtu3228b+d/LN+94gneccF5LbA7sQXrvPHwiGwpFojPBN3AuCLZFMpTPZHL3BL3kvCKZCsVQm/K/irILgqdXNhCpqgOBptnKo1e6AYLF2CXWkeyA4+gNCHcMRCI5xnlDHZDoDwWAwuVDHfNEDwbHMoo5V0AaCo7lGLRpsCiA4vFtCjb3tPggexwGqDo+OeyB4TiyoolMfCCbPWQ5V51YQXEUzqi4uQXDZnIQKV7gKguuqjSrzNQium1tUkXMGgusuhqrcPQiuh0fUeCqCYHrevrJvH35J9X8fxz+OUjvvj9hwa8pFKplZuEBNDBeamhYuGio5m17uhTaw5R6Xlpftuz/0hgMezjFK0uoe/J6P3e7ldz+Q8Y3WBvrNtG06+n9BU2XFt24kklzDtZCbmVm0hzY/Mu3W7XY6iLKOzsaqMNqP7U50V3R3pqGmp9eQ2dXXf+ZuIsndi+7u7j6XWdNz/8GD4ofJVRGPLAP0Zz0KxbeEaFI4JzBzQgMp/T3IzPp6OoCwGwwUDdF+bgvDPAwMVzAzmPXNIzdG75JEN8bMcGKuEH+Buii9sauA/qDxCfhgrSO59kk4xU+RQuE0A+AHdADmOAAcSfspZoCtJr3JarXq1cwA26vvzJDH2SsA67Nn80TZqVY7A0LjY/pjLE8YPlSWkVxOCVwSBkjuaDpcGnX082xPAXAx7aeHIVx+VpdfV1pamh9xLaTRwUD8XNZuwFbAOPQ8OPiey4uXpUM1rQJw0Ux/yOMnw/DllTLKJTtcyvNJRtMjwCU9h36eqtvKPHLUn4DlF8ir/fnNWgbnJkkB+TUphM8LELrpj9AsPGX4wiHKX9fBcFlcCiKv5SaI7JfoAFoiQjKTyJ+AqS9JTrtSXQFuNJPLajU4jZSeO4DGGfoDBrpK4Jt6lOTacuHmeE5e19QQ8S2NonbUzFoUfV9Um26dfAjSRSX6DFj0iJSOtlZACNnwBKz4R0MKM5vA1hv6/c7M6fEdjsfKie6AG9/U0q6GXHg8maFd61nX08Zyc/+KnCrT0N3bbyMfntGI/9Hb94szH6lI+6J47Ejj5XoNbfcUF3eFk4dtKCa2MWGp998dItWF24Zz/VFSQGsp7bHgABziuGw78m3AsNNAShb9buGGSsb3VJ8luT41AIZTpYV2XZLy10pL2buYFIHF0uqtB2/62Gmsxf0n8CI/tTUUlzCAjLnEgUleZO4lUdRop57hxKanb++ZJ5g5b9sbcIX2KExjcIfWE/A1KQ1cBCZ26Ldaz+p+yvgufq0iGVUaAzAaAQgGDbm1jwHgK7UA1FPk9myCIeGJTQZwcYCcDAwgL2JOgAsXk20E2F2+GjqskHDJ6WwApmc/CEiPsoEmsxjw2zXwpQOYC6PfqK2u4z3jB9QnSW61EwA/nLIDGDGTW345gMrgY2IHd+/gLYhYn2ri3TH7RAyYyQDiQxlgp9R8amgFkCEOHl2aJ6u6vFxgiKRqPqcw2VoBa50n4GtSsIwxyofotwkbT55MZfyQ4wzJnXEAMC3sGAHYT5EobI4Bvqm5JgA4Is74mQ8s1t/M7D9ed+2jFfAGPMcQCcZ/ziU/iAhzrf5Ahrh83TGJ+UI7Ll34ezQtlP0IWDi3COGUK2AnYBzafvny5XZpfl1d/tBUTBOjqCfsd9W7WhVbwtjPxTWSO6kG8D6cagTXzzWQy7bDvSm/zAbQHExOQ2KIovs2chmoqpUFTGa4zPYur5OoTQponhD7NT5XkZM2+BXvH5Ai2X0KX+sUbyIuVr3JpLcLDKH10u/pF/Wp6nMoZ2BfHKMhGdU/DGA+jHIqAZgiyEkbyQAvBVHBCADhDhEV3lgEoA4JIzfNFz2kNTBarGLqSiQ32QgUVwZMWMjjXbUfAWMYHOIJCPaqACB0XtLRL9dy9PZ8OsMvpn6SE5crfkikvclAxWkdkbtldh1R4dIiwNNaInMTnLbKaNfZi3sDfmynvQE9Xx57FUlG9cqA/+UjYIgsYHpIcXFNZnf0l67uno7zE+UVME0X0C818yL5YwnDX8YdknuRB8C6QETBtZ5sGoMAQEwZLQCYsBEF58GdUlLMUsAuVu5NUkDPO0WohSTmLVnAXp8B16cZnOleA3laQ14btv4xAZzWQr9M23HDZDPDf/xaS3KnBABxy0QUdIwBvhFE5hFpMj8qd0U9TrRiBcT/lWRKUAbM3ibJ2VZPQPFVAdWrJIka2zegrtF9WxJ34Q5SMjcC2UP0a7RvG57MMn6KfojkEm/AKTaMnJ5lA6gNpiq7K81ZabwIXb4CRqiVAR1HSdIwoQh4pI0kG/P7BswKFY8Kvs+BdCkeHPtrjstfEpoZP2tkh+QKnnrD6E4D4JCzX73LVtBnOM0VeqZwJHndEQBszkhr4OBV5XOWGHDgCdwDXDLwVRawxmfA63ZgcuZ7AZNqgWY6NO2ZWymMn8chKpK7kCp7YI0wAaiMLJIdqTMZ4rVgpwlOud65qH3NyoDpFpIUGD0BtdMVAKz1JEkqkQU0+Aq46prB0aQ8SHu9CQUEOqysmHTGQcxeIAVxl9halr0gDHOG7FJXZwVQtEKFSwzAOuoNUSkWlQXMIonNuHsTuaMGsHh+QOr+QNgnoCo5HphY3n3Oeu1rBBbR4ehONjEOZPiDjuQ2xCkaG0Rut9V7P7kQ/t4zxYescGraJreCzywGXJMChr4jScMVON3QEL2Lg5O+poVE6xEO/DigdsoBFE35eg+UJjgn0KG8mTbhgKwRpLC8pdgbwrcg4rREcgv7APc5e2CeAfDWKXMhqdqe/SXApdN3wPYncEr5N4xUBvEXWi8H64iC3hkGIQ/48JuDtNnQDNhjwtwBW7/dhXOqxb6HceEI46BetZHCgnX3FChSPWC4ZD+iXb3sSlFGFPweLnbj3Otjm9kM0ZE2n1O4cA5OPJupJdsYw4kHx9Iiz8cxFAEzGfaTuqiNxHXNunajfflvQ6sAmEJmvE/6cxvy19yyqWpGxodVOjhNfUoFDqroBCkZ2H0R3nVmcO/33vyrB2D6l4jqQyHDeu8JTwxYYiGvboZLdRvRp02GiBlARbzaFfCZFDAjvfGv+blj09NL57/GpTLAcVUtJAVE3rGYB/d7agwGQ+/by2Pv7QAb7x2m31A6DozndKQQNA+nz0G0a+Myu3pdIsmbSs9Vj6j0ogC3DPvIw8sZnkJEp8QR+I68LFtwabIRUdacFR6cOm8Q3wNLpc5KbN96+4ncxCnsNpwxPIyKCvcfcf4w/aguFAcXGkxKhTcHZ/O2+skr5+Ogo8nQIvslD5sqK1Ouk8vOtYT0Ir3V8fTGlJnq4mbzBmMKyem50ZFX0tFCMgudViF+Nlaci+0Rsel6ZvvsREedbrkzOzv7iif231uOwRKnwdqS9NAUY+58SES4hiQbN2sd4s+6DKZXxj198rm3tJ0OIWkEB6f/oqE9Bj4F3wtXkczMp6QdlSLyTnhZeBC56SyP8lfGbYlEpH0TfCZJRy6q5fEzV3WkYKu7VP/CRm5ROf19fUMvCtaJNMvPn78o05BIVTb+yWKx5HxKump5t1ywFkRKA0lJOa6fdfmUVWa2DRTSoTTMM/xiN+qxl/CPjgJcYo0d/qnMLIKXuHDz2A4Fuvpm+GnptiDr9zkP4MYsCnTjRvjJPvWWIXlaPwj1+XcUYKLuhpsborQkeTfJ8JPR8hESwRBcXlLTQIFl5/ZpY0rclYSlt3dWLDbdRuJM3ROGn4SH7yohSbEsF2+vU2B5OSnAjbkofaIxdm5ydhFeGZxdOdL55OtmtTGltlzNDJnF3J2IeG/NHhUFnhT8iBA3fXL7jW2tvX3mbEF40oWI5MjzuVsl2SY1O5W/Ck6cZux6Gk4B6FY643viN0+9SaQ9NtbMV7frhkb7+qYerZKlErusfRSIVMcbGT7xlZM22k+3AA8+pqPAZL6sx7cWHfeXaV87V7DrShYFqvboUMYewmSdlvbXZYdH+jMKXJp8BxQ49GEB+eFdEzwcoxoKYAuzkCtfCvYrR+EtAW6DfVoKYOZNyMQ3DrWQX/KbIeK4oXUKYEGRgizfk76z/nbPhUg99oIC2ols7NJ/vW4jP4V1iN055VwDBTRzNdzY+mrU/xZh0UUA+H3MJwpw9Xaxnmlrur6N/HfHyvrK+ap3Ggp0pY7U1NTQub53hfQzpv6KvJ500I/P/cd/twcHAgAAAABA/q+NoKqqqqqqqqqqqqqqqqqqqqqqqqqqqqqqqqqqqqqqqqqqqqqqqqqqAAdfK9O4SovnAAAAAElFTkSuQmCC;" vertex="1" parent="1">
          <mxGeometry x="1951.5600000000004" y="866.89" width="165.11" height="165.11" as="geometry" />
        </mxCell>
        <mxCell id="lKesAJO6-86HrHTojqqC-13" value="" style="shape=image;verticalLabelPosition=bottom;labelBackgroundColor=default;verticalAlign=top;aspect=fixed;imageAspect=0;editableCssRules=.*;image=data:image/svg+xml,PHN2ZyB4bWxucz0iaHR0cDovL3d3dy53My5vcmcvMjAwMC9zdmciIHZpZXdCb3g9IjAgMC4zMDAwMDAwMTE5MjA5Mjg5NiAxMDIwIDk2OS40MDYxODg5NjQ4NDM4IiBoZWlnaHQ9Ijk2OS40MDYxODg5NjQ4NDM4IiB3aWR0aD0iMTAyMCIgZGF0YS1uYW1lPSJMYXllciAxIiBpZD0iTGF5ZXJfMSI+PGRlZnM+PHN0eWxlPi5jbHMtMXtmaWxsOiNjMDA7fTwvc3R5bGU+PC9kZWZzPjx0aXRsZT5GbHl3YXk8L3RpdGxlPjxwYXRoIGQ9Ik0zLjksODk4LjNDMCw4ODUuNiwwLDg3My40LDAsODYwLjVWNzY0LjJDMCw3MzEuNi42LDY5NC41LDguMiw2NjNjMjgtNi45LDU5LjgtNy4zLDkzLjItNy4zaDcyLjlhNzYuOSw3Ni45LDAsMCwxLDEuNywxNS4yLDg2LjcsODYuNywwLDAsMS0xLjcsMTUuMmMtMTAuMiwzLjMtMjAuNCwzLjMtMzAuOSwzLjNIMTAzYy0yMS44LDAtNDAuNywwLTU5LjUsMy45LTIuNywyMC4xLTMuMyw0NC0zLjMsNzFIMTQ5LjRhNjIuNiw2Mi42LDAsMCwxLDEuNiwxNC45LDczLjcsNzMuNywwLDAsMS0xLjYsMTUuN2MtMTAuNSwzLjMtMjAuNCwzLjMtMzEuNiwzLjNINDAuMnYxMDBhODEuOCw4MS44LDAsMCwxLTE3LjcsMS43QTE1MC44LDE1MC44LDAsMCwxLDMuOSw4OTguM1oiLz48cGF0aCBkPSJNMTk5LjksODk4YTIzNC40LDIzNC40LDAsMCwxLTEuOS0zMy41VjY4OS42YzAtMTEuNiwwLTIzLDMuNi0zNC4zYTc0LDc0LDAsMCwxLDMwLjYsMGMzLjMsMTEuMiwzLjMsMjMsMy4zLDM0LjZWODY0LjFjMCwxMC44LjMsMjEuMS0yLDMzLjlhNTkuNyw1OS43LDAsMCwxLTE2LjEsMkE3Mi44LDcyLjgsMCwwLDEsMTk5LjksODk4WiIvPjxwYXRoIGQ9Ik0yNzMuMiw5NjcuN2wzMy4yLTc1LjlMMjU5LjgsNzc4LjdjLTUuMi0xMy4xLTEzLjItMzEuMi0xMy41LTQ1LjZhNjkuMiw2OS4yLDAsMCwxLDE4LjgtMi4zLDcwLDcwLDAsMCwxLDE3LjcsMmw0NCwxMTQuNywyMy44LTUxLjljNy41LTE2LjksMTcuNy00NC44LDIyLjYtNjIuOGE3Ny4yLDc3LjIsMCwwLDEsMTguNS0yLDc0LjEsNzQuMSwwLDAsMSwxOCwyYy0yLjIsMjEtMTQuMSw0NS42LTI2LjMsNzMuM0wzMTMsOTY3LjdhODkuMyw4OS4zLDAsMCwxLTE5LjQsMkE5NC4xLDk0LjEsMCwwLDEsMjczLjIsOTY3LjdaIi8+PHBhdGggZD0iTTQ1Ny44LDg5OCw0MjMuOSw3NzEuMWMtNC0xNC40LTcuNi0yNy42LTguMy0zOC4xYTg2LjgsODYuOCwwLDAsMSwyMC40LTIuMyw4NS44LDg1LjgsMCwwLDEsMTguOCwybDI5LjYsMTI2LjlMNTMwLjgsNzM0YTY3LDY3LDAsMCwxLDE1LjEtMS43QTc0LjgsNzQuOCwwLDAsMSw1NjIsNzM0bDQ2LjQsMTI1LjYsMjkuNS0xMjYuOWE4MC43LDgwLjcsMCwwLDEsMTguNS0yLDg3LjYsODcuNiwwLDAsMSwyMC43LDIuM2MtMSwxMi4xLTQuMiwyNC45LTgsMzguNEw2MzYuMyw4OThjLTkuMiwyLjMtMTYuMSwzLjMtMjIuNywzLjNzLTE0LjItMS0yNC40LTMuM0w1NDYuNCw3ODMuOSw1MDQuNyw4OThjLTkuNSwyLjMtMTYuMSwzLjMtMjMsMy4zUzQ2Ny45LDkwMC40LDQ1Ny44LDg5OFoiLz48cGF0aCBkPSJNNjkyLjUsODQ0LjRWODMxLjZjMC0yNC45LDEuMS02NC40LDExLjYtODkuNSwyNC4zLTExLjgsNDUuMS0xNy4xLDY0LjctMTcuMSw0Mi40LDAsNzYsMTEuMiw3Niw1Ny45djY5LjRhMzk3LjUsMzk3LjUsMCwwLDEtMi42LDQ1LjYsNDkuMiw0OS4yLDAsMCwxLTEzLjksMiw2OS44LDY5LjgsMCwwLDEtMTYtMmwtMy0xNmMtMTEuOSwxMi4xLTMyLjksMTkuNi01NSwxOS42UzY5Mi41LDg5Mi4yLDY5Mi41LDg0NC40Wk04MDcsODUyLjdWNzY2LjVjLTcuNS02LjMtMjMtOS4yLTM4LjUtOS4ycy0zMS4yLDMtMzguNyw5LjJ2OTIuN2M4LjIsNi42LDE5LDkuNSwzMC4yLDkuNUM3NzYuNCw4NjguOCw3OTQuMSw4NjIuNiw4MDcsODUyLjdaIi8+PHBhdGggZD0iTTg4My42LDk2Ny43bDMzLjItNzUuOUw4NzAuMSw3NzguNmMtNS4zLTEzLjItMTMuMi0zMS4yLTEzLjUtNDUuNmE2OSw2OSwwLDAsMSwxOC43LTIuMyw3MS40LDcxLjQsMCwwLDEsMTcuOCwybDQ0LDExNC43LDIzLjctNTJjNy41LTE2LjgsMTcuOC00NC43LDIyLjctNjIuN2E3Ny4yLDc3LjIsMCwwLDEsMTguNS0yLDc1LjMsNzUuMywwLDAsMSwxOCwyYy0yLjMsMjEtMTQuMSw0NS42LTI2LjMsNzMuM0w5MjMuNCw5NjcuN2E4OS4zLDg5LjMsMCwwLDEtMTkuNCwyQTk0LjEsOTQuMSwwLDAsMSw4ODMuNiw5NjcuN1oiLz48cGF0aCBkPSJNNDI5LjQsMzc0LjlhNTguNiw1OC42LDAsMCwwLDkuNS0yOC40bC00NC42LDkuMmEyOC4zLDI4LjMsMCwwLDEtNSwuNSwyNS4xLDI1LjEsMCwwLDEtNS00OS42bDEwMS4yLTIwLjhBNjAuMiw2MC4yLDAsMCwwLDUyMy42LDI2MGE2MS4yLDYxLjIsMCwwLDAsOS44LTI4LjdsLTQ0LjgsOS4yYTI4LjMsMjguMywwLDAsMS01LC41QTI1LDI1LDAsMCwxLDQ1OSwyMjAuOGMtMi43LTEzLjYsNi41LTI2LjcsMjAuMS0yOS41bDEwMC0yMC41YzE5LjUtNCwzMC45LTIwLDM2LTI5LjFhODAuNSw4MC41LDAsMCwwLDktMjYuM0wzMDkuNSwxODBWNDE3LjhsODAuOC0xNi42QTYxLjYsNjEuNiwwLDAsMCw0MjkuNCwzNzQuOVoiIGNsYXNzPSJjbHMtMSIvPjxwYXRoIGQ9Ik01MTAsLjNjLTg4LDAtMTY0LjksMTcuOC0yMDAuNiw0My40djg1LjFMNjU0LjQsNThhMTMuNiwxMy42LDAsMCwxLDE2LDEwLjVsMi4zLDExLjNjNS44LDI4LjMuOCw1OS43LTEzLjksODYuMi0xNiwyOC44LTQwLjgsNDcuOS02OS45LDUzLjlsLTUuNSwxLjFhMTA4LjksMTA4LjksMCwwLDEtMTguOSw2Ny43Yy0xNi4zLDI0LjItNDEuNyw0MC41LTcwLjIsNDYuNGwtNS4zLDEuMWExMTAuNSwxMTAuNSwwLDAsMS04Ny44LDExNEwzMDkuNCw0Njl2MjIuOEMzNDUuMSw1MTcuNSw0MjIsNTM1LjMsNTEwLDUzNS4zczE2NC45LTE3LjgsMjAwLjYtNDMuNVY0My43QzY3NC45LDE4LjEsNTk4LC4zLDUxMCwuM1oiIGNsYXNzPSJjbHMtMSIvPjwvc3ZnPg==;" vertex="1" parent="1">
          <mxGeometry x="1812.56" y="900.89" width="97.95" height="93.05" as="geometry" />
        </mxCell>
        <mxCell id="lKesAJO6-86HrHTojqqC-14" value="&lt;font style=&quot;font-size: 43px;&quot;&gt;+&lt;/font&gt;" style="text;html=1;align=center;verticalAlign=middle;whiteSpace=wrap;rounded=0;fontFamily=Helvetica;fontSize=12;fontColor=default;resizable=1;fontStyle=1" vertex="1" parent="1">
          <mxGeometry x="1826.5600000000004" y="906.92" width="180" height="58" as="geometry" />
        </mxCell>
        <mxCell id="lKesAJO6-86HrHTojqqC-15" value="" style="endArrow=classic;html=1;rounded=0;exitX=1;exitY=0.5;exitDx=0;exitDy=0;entryX=0;entryY=0.5;entryDx=0;entryDy=0;strokeWidth=3;" edge="1" parent="1" source="lKesAJO6-86HrHTojqqC-16" target="lKesAJO6-86HrHTojqqC-14">
          <mxGeometry width="50" height="50" relative="1" as="geometry">
            <mxPoint x="1538.5599999999995" y="1072.495" as="sourcePoint" />
            <mxPoint x="1968.56" y="699.89" as="targetPoint" />
          </mxGeometry>
        </mxCell>
        <mxCell id="lKesAJO6-86HrHTojqqC-16" value="" style="shape=image;verticalLabelPosition=bottom;labelBackgroundColor=default;verticalAlign=top;aspect=fixed;imageAspect=0;editableCssRules=.*;image=data:image/svg+xml,PHN2ZyB4bWxucz0iaHR0cDovL3d3dy53My5vcmcvMjAwMC9zdmciIHdpZHRoPSIyNDc4Ljg1NDk2MTcxNzkxNDYiIHZpZXdCb3g9IjAuMDc0OTkxMjI2MTk2Mjg5MDYgMCA1MDkuOTUwMDQyNzI0NjA5NCA0NTcuNzk5OTg3NzkyOTY4NzUiIGhlaWdodD0iMjIxNS45OTk5NDA5MTEzNTYiPjxwYXRoIGZpbGw9IiM2ZGIzM2YiIGQ9Im01MDMuNSAyMDEuNC0xMDAuNS0xNzMuOWMtOC43LTE1LjEtMzAuMS0yNy41LTQ3LjYtMjcuNWgtMjAwLjhjLTE3LjQgMC0zOC45IDEyLjQtNDcuNiAyNy41bC0xMDAuNCAxNzMuOWMtOC43IDE1LjEtOC43IDM5LjggMCA1NC45bDEwMC40IDE3NGM4LjcgMTUuMSAzMC4xIDI3LjUgNDcuNiAyNy41aDIwMC45YzE3LjQgMCAzOC44LTEyLjQgNDcuNi0yNy41bDEwMC40LTE3NGM4LjctMTUuMSA4LjctMzkuOCAwLTU0Ljl6bS0yNzAuMi0xMDUuMmMwLTExLjQgOS4zLTIwLjcgMjAuNy0yMC43czIwLjcgOS4zIDIwLjcgMjAuN3YxMjMuN2MwIDExLjQtOS4zIDIwLjctMjAuNyAyMC43cy0yMC43LTkuMy0yMC43LTIwLjd6bTIwLjcgMjY0LjFjLTc3LjQgMC0xNDAuNC02My0xNDAuNC0xNDAuNC4xLTQ0LjQgMjEuMS04Ni4xIDU2LjctMTEyLjcgOC4yLTYuMSAxOS43LTQuNCAyNS44IDMuOHM0LjQgMTkuNy0zLjggMjUuOGMtNDUuOSAzNC4xLTU1LjUgOTktMjEuNCAxNDQuOXM5OSA1NS41IDE0NC45IDIxLjRjMjYuMy0xOS41IDQxLjgtNTAuNCA0MS44LTgzLjItLjEtMzIuOS0xNS43LTYzLjgtNDIuMi04My40LTguMi02LTkuOS0xNy42LTMuOS0yNS44czE3LjYtOS45IDI1LjgtMy45YzM1LjkgMjYuNSA1NyA2OC41IDU3LjEgMTEzLjEgMCA3Ny41LTYzIDE0MC40LTE0MC40IDE0MC40eiIvPjwvc3ZnPg==;" vertex="1" parent="1">
          <mxGeometry x="1406.56" y="898.36" width="84.99" height="76" as="geometry" />
        </mxCell>
        <mxCell id="lKesAJO6-86HrHTojqqC-17" value="&lt;font style=&quot;font-size: 20px;&quot;&gt;&lt;b&gt;REST API&lt;/b&gt;&lt;/font&gt;" style="rounded=1;whiteSpace=wrap;html=1;" vertex="1" parent="1">
          <mxGeometry x="1338.56" y="872.5099999999999" width="88" height="50" as="geometry" />
        </mxCell>
        <mxCell id="lKesAJO6-86HrHTojqqC-18" value="&lt;b&gt;&lt;font style=&quot;font-size: 22px;&quot;&gt;patient-service:&amp;nbsp;&lt;/font&gt;&lt;/b&gt;&lt;div&gt;&lt;b&gt;&lt;font style=&quot;font-size: 22px;&quot;&gt;port 8083&lt;/font&gt;&lt;/b&gt;&lt;/div&gt;" style="text;html=1;align=center;verticalAlign=middle;whiteSpace=wrap;rounded=0;" vertex="1" parent="1">
          <mxGeometry x="1310" y="989.5600000000001" width="278.13" height="30" as="geometry" />
        </mxCell>
        <mxCell id="lKesAJO6-86HrHTojqqC-24" value="" style="endArrow=classic;startArrow=classic;html=1;rounded=0;entryX=0.885;entryY=1.087;entryDx=0;entryDy=0;entryPerimeter=0;strokeWidth=3;" edge="1" parent="1" target="jXE84wmBWAXDm7vTvwUr-61">
          <mxGeometry width="50" height="50" relative="1" as="geometry">
            <mxPoint x="1087.43" y="766.11" as="sourcePoint" />
            <mxPoint x="1137.43" y="716.11" as="targetPoint" />
            <Array as="points">
              <mxPoint x="1280" y="500" />
            </Array>
          </mxGeometry>
        </mxCell>
        <mxCell id="lKesAJO6-86HrHTojqqC-25" value="" style="endArrow=classic;startArrow=classic;html=1;rounded=0;entryX=0;entryY=0.5;entryDx=0;entryDy=0;strokeWidth=3;exitX=1.001;exitY=0.439;exitDx=0;exitDy=0;exitPerimeter=0;" edge="1" parent="1" source="4flN3aG6s3kdL9gd_zPc-30" target="jXE84wmBWAXDm7vTvwUr-71">
          <mxGeometry width="50" height="50" relative="1" as="geometry">
            <mxPoint x="1130" y="992.11" as="sourcePoint" />
            <mxPoint x="1462.57" y="690" as="targetPoint" />
            <Array as="points" />
          </mxGeometry>
        </mxCell>
        <mxCell id="lKesAJO6-86HrHTojqqC-26" value="" style="endArrow=classic;startArrow=classic;html=1;rounded=0;entryX=0;entryY=0.5;entryDx=0;entryDy=0;strokeWidth=3;exitX=1.001;exitY=0.445;exitDx=0;exitDy=0;exitPerimeter=0;" edge="1" parent="1" source="4flN3aG6s3kdL9gd_zPc-30" target="jXE84wmBWAXDm7vTvwUr-73">
          <mxGeometry width="50" height="50" relative="1" as="geometry">
            <mxPoint x="1090" y="770" as="sourcePoint" />
            <mxPoint x="1512" y="710" as="targetPoint" />
            <Array as="points" />
          </mxGeometry>
        </mxCell>
        <mxCell id="lKesAJO6-86HrHTojqqC-27" value="" style="endArrow=classic;startArrow=classic;html=1;rounded=0;entryX=0;entryY=0.5;entryDx=0;entryDy=0;strokeWidth=3;exitX=1;exitY=0.5;exitDx=0;exitDy=0;" edge="1" parent="1" source="4flN3aG6s3kdL9gd_zPc-30" target="lKesAJO6-86HrHTojqqC-16">
          <mxGeometry width="50" height="50" relative="1" as="geometry">
            <mxPoint x="1190" y="867" as="sourcePoint" />
            <mxPoint x="1512" y="710" as="targetPoint" />
            <Array as="points" />
          </mxGeometry>
        </mxCell>
        <mxCell id="lKesAJO6-86HrHTojqqC-28" value="" style="endArrow=classic;startArrow=classic;html=1;rounded=0;entryX=0;entryY=0.5;entryDx=0;entryDy=0;strokeWidth=3;exitX=1;exitY=0.5;exitDx=0;exitDy=0;" edge="1" parent="1" source="4flN3aG6s3kdL9gd_zPc-30" target="lKesAJO6-86HrHTojqqC-8">
          <mxGeometry width="50" height="50" relative="1" as="geometry">
            <mxPoint x="1190" y="830" as="sourcePoint" />
            <mxPoint x="1510" y="990" as="targetPoint" />
            <Array as="points">
              <mxPoint x="1270" y="1065" />
            </Array>
          </mxGeometry>
        </mxCell>
        <mxCell id="lKesAJO6-86HrHTojqqC-29" value="" style="endArrow=classic;html=1;rounded=0;exitX=0.5;exitY=0;exitDx=0;exitDy=0;strokeWidth=3;" edge="1" parent="1">
          <mxGeometry width="50" height="50" relative="1" as="geometry">
            <mxPoint x="340" y="743" as="sourcePoint" />
            <mxPoint x="489" y="743" as="targetPoint" />
          </mxGeometry>
        </mxCell>
      </root>
    </mxGraphModel>
  </diagram>
</mxfile>
